<?xml version="1.0" encoding="utf-8"?>
<!-- Generator: Adobe Illustrator 22.0.1, SVG Export Plug-In . SVG Version: 6.00 Build 0)  -->
<svg version="1.1" id="element" xmlns="http://www.w3.org/2000/svg" xmlns:xlink="http://www.w3.org/1999/xlink" x="0px" y="0px"
	 viewBox="0 0 500 500" style="enable-background:new 0 0 500 500;" xml:space="preserve">
<style type="text/css">
	.st0{fill:url(#SVGID_1_);}
</style>
<linearGradient id="SVGID_1_" gradientUnits="userSpaceOnUse" x1="83.1983" y1="249.8212" x2="419.5242" y2="249.8212">
	<stop  offset="0" style="stop-color:#C1C1C1"/>
	<stop  offset="0.6" style="stop-color:#78308A"/>
	<stop  offset="1" style="stop-color:#782A85"/>
</linearGradient>
<path class="st0" d="M418.4,259.6c-0.7-0.7-1.7-1.1-2.6-1.1l-4.5-34.2c0.2-0.1,0.4-0.2,0.6-0.3c1.1,0.7,2.6,0.6,3.5-0.3
	c1.1-1.1,1.1-2.9,0-4c-1-1-2.5-1.1-3.6-0.3c-0.2-0.1-0.4-0.2-0.6-0.3L400.2,207l1.9-5.5c0.4,0.1,0.9,0,1.2-0.4c0.6-0.6,0.6-1.5,0-2
	c-0.5-0.5-1.4-0.5-2-0.1L381,182.3l17.8,0.5c0.1,0.7,0.4,1.4,0.9,1.9c1.2,1.2,3.3,1.2,4.5,0c1.2-1.2,1.2-3.3,0-4.5
	c-1-1-2.5-1.2-3.7-0.6l-24.1-36.7c0,0,0.1-0.1,0.1-0.1c1.1-1.1,1.1-2.8,0-3.8c-1-1-2.7-1-3.7-0.1l-23.9-19.3c0,0,0.1,0,0.1-0.1
	c0.6-0.6,0.6-1.6,0-2.2c-0.6-0.6-1.6-0.6-2.2,0c-0.1,0.1-0.2,0.2-0.3,0.3l-7.4-5.9c1.4-2.1,1.2-4.9-0.6-6.7c-2.1-2.1-5.4-2.1-7.5,0
	c-2.1,2.1-2.1,5.4,0,7.5c0.2,0.2,0.5,0.4,0.7,0.6l-7,11.9l-10.2-11.1l-0.1-1c0.5-0.1,0.9-0.3,1.3-0.7c0.9-0.9,0.9-2.4,0-3.3
	c-0.7-0.7-1.7-0.9-2.6-0.5l-6-11.6c0.2-0.1,0.3-0.2,0.5-0.4c0.9-0.9,0.9-2.4,0-3.4c-0.9-0.9-2.4-0.9-3.4,0c-0.6,0.6-0.8,1.5-0.6,2.3
	l-4.6,1.5l-2.9-3.1c1.1-1.1,1.1-3,0-4.1c-1.1-1.1-3-1.1-4.1,0c-1.1,1.1-1.1,3,0,4.1c0.6,0.6,1.5,0.9,2.3,0.8l0.5,3.6l-35.3,11.5
	L258,97l10.4-3.5c0.1,0.1,0.1,0.3,0.3,0.4c0.5,0.5,1.4,0.5,1.9,0c0.5-0.5,0.5-1.4,0-1.9c-0.5-0.5-1.4-0.5-1.9,0
	c-0.3,0.3-0.4,0.6-0.4,1l-9.4,1.1c0.1-0.1,0.2-0.1,0.3-0.2c1.2-1.2,1.2-3.3,0-4.5c-1.2-1.2-3.3-1.2-4.5,0c-0.8,0.8-1.1,1.8-0.9,2.8
	l-12,3.7l16.5-10.2c0.1,0.1,0.1,0.2,0.2,0.3c0.8,0.8,2.1,0.8,2.9,0c0.8-0.8,0.8-2.1,0-2.9c-0.8-0.8-2.1-0.8-2.9,0
	c-0.5,0.5-0.6,1.1-0.6,1.7l-34.4,5.2c-0.1-0.4-0.3-0.8-0.6-1.1c-0.8-0.8-2.2-0.8-3,0c-0.7,0.7-0.8,1.7-0.4,2.5l-3.6,2.1l-0.4-1.1
	c0.3-0.2,0.7-0.4,1-0.7c1.3-1.3,1.3-3.4,0-4.7c-1.3-1.3-3.4-1.3-4.7,0c-1,1-1.2,2.3-0.8,3.5l-24.4,11.7l-11.1,1.3
	c-0.1-0.2-0.1-0.4-0.3-0.6c-0.5-0.5-1.3-0.5-1.8,0c-0.5,0.5-0.5,1.2-0.1,1.7l-1.6,1.6c-3.5-3.3-9-3.2-12.4,0.2
	c-3.4,3.4-3.5,8.9-0.2,12.4l-10,9.9c-0.1-0.2-0.2-0.4-0.3-0.5c-0.6-0.6-1.6-0.6-2.1,0s-0.6,1.6,0,2.1c0.1,0.1,0.3,0.2,0.4,0.3
	l-0.1,0.3l-15.5,15.5c-0.1-0.1-0.2-0.2-0.3-0.4c-0.3-0.3-0.7-0.6-1.2-0.8l2.7-9.1c1.1,0.2,2.2-0.1,3.1-0.9c1.3-1.3,1.3-3.5,0-4.8
	c-1.3-1.3-3.5-1.3-4.8,0c-1.3,1.3-1.3,3.5,0,4.8c0.3,0.3,0.6,0.5,0.9,0.6l-3.5,9.2c-0.7,0.1-1.4,0.4-2,1c-1.3,1.3-1.3,3.3-0.1,4.6
	l-0.6,1.6l-8.8,8.8c-0.9-0.8-2.3-0.8-3.2,0.1c-0.9,0.9-0.9,2.4,0,3.3c0.8,0.8,1.9,0.9,2.8,0.4l2.8,4.2l-2.3,6l-10.8-0.3
	c-0.1-0.6-0.3-1.3-0.8-1.8c-1.1-1.1-3-1.1-4.1,0c-1.1,1.1-1.1,3,0,4.1c0.3,0.3,0.5,0.4,0.8,0.6l-8.8,28.4c-1.1-0.2-2.3,0.1-3.2,1
	c-1.4,1.4-1.4,3.6,0,5c0.8,0.8,1.9,1.1,2.9,1l0.6,2.9l-4.2,7.2c-1.2-0.6-2.7-0.4-3.8,0.7c-1.3,1.3-1.3,3.4,0,4.7
	c0.5,0.5,1.2,0.8,1.8,0.9l-1.4,24.4c-0.7,0-1.3,0.3-1.8,0.8c-1.1,1.1-1.1,2.9,0,4c1.1,1.1,2.9,1.1,4,0c1.1-1.1,1.1-2.9,0-4
	c-0.2-0.2-0.5-0.4-0.7-0.5l9.2-24.1l0.7,3.5l1.1,5.2l-0.3,1c-0.7-0.2-1.5,0-2,0.5c-0.8,0.8-0.8,2.1,0,2.9c0.8,0.8,2.1,0.8,2.9,0
	c0.1-0.1,0.2-0.2,0.3-0.4l0.2,1.1c-0.5,0.2-1.1,0.5-1.5,0.9c-1.4,1.4-1.4,3.8,0,5.2c0.8,0.8,1.9,1.1,2.9,1c0,0.2,0.1,0.3,0.1,0.5
	l1.1,6l2.4,12.9l-10.4,6.4c-0.1,0.1-0.2,0.1-0.3,0.2l-2,1.2c-0.1-0.1-0.1-0.2-0.2-0.3c-1.2-1.2-3.2-1.2-4.5,0
	c-1.2,1.2-1.2,3.2,0,4.5c1.1,1.1,2.8,1.2,4,0.4l8.1,9.3l-3.6,9.9c-0.8-0.2-1.7,0-2.4,0.7c-1,1-1,2.6,0,3.6c0.7,0.7,1.7,0.9,2.6,0.6
	l10.2,21.7c-0.2,0.1-0.4,0.3-0.6,0.4c-1.2,1.2-1.2,3.1,0,4.3c1.2,1.2,3.1,1.2,4.3,0c0,0,0,0,0,0l12.1,9.3l-1.5,1.3c0,0,0,0,0-0.1
	c-1.2-1.2-3.3-1.2-4.5,0c-1.2,1.2-1.2,3.3,0,4.5c1.2,1.2,3.3,1.2,4.5,0c0,0,0,0,0,0l25.7,23.9l-2.3,0.3c-0.1-0.7-0.4-1.4-1-2
	c-1.4-1.4-3.7-1.4-5.1,0c-1.4,1.4-1.4,3.7,0,5.1c1.4,1.4,3.7,1.4,5.1,0c0.2-0.2,0.4-0.5,0.6-0.8l9.4,4.9c-0.7,1.3-0.4,3,0.7,4.1
	c1.4,1.4,3.7,1.4,5.1,0c1.4-1.4,1.4-3.7,0-5.1c-1.4-1.4-3.7-1.4-5.1,0c0,0,0,0,0,0l-6.9-6.4l19.7-2.5l7.5,5.3
	c-0.8,1.4-0.6,3.2,0.6,4.3c1.4,1.4,3.8,1.4,5.2,0c1.4-1.4,1.4-3.8,0-5.2c-0.1-0.1-0.3-0.2-0.4-0.3l1.9-3.2l8.7,5.5l-14.5,9.5
	c0,0,0,0,0-0.1c-1.1-1.1-2.9-1.1-4,0c-1.1,1.1-1.1,2.9,0,4c0.9,0.9,2.2,1,3.2,0.5l6.5,9c0,0,0,0,0,0c-1.3,1.3-1.3,3.4,0,4.7
	c1.3,1.3,3.4,1.3,4.7,0c0.6-0.6,0.9-1.3,0.9-2l8.8-0.4c0.1,0.5,0.4,1,0.7,1.4c1.1,1.1,2.8,1.1,3.9,0c0.4-0.4,0.7-1,0.8-1.6l14.6-0.7
	l21.5-1l-1.9,4.8l-11.8,2.6c-0.2-0.5-0.4-1-0.8-1.4c-1.3-1.3-3.4-1.3-4.7,0c-1.3,1.3-1.3,3.4,0,4.7c1.3,1.3,3.4,1.3,4.7,0
	c0.5-0.5,0.8-1.1,0.9-1.8l9.7,0.9l-0.8,2.1c-1-0.3-2.1,0-2.9,0.7c-1.1,1.1-1.1,3,0,4.1s3,1.1,4.1,0c0.5-0.5,0.8-1.2,0.8-1.9
	l36.1-1.2c0.1,0.6,0.3,1.1,0.8,1.6c1.1,1.1,2.8,1.1,3.9,0c1.1-1.1,1.1-2.8,0-3.9c-0.3-0.3-0.5-0.4-0.8-0.6l2.3,0.3
	c0,0.8,0.3,1.6,0.9,2.3c1.3,1.3,3.3,1.3,4.5,0c0.7-0.7,1-1.6,0.9-2.5l31.1-7.2c0.2,0.4,0.4,0.8,0.8,1.2c1.3,1.3,3.4,1.3,4.8,0
	c1.3-1.3,1.3-3.4,0-4.8c-1.3-1.3-3.4-1.3-4.8,0c-0.4,0.4-0.7,0.9-0.8,1.4l-25.1-4l19.6-1c0.1,0.6,0.4,1.2,0.9,1.7
	c1.3,1.3,3.3,1.3,4.6,0c1.3-1.3,1.3-3.3,0-4.6c-0.1-0.1-0.2-0.2-0.4-0.3l6.9-0.4c0.1,0.6,0.4,1.2,0.8,1.6c1.1,1.1,3,1.1,4.1,0
	c1.1-1.1,1.1-3,0-4.1c-0.8-0.8-1.8-1-2.8-0.7l-1.1-3.2l22-5.4l0.6,0.6c-0.9,1.1-0.8,2.6,0.2,3.6c1.1,1.1,2.8,1.1,3.8,0
	c1.1-1.1,1.1-2.8,0-3.8c-1-1-2.5-1-3.5-0.2l-0.3-0.3l9.4-2.3c0.1,0.3,0.3,0.7,0.6,0.9c1.1,1.1,3,1.1,4.1,0c1.1-1.1,1.1-3,0-4.1
	c-0.3-0.3-0.8-0.6-1.2-0.7l1.5-10c0.9,0,1.8-0.3,2.5-1c1.3-1.3,1.3-3.5,0-4.9c-0.7-0.7-1.7-1.1-2.7-1l-1.4-6.6l17.7,2.5
	c0,0.9,0.3,1.8,1,2.4c1.3,1.3,3.5,1.3,4.8,0c1.3-1.3,1.3-3.5,0-4.8c-0.1-0.1-0.2-0.2-0.3-0.2l4.8-7.9c0.1,0.1,0.1,0.1,0.2,0.2
	c1.1,1.1,2.9,1.1,4,0c1.1-1.1,1.1-2.9,0-4c-0.2-0.2-0.5-0.4-0.8-0.5l1.6-4l13.3-22c0.9,0.4,2,0.2,2.8-0.6c1-1,1-2.7,0-3.7
	c-0.2-0.2-0.5-0.4-0.8-0.5l3-12.4c0.2-0.1,0.3-0.2,0.4-0.3c0.8-0.8,1-2.1,0.4-3.1l6.2-26c1.1,0.1,2.2-0.2,3-1
	C419.9,263.4,419.9,261.1,418.4,259.6z M396.8,223.3l-2.1,0.3c0-0.1-0.1-0.2-0.1-0.3l1.5-4.5l11.8,2.1c-0.1,0.3-0.1,0.5-0.1,0.8
	L396.8,223.3z M404.5,272.1c0.2,0.2,0.5,0.4,0.8,0.5L385.6,320c-0.2-0.1-0.5-0.1-0.7-0.1c-0.1-0.3-0.2-0.6-0.5-0.8
	c-0.3-0.3-0.7-0.5-1-0.5l4-37.3l6-5.4c0.9,0.8,2.2,0.7,3-0.1c0.8-0.8,0.8-2.2,0.1-3l7.3-1.8C403.9,271.3,404.2,271.7,404.5,272.1z
	 M350.8,356.4l-0.6-6.5l0.8,0.1L350.8,356.4z M350.2,348.9l-0.2-1.6l1.2-1l-0.1,2.8L350.2,348.9z M349.2,348.8l-0.9-0.1l0.8-0.7
	L349.2,348.8z M328.2,364.7l-9.1-9.1l0.6-0.8l8.9,9.6L328.2,364.7z M328.7,364.6l7.8,8.4l-8.1-8.1L328.7,364.6z M324.1,367.9
	c-0.8-0.8-2-0.8-2.8,0c0,0,0,0-0.1,0.1l-7-5.8l4.6-6.1l9,9L324.1,367.9C324.2,367.9,324.1,367.9,324.1,367.9z M286.2,393.8
	c-0.1-0.7-0.4-1.4-1-2c-1.4-1.4-3.6-1.4-4.9,0c-0.8,0.8-1.1,1.9-1,2.9l-2.4,0.5l-35.7-5.7l8.5-22c1.3,0.4,2.7,0.1,3.8-0.9
	c1.3-1.3,1.4-3.4,0.4-4.9l4.6-3.9l42.7-5.5l-17.2,13.2c-0.6-0.6-1.6-0.6-2.2,0c-0.4,0.4-0.6,1-0.4,1.6L247.4,383
	c-0.1-0.1-0.2-0.3-0.3-0.4c-0.8-0.8-2.2-0.8-3,0c-0.8,0.8-0.8,2.2,0,3s2.2,0.8,3,0c0.6-0.6,0.7-1.4,0.5-2.1l34.6-15.2
	c0.6,0.2,1.3,0.1,1.7-0.4c0.2-0.2,0.3-0.4,0.4-0.6l20.2-8.9l2.3,8.9c-0.5,0.2-0.9,0.4-1.3,0.8c-1.3,1.3-1.3,3.3,0,4.6
	c1.3,1.3,3.3,1.3,4.6,0c1.3-1.3,1.3-3.3,0-4.6c-0.1-0.1-0.1-0.1-0.2-0.2l2.9-3.9l7.7,21.4l-33.5,8.3L286.2,393.8z M279.6,395.6
	l-0.2,0l-1-0.2l1.1-0.2C279.5,395.3,279.5,395.5,279.6,395.6z M244.5,403c0,0-0.1-0.1-0.1-0.1l15.6-3.4c0.2,0.3,0.3,0.5,0.6,0.8
	l-15.3,3.8C245,403.7,244.8,403.3,244.5,403z M247.3,398.1l-9.6,0.5l2.3-6l19.5,4.7c0,0.1,0,0.1,0,0.2L247.3,398.1z M172,362
	l5.4-4.8l6.7,6.4l-2.3,3.9l-4.9,0.6l-4.7-2.9C172.9,364.2,172.8,363,172,362z M114.3,316.1l23.2,3.3l4.5,4.3c0,0.2-0.1,0.4-0.1,0.6
	l-13.2,11.9l-15.1-18.8C113.9,317,114.2,316.6,114.3,316.1z M109.4,302.7l-9.5-10.9l2.2-6l6.4,6.1l1.9,10.3
	C110.1,302.3,109.7,302.5,109.4,302.7z M108.5,291.9l-6.4-6.1l3.5-9.5L108.5,291.9z M105.3,270.7l2.2-1.3l-1.6,4.4L105.3,270.7z
	 M106.1,275.1l2.3-6.3l17.6-10.8l3.7,11.3c-0.5,0.6-0.8,1.3-0.8,2.1l-15,5.2c-0.1-0.2-0.2-0.4-0.4-0.5c-0.7-0.7-1.9-0.7-2.6,0
	c-0.7,0.7-0.7,1.9,0,2.6c0.7,0.7,1.9,0.7,2.6,0c0.4-0.4,0.6-0.9,0.5-1.4l17.3-2.9l10.5,32.3l-5.9,5.4c0,0,0,0,0,0
	c-0.7-0.7-1.8-0.7-2.5,0s-0.7,1.8,0,2.5s1.8,0.7,2.5,0c0.4-0.4,0.6-1.1,0.5-1.6l7-1.5l2.5,7.8c-0.3,0.1-0.6,0.2-0.8,0.4l-8.6-1.2
	l-27.1-25.6L106.1,275.1z M109.4,204.7l1.4-4.4c0.7,0.2,1.4,0,1.9-0.5c0.8-0.8,0.8-2,0-2.8c-0.1-0.1-0.2-0.1-0.2-0.2l12.6-18.9
	l0.4,0.6l-14.3,31.9L109.4,204.7z M110.9,211.3l-12,26.7l-0.1-0.5l10.2-31.9L110.9,211.3z M130.8,151l4.8,5.2l-7.9,17.7l-0.9,1.3
	l-3.2-0.1l-3.9-5.9l6.6-17.2l0.7-0.7C128.1,151.9,129.7,151.9,130.8,151z M173.8,108.9l13.8-6.6l16-1.8l-13.4,7.8
	c-0.1-0.1-0.2-0.3-0.3-0.4c-0.9-0.9-2.4-0.9-3.3,0c-0.9,0.9-0.9,2.4,0,3.3c0.9,0.9,2.4,0.9,3.3,0c0.2-0.2,0.4-0.4,0.5-0.7l7.9,3.1
	l-12.3,8.3l-12.1-5.8C174.8,113.8,174.8,111.2,173.8,108.9z M217.4,98.9l1.4,4l-6.1,1.9c-0.1-0.3-0.3-0.6-0.6-0.8
	c-1.2-1.2-3-1.2-4.2,0c-0.9,0.9-1.1,2.3-0.6,3.4l-9.1,6.1l-8-3.1c0.2-0.6,0.2-1.3-0.1-1.8l13.9-8.1L217.4,98.9z M204.8,100l10.7-6.3
	l1.7,4.8L204.8,100z M243.8,95.9l12.4-1.4c0.2,0,0.5,0.1,0.7,0.1l0.3,2.3l-24.3,8.3c-0.1-0.3-0.3-0.5-0.5-0.8
	c-0.9-0.9-2.4-0.9-3.4,0s-0.9,2.4,0,3.4c0.9,0.9,2.4,0.9,3.4,0c0.3-0.3,0.5-0.7,0.6-1l21.7,4.6l-28.7,9.4l-4.5-12.5L239,97.5
	L243.8,95.9z M259.1,112.3l0.1,0.9c-1,1.1-1.2,2.6-0.7,3.8l-22.4,11.2l-8.8-3.4L226,121l29.2-9.5L259.1,112.3z M255.7,111.3l3.2-1
	l0.2,1.8L255.7,111.3z M275.8,117.6c0.1,0.1,0.3,0.2,0.4,0.3l-11.1,21.7l-0.2-0.1l-2.1-20.2c0.7-0.1,1.4-0.5,1.9-1
	c1.3-1.3,1.4-3.2,0.5-4.7l10.1,2.1C275.1,116.4,275.3,117.1,275.8,117.6z M267.6,172.5l0.1,0l-0.1,0.1L267.6,172.5z M312,111.4
	c0.1,0.3,0.3,0.6,0.5,0.8c0.2,0.2,0.4,0.3,0.6,0.4l1.2,1.3l1.7,20.9c-0.3,0.1-0.6,0.2-0.8,0.4c-0.5,0.5-0.6,1.3-0.2,1.9l-1,0.8
	l-7.4-27.7c0.4-0.2,0.7-0.4,1-0.7c0.6-0.6,0.9-1.3,0.9-2L312,111.4z M346.8,119.5c0.4,0.4,0.9,0.5,1.4,0.4l2.2,14
	c-0.3,0.5-0.2,1.1,0.2,1.6l-8.7,7.8l-9.7-10.6L346.8,119.5C346.7,119.5,346.8,119.5,346.8,119.5z M388.5,175.4
	c-0.6,0.6-0.8,1.3-0.7,2l-13.8,1l-32.1-34.9l8.7-7.8c0,0,0,0,0,0c0,0,0,0,0.1,0l0.5,3.1c-0.4,0.1-0.8,0.2-1.1,0.6
	c-0.8,0.8-0.8,2.1,0,2.8c0.8,0.8,2.1,0.8,2.8,0c0.1-0.1,0.3-0.3,0.4-0.5l9,4.6L388.5,175.4C388.5,175.3,388.5,175.3,388.5,175.4z
	 M391.8,227.7c0.2,0.2,0.4,0.3,0.6,0.4l-14.5,42.3c-2-0.2-4.2,0.4-5.7,2c-2.7,2.7-2.7,7.1,0,9.8c0.2,0.2,0.4,0.4,0.6,0.5l-4,5.4
	l-15,15l2-55.7l13.8,6.7c-0.3,0.7-0.2,1.4,0.4,2c0.7,0.7,1.8,0.7,2.5,0c0.7-0.7,0.7-1.8,0-2.5c-0.4-0.4-1-0.6-1.5-0.5l-4.2-24
	l16.5-2.8l5.4-0.9c0.2,0.5,0.4,0.9,0.8,1.3C390,227.4,390.9,227.7,391.8,227.7C391.8,227.7,391.8,227.7,391.8,227.7z M393.1,275.4
	l-5.6,5l0.6-5.7l4.6-1.2C392.6,274.2,392.7,274.9,393.1,275.4z M387.3,280.6L370,296.2c-0.1-0.1-0.2-0.2-0.4-0.2l4.2-12.1l0.2-0.2
	c2.6,1.3,5.8,0.8,8-1.3c1.7-1.7,2.4-4.2,1.9-6.4l4.1-1L387.3,280.6z M373.5,283.3l-0.1,0.3l-2.6,2.6l2.3-3.1
	C373.2,283.1,373.3,283.2,373.5,283.3z M383.8,275.4c-0.1-0.4-0.3-0.8-0.4-1.2l5.2-5.2l-0.6,5.3L383.8,275.4z M348.9,345.8
	l-10.7,1.4l-6.2-0.9l16.2-7.1L348.9,345.8z M307.3,367.2l-2.3-8.9l2.7-1.2l3.8,3.1l1.2,3.3l-3.1,4.1
	C308.9,367.2,308.1,367,307.3,367.2z M281.7,367.9C281.7,367.9,281.8,367.9,281.7,367.9l-17.2,7.6l17-7.9
	C281.6,367.7,281.6,367.8,281.7,367.9z M284.2,366l17.7-13.6l1.4,1.1l1.1,4.5l-20,8.8C284.4,366.5,284.4,366.2,284.2,366z
	 M203.8,341.5l-0.4,0.1l0.4-0.3L203.8,341.5z M195.1,343.6c-0.8,0.8-1.1,1.9-0.9,2.9l-10.1,17.1l-6.7-6.3l16.5-14.4l2.4-0.3l0,0.2
	l0,0C196,342.9,195.5,343.2,195.1,343.6z M170.1,345c-0.3-0.3-0.6-0.4-1-0.4l-0.4-20.7l24.9,3.6l2.5,13.4l-2.2,1.9l-23.4,3
	C170.5,345.5,170.3,345.2,170.1,345z M136,312.1l5.9-5.4l1.5,4.6l-7,1.5C136.4,312.6,136.2,312.3,136,312.1z M142.7,306l39.3-35.9
	l1.2,0.5l0.4,2.1l-3.5,17.2l-19.7,17.9l-16.1,3.5L142.7,306z M127.6,218l0.2,2.2l-6.6,13.8l5.9-16.1C127.2,218,127.4,218,127.6,218z
	 M128.3,218c0.2,0,0.5-0.1,0.7-0.2l-0.6,1.3L128.3,218z M121.4,234.9c-0.1-0.1-0.2-0.2-0.3-0.3l6.7-14l1,14.2l-7,0.8
	C121.8,235.5,121.7,235.2,121.4,234.9z M128.4,219.5l1-2c0.2-0.1,0.3-0.2,0.4-0.4c0.6-0.6,0.9-1.5,0.8-2.3l8-16.7l24.2,36.4
	l-2.7,1.6l-3.9-3.2c0.5-0.7,0.4-1.7-0.2-2.3c-0.7-0.7-1.9-0.7-2.6,0c-0.4,0.4-0.5,0.9-0.5,1.4l-23.4,2.8L128.4,219.5z M127.1,175.1
	L127.1,175.1l0.1-0.3L127.1,175.1z M126.8,175.8l-1,2.3l-0.4-0.6l1.2-1.8L126.8,175.8z M126.9,175.8l11.8,0.3l18.1,18.1l-13.9-1
	c0-0.6-0.2-1.1-0.6-1.5c-0.8-0.8-2.2-0.8-3,0c-0.8,0.8-0.8,2.2,0,3c0.1,0.1,0.3,0.3,0.5,0.3l-1.2,2.5l-12.8-19.2L126.9,175.8z
	 M137.5,172.1l15.4,2.8l0.9,0.9l-15.1-0.4l-1.9-1.9C137.1,173.1,137.3,172.6,137.5,172.1z M169.7,160.7c0.2-0.2,0.3-0.5,0.4-0.7
	l4.1,0.8l5,15.7l-6.1-0.2l-4-15.2C169.3,161,169.5,160.9,169.7,160.7z M207.1,117.1l13.6,5.3l-20.1,6.6l-0.3-0.1
	c-0.1-0.1-0.1-0.2-0.2-0.2c-0.3-0.3-0.7-0.4-1.1-0.4l-5.6-2.7L207.1,117.1z M193.2,125.5l-6.5-3.1l12.4-8.4l7.8,3.1L193.2,125.5z
	 M259.4,118.3c0.2,0.2,0.4,0.3,0.6,0.5l2.5,19.8l-25.6-10l21.9-11C259,117.9,259.2,118.1,259.4,118.3z M262.1,119.4l2.1,19.9
	l-0.9-0.3l-2.5-19.8C261.2,119.3,261.7,119.4,262.1,119.4z M264.5,159c-0.2,0.2-0.4,0.4-0.5,0.6l-7.1-3.4l6.2-12.2l1.9,14.5
	C264.8,158.7,264.7,158.8,264.5,159z M256.7,156.1l-21.9-10.6l-4.7-13.1l8.9,0.8c0,0.4,0.2,0.9,0.5,1.2c0.6,0.6,1.7,0.6,2.3,0
	c0.2-0.2,0.3-0.4,0.4-0.6l20.6,6.5l0.4,3.1L256.7,156.1z M267.6,178.3l0,0.4l-7.3-0.2l1.7-1.3L267.6,178.3z M262.4,177l4.6-3.5
	l0.6,4.4L262.4,177z M362.1,177.1c-1.3-1.3-3.3-1.3-4.6,0c-1,1-1.2,2.6-0.5,3.8l-18.6-0.5l6.4-10c0.9,0.5,2.1,0.3,2.8-0.4
	c0.2-0.2,0.3-0.4,0.5-0.7l24.3,9.2l-9.4,0.7C362.9,178.4,362.6,177.7,362.1,177.1z M348.2,168.9c0.2-0.8,0-1.7-0.6-2.3
	c-0.9-0.9-2.5-0.9-3.4,0c-1,0.9-1,2.5,0,3.4c0.1,0.1,0.1,0.1,0.2,0.2l-6.6,10.3l-16.7-0.4l-3.1-14.9l23.7-21.5l31.9,34.8l-0.1,0
	L348.2,168.9z M327.2,194.9c-0.5,0.5-0.5,1.4,0,2c0.3,0.3,0.7,0.4,1.1,0.4l2.5,9.4l-4.3-0.8l-5.3-25l16.1,0.4l-8.6,13.4
	C328.2,194.4,327.6,194.5,327.2,194.9z M364.4,209.4c0.1-0.1,0.2-0.2,0.3-0.3l8.6,5.2l-9.4-1.7l-0.5-2.6
	C363.7,209.9,364.1,209.7,364.4,209.4z M374.1,214.8l14.5,8.8c-0.1,0.3-0.2,0.7-0.2,1l-5.3,0.9l-16.5,2.7l-2.7-15.3L374.1,214.8z
	 M366.4,228.2l-7.9,1.3c-0.1-0.4-0.3-0.7-0.6-1c-1.1-1.1-2.8-1.1-3.9,0c-1.1,1.1-1.1,2.8,0,3.9c0.4,0.4,0.9,0.6,1.4,0.7l-0.5,13.8
	l-15.3-7.4l-0.1-0.6c0.4-0.1,0.7-0.3,1-0.5c0.8-0.8,0.8-2.1,0-2.9c-0.5-0.5-1.1-0.7-1.7-0.6l-7.3-27.8l32.3,5.8L366.4,228.2z
	 M369.9,253.7c-0.1,0.1-0.2,0.3-0.3,0.4l-13.9-6.7l0.5-14.2c0.6-0.1,1.1-0.3,1.6-0.8c0.5-0.5,0.8-1.2,0.8-1.9l7.9-1.3l4.2,24
	C370.5,253.3,370.2,253.4,369.9,253.7z M351.8,330.2l-0.2,4.6c-0.5,0.1-0.9,0.3-1.3,0.7c-0.2,0.2-0.3,0.4-0.5,0.7l-0.9-0.4l-0.4-4.5
	c0.5-0.1,1-0.4,1.4-0.8c1.2-1.2,1.2-3.1,0-4.3c-0.7-0.7-1.6-1-2.5-0.8l-1.7-5.6l3-4.1L351.8,330.2z M349.5,314.8l3-4.1l-0.6,15.8
	L349.5,314.8z M302.9,351.8l-0.4,0l0.3-0.2L302.9,351.8z M243,353.5c-0.3-0.3-0.6-0.4-0.9-0.4l-0.4-6.2l17.2-10.2l10.3,1.5l-26,15.5
	C243.1,353.7,243.1,353.6,243,353.5z M196.8,340.4l2.2-1.9l-1.9,3.3L196.8,340.4z M196.8,340.3l-2.3-12.7l8.6,1.2l0,2.9l-0.2,0.3
	c-0.3,0.1-0.6,0.2-0.9,0.5c-0.5,0.5-0.6,1.2-0.4,1.8l-2.3,4L196.8,340.3z M169.4,304.9c-0.5-0.5-1.4-0.5-2,0
	c-0.3,0.3-0.4,0.8-0.4,1.3l-6.4,1.4L180,290l-0.4,1.8c-0.8-0.1-1.6,0.2-2.3,0.8c-1.1,1.1-1.1,3,0,4.1c1.1,1.1,2.9,1.1,4.1,0
	c1-1,1.1-2.6,0.3-3.7l4.7-4.3l1.7,9.3l-19.5,19.9l-0.2-10.6c0.3,0,0.7-0.1,0.9-0.4C170,306.3,170,305.4,169.4,304.9z M175.7,265.4
	c-0.8-0.8-2-0.8-2.8,0c-0.4,0.4-0.6,1-0.6,1.5l-29.1,5l-1.2,0.2c-0.1-0.3-0.3-0.7-0.5-0.9c-0.8-0.8-2.2-0.8-3,0
	c-0.4,0.4-0.6,1-0.6,1.6l-4.4,0.7c0.1-0.1,0.2-0.2,0.3-0.3c0.9-0.9,1.1-2.4,0.5-3.5l42.2-14.7l5.3,8l1.1,6l-0.7,0.6l-6.1-2.4
	C176.3,266.7,176.2,266,175.7,265.4z M142.4,194.8c0.3-0.3,0.5-0.8,0.6-1.2l14.2,1l14.7,14.7l4.7,25.6l-5.2-2
	c0.4-1.3,0.1-2.7-0.9-3.6c-1.5-1.5-3.8-1.5-5.3,0c-1.2,1.2-1.4,2.9-0.7,4.3l-1.4,0.9l-24.3-36.5l1.2-2.6
	C140.8,195.5,141.7,195.4,142.4,194.8z M207,161.8l1.5,5.1l-2.9-0.5l0.9-4.5C206.7,161.8,206.9,161.8,207,161.8z M208.6,167.2l3,10
	l-4.1-0.1l-3.3-3.4l1.4-7.1L208.6,167.2z M292.5,181.3l1.4,0.5l-3.7,3.3L292.5,181.3z M292.2,180.2l-0.6-0.2l0.7,0L292.2,180.2z
	 M339,239.4l3.5,37.1c-0.4,0.1-0.7,0.2-1,0.5l-8.5-40.5L339,239.4z M340.8,277.9c-0.1,0.2-0.2,0.4-0.2,0.7l-5.8-0.2
	c-0.6-0.1-1.1-0.2-1.7,0l-27.4-0.7l-5.6-5.7l7.7-5.5c0,0.1,0.1,0.1,0.1,0.2c0.7,0.7,1.7,0.7,2.4,0c0.7-0.7,0.7-1.7,0-2.4
	c-0.7-0.7-1.7-0.7-2.4,0c-0.2,0.2-0.3,0.3-0.4,0.5l-16.8-6.4l21.7-19c0,0,0,0,0,0.1c1,1,2.6,1,3.6,0c1-1,1-2.6,0-3.6
	c-0.6-0.6-1.3-0.8-2-0.7l-1.2-8.5L332,236L340.8,277.9z M345.7,330.5c0.5,0.5,1.2,0.8,1.9,0.9l0.4,4l-10.7-4.2l7.7-10.4l1.5,4.9
	c-0.3,0.1-0.6,0.3-0.8,0.6C344.5,327.5,344.5,329.4,345.7,330.5z M336.8,331l-7.4-2.9l13.6-13.6l1.7,5.8L336.8,331z M329,327.9
	l-33.1-13.1l14-8.3c0.1,0.1,0.1,0.2,0.2,0.3c0.9,0.9,2.4,0.9,3.3,0c0.9-0.9,0.9-2.4,0-3.3c-0.9-0.9-2.4-0.9-3.3,0
	c-0.2,0.2-0.4,0.4-0.5,0.7l-5.7-2l14.6-9.6l21.1,20.2c-0.4,0.5-0.4,1.3,0,1.7c0.5,0.5,1.3,0.5,1.8,0c0.5-0.5,0.5-1.3,0-1.8
	c-0.5-0.5-1.2-0.5-1.7,0l-20.2-20.7l11.7-7.7c0.1,0.1,0.1,0.1,0.1,0.2c0.8,0.8,2,1.2,3,1L343,314L329,327.9z M317.6,339.4
	c-0.7-0.6-1.8-0.5-2.5,0.1c-0.6,0.6-0.7,1.6-0.3,2.3l-2.3,1.8l-3-0.4l-5.9-6.4l-7.7-21.5l32.8,13L317.6,339.4z M278.9,332.4
	l-0.6,0.3l-0.8-0.7l1.2-0.2C278.7,332.1,278.8,332.3,278.9,332.4z M278.9,332.5c0.1,0.1,0.1,0.2,0.2,0.3c0.6,0.6,1.6,0.6,2.2,0
	c0.6-0.6,0.6-1.6,0-2.2c-0.6-0.6-1.6-0.6-2.2,0c-0.3,0.3-0.5,0.8-0.4,1.2l-1.3,0.2l-4.4-3.6l11.4-6.8l7.5,7.5l-8.9,7.5l-4.6-3.8
	L278.9,332.5z M253.8,335.2l9-1.2l-3.3,2L253.8,335.2L253.8,335.2z M254,335l14.8-9.7l3.6,3l-9.4,5.6L254,335z M241,313.4
	c-0.1-0.1-0.1-0.1-0.2-0.2c-0.1-0.5-0.3-1.1-0.7-1.5l5.6-5.2l2.6,2.1l-7.1,5.1C241.2,313.6,241.1,313.5,241,313.4z M245.9,306.3
	l8.2-7.6l5.3,2.1l-10.8,7.7L245.9,306.3z M203.6,297.3c0.4,0,0.9-0.2,1.2-0.6c0.8-0.8,0.8-2,0-2.8c-0.6-0.6-1.6-0.7-2.3-0.3
	l-3.6-5.5l8-8.2l12.4,4.9l7.5,6.2l-21.9,37.1l-1.6-0.2L203.6,297.3z M192.6,278.7l3.4-3l2.9,1.1l-4.7,4.2L192.6,278.7z M193.8,281.3
	l-6.8,6.1l-0.6-3.2l5.8-5.3L193.8,281.3z M178.7,192.2c-0.4-0.4-1-0.6-1.6-0.5l-3-11.2l7.1,2.2l4.3,13.5l-7.1-0.5l-0.2-0.6
	c0.2-0.1,0.3-0.2,0.5-0.3C179.4,194.1,179.4,192.9,178.7,192.2z M203.3,177.8l4.8,0.1l5.2,5.4l0.6,2.2l-8.9-1.6l-2.5-2.4
	L203.3,177.8z M202,180.9l-3.4-3.2l4,0.1L202,180.9z M203.5,177l0.7-3.2l3.3,3.3L203.5,177z M251.1,192.6l3.9,10.7l-4.4,4l-18.5-7.6
	l11.3-8.5L251.1,192.6z M243.8,190.8l5.2-3.9l1.9,5.2L243.8,190.8z M270.7,196.1l2.4,0.4l-2.1,1.8L270.7,196.1z M312.5,235.9
	c-0.9,0.9-1,2.4-0.2,3.4l-21.8,19l-6-2.3l-7.1-7.3l-0.8-5.9l23-20.3c0,0,0,0,0,0c0.8,0.8,2.2,0.8,3.1,0c0.2-0.2,0.3-0.3,0.4-0.5
	l9.6,4.7l1.2,8.6C313.4,235.3,312.9,235.5,312.5,235.9z M307.7,266.3l-7.7,5.5l-11.3-11.6l2-1.8l16.9,6.4
	C307.4,265.3,307.4,265.9,307.7,266.3z M317.9,291.7l-14.3-13.7l2.4,0.1l12.8,13.1L317.9,291.7z M319.5,291.9l19.2,19.6l-20-19.1
	L319.5,291.9z M309.7,306.1l-14.1,8.4l-2-5.6l9.9-6.6l6,2.2C309.4,305.1,309.5,305.6,309.7,306.1z M296.7,325.5
	C296.7,325.5,296.6,325.5,296.7,325.5c-0.1-0.2-0.3-0.2-0.4-0.1l-1.8,1.5l-6.7-7.3l7.5-4.4l7.4,20.5l-4.7-5.1L296.7,325.5z
	 M297.3,329.8l-2.4-2.6l1.4-1.2L297.3,329.8z M219,284.4l-9.1-7.4l14.7-14.9l12.2,12.2c-0.2,0.1-0.5,0.2-0.7,0.4
	c-0.5,0.5-0.7,1.1-0.6,1.7l-7,11.8L219,284.4z M228.4,288.5l-1.4,2.4l-7-5.7L228.4,288.5z M187.1,258.2l1.5-7.2l13.1-4.6l1.4,4.3
	l-11.9,10.9L187.1,258.2z M191,261.7l-5.7,5.2l1.7-8.4L191,261.7z M186.5,257.8l-5.2-4.3l6.5-2.3L186.5,257.8z M216.1,198.6
	c0,0.5,0.2,1,0.6,1.4c0.8,0.8,2,0.8,2.7,0c0.5-0.5,0.7-1.2,0.5-1.8l6,5.8l-26.7,20l-4.2-4.6l4.4-21.9L216.1,198.6z M213.2,191.1
	c-0.1,0.1-0.2,0.2-0.2,0.3l-7.3-7l8.5,1.5l1.3,4.3C214.6,190.2,213.8,190.5,213.2,191.1z M217.4,195.2c0.2-0.2,0.3-0.4,0.5-0.6
	l11,4.5l1.4,1.5l-4.3,3.2l-6.2-5.9c-0.1-0.2-0.2-0.4-0.4-0.6c-0.2-0.2-0.4-0.3-0.7-0.4l-1.4-1.4l0-0.1
	C217.3,195.3,217.3,195.3,217.4,195.2z M256.9,210.7l-8.6,8.2l-4.9-5l6.6-6.1L256.9,210.7z M250.6,207.3l4.4-4l2.4,6.8L250.6,207.3z
	 M258.9,209.3c0.7,0.6,1.7,0.6,2.4-0.1c0.6-0.6,0.7-1.6,0.2-2.2c0.6-0.5,1.3-1.1,1.9-1.6l3.8-3.3l3.1-2.7l0.4,3.5l-9.7,8.8l-2.9-1.2
	l-0.1-0.3L258.9,209.3z M287.8,311.6l-11.7-4.7l-10-10.8l6.9-4.9l0.5,0.2c-0.2,0.6,0,1.3,0.5,1.8c0.7,0.7,1.9,0.7,2.6,0
	c0.1-0.1,0.3-0.3,0.3-0.5c0.7,0.2,1.4,0.5,2.1,0.7l4.7,1.7l5.1,1.8l4.1,11.2L287.8,311.6z M293.1,309.2l1.9,5.2l-6.1-2.4
	L293.1,309.2z M287.4,311.9l-4.2,2.8l-6.5-7L287.4,311.9z M208.1,259.6c-0.6-0.6-1.5-0.8-2.2-0.5l-2.7-8.3l3.8-3.5l4.9,1.9l3.7,3.7
	L208.1,259.6C208.1,259.6,208.1,259.6,208.1,259.6z M193.1,229.7c0-0.1-0.1-0.3-0.1-0.4l0.1-0.3l2.5-1.9l2.4,7.5L193.1,229.7z
	 M195.5,227.1l3.4-2.5l15.1,16.3l-1.8,1.6l-4.8,1.7l-9.5-9.4L195.5,227.1z M260.5,212.2l3.7,1.5l-3.7,3.3l-1.3-3.7L260.5,212.2z
	 M259.2,213.3l-0.7-2l2,0.8L259.2,213.3z M281.3,276.4l0.2,0.7l-4.1-0.1l1-1C279.3,276.6,280.4,276.8,281.3,276.4z M278.2,271.8
	c-1,1-1.1,2.5-0.3,3.6l-1.6,1.5l-6.6-0.2l8.9-7.8l0.8,2.2C279,271.2,278.6,271.5,278.2,271.8z M239.8,276c0-0.5-0.2-1-0.6-1.3
	c-0.4-0.4-0.8-0.5-1.3-0.6l2.7-4.5l6.1,6.6L239.8,276z M208.5,245.8l-1,0.9l-3.2-1.2l2.9-1L208.5,245.8z M207.7,244.3l3.8-1.3
	l-2.7,2.5L207.7,244.3z M208.5,245.8l2.1,2.1l-3.2-1.2L208.5,245.8z M208.9,245.5l2.8-2.5l3.3-1.1l5.9,6.3l-2.9,2.6l-6.1-2.4
	L208.9,245.5z M229.1,237.6c0.7,0.7,1.9,0.7,2.6,0c0.7-0.7,0.7-1.7,0.1-2.5l13.3-12.7l1.9,1.8l-25.9,23.5l-5.7-6.1l13.2-4.6
	C228.8,237.2,229,237.4,229.1,237.6z M231.6,234.8c-0.7-0.6-1.8-0.6-2.5,0.1c-0.5,0.5-0.6,1.1-0.5,1.8l-13.4,4.6l-0.8-0.9l25.4-23.2
	l5.1,4.9L231.6,234.8z M214.7,241.5l-2.3,0.8l1.7-1.5L214.7,241.5z M220.8,248.2l2.4,2.6l-1.6,1.5l-3.7-1.4L220.8,248.2z
	 M221.2,247.8l25.9-23.5l2.6,2.5l-26.1,23.7L221.2,247.8z M249.9,226.8l4.3,4.1l-25,25.4l-5.4-5.9L249.9,226.8z M257,228l-2.8,2.8
	l-4.3-4.1l3.1-2.8L257,228z M253.1,223.9l7-6.3l1.9,5.4l-5,5L253.1,223.9z M257.5,228.5l3.9,4l-2,3.3l-4.7-4.5L257.5,228.5z
	 M254.7,231.4l4.7,4.5l-19.1,32.4l-10.6-11.5L254.7,231.4z M240.9,269l19.1-32.5l10.6,10.1l0.4,1l-0.9,0.8c0,0,0,0,0-0.1
	c-0.9-0.9-2.3-0.9-3.2,0c-0.9,0.9-0.9,2.3,0,3.2c0.9,0.9,2.3,0.9,3.2,0c0.2-0.2,0.4-0.5,0.5-0.7l1.9,0.7l6.2,17.2l-9.1,7.9l-22-0.6
	L240.9,269z M272.3,251.4l-1.8-0.7c0.3-0.7,0.1-1.6-0.4-2.2l0.9-0.8L272.3,251.4z M279,268.4l-6-16.6l4.1,1.6L279,268.4L279,268.4z
	 M279.1,268.5l0,0.3L279.1,268.5L279.1,268.5z M269,277.1l-9.2,8.1l-6.3-2.7l-5.5-5.9L269,277.1z M259.4,285.5l-1.8,1.6l-3.5-3.8
	L259.4,285.5z M259.6,285.6l5.1,2.2l-3.4,3.2l-3.5-3.8L259.6,285.6z M259.9,285.3l9.3-8.1l6.6,0.2L265,287.4L259.9,285.3z
	 M278,253.7l8.5,8.1l-6.7,5.9L278,253.7z M277.2,253.2l-4.2-1.6l-1.5-4.2l5.6,5.4L277.2,253.2z M268.8,240.1l4.9,5.1l-2.4,2.1
	L268.8,240.1z M270.5,246.4l-10.4-10l1.9-3.3l5.8,6L270.5,246.4z M262.1,233l2.2-3.8l3.5,9.7L262.1,233z M261.5,232.4l-3.9-4
	l4.7-4.8l1.6,4.6L261.5,232.4z M260.6,217.1l3.7-3.4l4.8,2l-6.6,6.7L260.6,217.1z M260.1,217.4l-7,6.4l-2.5-2.6l8.2-7.5L260.1,217.4
	z M253,223.8l-3.1,2.8l-2.6-2.5l3.2-2.9L253,223.8z M247.2,224.1l-1.9-1.8l3.2-3l1.9,2L247.2,224.1z M245.1,222l-5.1-4.9l3.4-3.1
	l4.9,5L245.1,222z M239.9,217.1L226.2,204l4.3-3.2l12.8,13.1L239.9,217.1z M239.8,217.2l-25.4,23.2l-15-16.2l26.8-20.1L239.8,217.2z
	 M206.9,244.2l-3.1,1.1l-2.7-1l-2.8-8.7L206.9,244.2z M202.8,245.7l-1.1,0.4l-0.3-0.9L202.8,245.7z M203.3,245.9l3.6,1.4l-3.8,3.4
	l-1.4-4.3L203.3,245.9z M213,249.6l4.3,1.7l-1.4,1.3L213,249.6z M217.3,251.3l3.7,1.4l-2.6,2.4l-2.5-2.5L217.3,251.3z M221.2,252.8
	l2.9,1.1l-3.6,3.2l-2-2L221.2,252.8z M220.6,258l3.5,3.5l-14.7,15l-4.9-4L220.6,258z M221,257.6l4-3.6c0,0,0.1-0.1,0.1-0.1
	c0.1-0.2,0-0.4-0.2-0.4l-3.1-1.2l1.6-1.4l5.5,5.9l-4.3,4.4L221,257.6z M229.3,257.3l10.7,11.6l-2.9,4.9L225,261.6L229.3,257.3z
	 M239.8,276.4l7.4,0.2l5,5.4l-11.7-5L239.8,276.4z M252.9,282.8l4.3,4.7l-3.4,3l-12.6-12.6L252.9,282.8z M257.3,287.6l3.5,3.8
	l-3.1,2.9l-3.8-3.8L257.3,287.6z M261.4,291.9l4.2,4.5l-3.3,2.4l-4-3.9L261.4,291.9z M261.8,291.5l3.7-3.5l7.4,3.1l-6.9,4.9
	L261.8,291.5z M283.8,294.8l-4.7-1.7c-0.7-0.3-1.4-0.5-2.1-0.7c0.1-0.6,0-1.3-0.5-1.7c-0.7-0.7-1.9-0.7-2.6,0
	c-0.1,0.1-0.2,0.3-0.3,0.4l-0.3-0.1l10.5-7.5l4.7,13.1L283.8,294.8z M273.2,290.9l-7.4-3.1l11.1-10.4l4.7,0.1l2.1,5.9L273.2,290.9z
	 M282.3,277.5l9.4,0.2l-7.4,5.3L282.3,277.5z M282.1,277.1l-0.4-1c0.1-0.1,0.3-0.2,0.4-0.3c1.1-1.1,1.1-2.9,0-4
	c-0.5-0.5-1.2-0.8-1.9-0.8l-0.4-3.1l6.8-5.9l11.6,11.1l-6,4.3L282.1,277.1z M298.3,273.2l4.6,4.4l-10.5-0.3L298.3,273.2z M298.3,273
	l-11.6-11.1l1.8-1.6l11.3,11.6L298.3,273z M286.6,261.8l-8.4-8l6.3,2.4l3.9,4L286.6,261.8z M278,253.6l-0.6-4.7l6.9,7.1L278,253.6z
	 M277.1,252.7l-5.6-5.4l2.4-2.1l2.6,2.7L277.1,252.7z M273.9,245.2l2-1.8l0.6,4.4L273.9,245.2z M273.8,245.1l-5.1-5.2l-4.1-11.3
	l7.7-13l3.5,27.7L273.8,245.1z M272,206.7l9.5-8.6l0.1,0l-8.9,15L272,206.7z M272.2,214.2l-7.8,13.3l-1.6-4.4l7.2-7.4
	c0,0,0.1-0.1,0.1-0.1c0.1-0.2,0-0.4-0.2-0.5l-5-2l6.4-5.8L272.2,214.2z M271.3,207.3l-6.5,5.9l-3.7-1.5l9.7-8.8L271.3,207.3z
	 M257.8,211l1,2.7l-8.2,7.5l-1.9-2l8.8-8.4L257.8,211z M243.4,213.9l-12.8-13.1l0.8-0.6l18.6,7.7L243.4,213.9z M230.4,200.6
	l-1.3-1.4l2,0.8L230.4,200.6z M218.4,196.8c-0.3-0.1-0.5-0.1-0.8,0l-0.3-1.1L218.4,196.8z M194.4,218.8l-2.3-2.5l-6.4-19.8l13,0.9
	L194.4,218.8z M194.2,219.5l-0.4,2.2l-1.3-4.1L194.2,219.5z M194.8,220.1l3.9,4.2l-3.3,2.5l-1.2-3.8L194.8,220.1z M195.4,226.8
	l-2.3,1.7l1.1-5.4L195.4,226.8z M192.6,231.1c0.2-0.2,0.3-0.5,0.4-0.7l5.2,5.2l2.8,8.7l-10.3-4L192.6,231.1
	C192.6,231.1,192.6,231.1,192.6,231.1z M201.3,245.1l0.3,1l-12.9,4.5l1.9-9.6L201.3,245.1z M203.1,250.8l2.7,8.3
	c-0.3,0.1-0.6,0.3-0.9,0.5c-0.9,0.9-0.9,2.3,0,3.2c0.9,0.9,2.3,0.9,3.1,0c0.8-0.8,0.9-2.2,0.1-3.1l7.4-6.8l2.5,2.5l-16.3,14.8
	l-10.5-8.6L203.1,250.8z M218.2,255.5l2,2L204,272.1l-2.2-1.8L218.2,255.5z M203.8,272.2l-4.7,4.2l-2.9-1.1l5.4-4.9L203.8,272.2z
	 M204.4,272.7l4.9,4l-2.7,2.8l-6.7-2.7L204.4,272.7z M209.8,277.1l8.6,7l-11.1-4.4L209.8,277.1z M236,277.3c0.1,0.1,0.1,0.2,0.2,0.3
	c0.8,0.8,2.1,0.8,3,0c0.1-0.1,0.3-0.3,0.3-0.5l0.5,0.2l13.4,13.4l-5.7,5l-18.3-7.3L236,277.3z M253.5,290.9l3.8,3.8l-3.7,3.4
	l-5.7-2.3L253.5,290.9z M257.9,295.2l3.9,3.9l-2,1.4l-5.3-2.1L257.9,295.2z M261.9,299.2l3.6,3.6l-5.5-2.2L261.9,299.2z
	 M262.3,298.9l3.3-2.4l9.2,10l-8.2-3.3L262.3,298.9z M275.5,307.2l7.2,7.8l-2.6,1.7L267.4,304L275.5,307.2z M283.4,315.7l3.6,3.9
	l-2.5,1.5l-3.7-3.7L283.4,315.7z M283.8,315.4l4.6-3l6.5,2.6l-7.5,4.4L283.8,315.4z M293.3,308l-3.8-10.7l3.6,1.3l9.4,3.4L293.3,308
	z M293.2,298.2l-3.9-1.4l-4.9-13.6l7.6-5.4l11.6,0.3l14.4,13.7l-15,9.9L293.2,298.2z M303.2,277.6l-4.7-4.5l1.6-1.1l5.6,5.7
	L303.2,277.6z M288.5,260.1l-3.8-3.9l5.7,2.2L288.5,260.1z M303.1,221.8c0.4-0.8,0.2-1.8-0.4-2.4c-0.8-0.8-2.2-0.8-3.1,0
	c-0.8,0.8-0.8,2.1-0.1,2.9l-22.9,20.3l-3.6-28.2l9.5-16.2l26.9,4.9l3.2,23.3L303.1,221.8z M282.8,197.9l1.1-1.9l14.1-12.8l9.1,3.2
	l2.3,16.3L282.8,197.9z M284,195.7l6.3-10.6l3.7-3.3l4,1.4L284,195.7z M282,197.6l-0.2,0.2l-4.5-0.8l11-10L282,197.6z M281.5,198.1
	l-9.5,8.6l-0.6-4.4l5.5-5L281.5,198.1z M271.4,202.2l-0.4-3.4l2.5-2.1l3.4,0.6L271.4,202.2z M266.9,201.8l-3.8,3.3
	c-0.6,0.5-1.2,1.1-1.9,1.6c-0.7-0.6-1.8-0.6-2.4,0c-0.6,0.6-0.7,1.6-0.1,2.3l-0.8,0.7l-2.5-6.8l8.7-8l5.7,1l0.4,3L266.9,201.8z
	 M255.4,202.9l-3.7-10.2l12.4,2.2L255.4,202.9z M231.7,199.5l-4-1.7l-11.3-11.6l26.5,4.8L231.7,199.5z M227.6,197.8l-9.5-3.9
	c0.3-1,0-2.1-0.7-2.9c-0.5-0.5-1-0.7-1.6-0.8l-1.3-4.3l1.9,0.3L227.6,197.8z M214.3,185.5l-0.5-1.8l2,2.1L214.3,185.5z M204.9,183.8
	l-2.7-0.5l0.4-1.7L204.9,183.8z M205.4,184.3l7.4,7.1c-0.1,0.2-0.2,0.3-0.3,0.5l-11.4-3.6l0.9-4.6L205.4,184.3z M212.4,192.6
	c-0.2,0.9,0.1,1.9,0.8,2.6c1,1,2.6,1.1,3.8,0.3l0.4,1.3c-0.3,0.1-0.5,0.2-0.7,0.4c-0.3,0.3-0.5,0.7-0.5,1.1l-16.7-1.2l1.6-8.2
	L212.4,192.6z M198.7,197.1l-13.1-0.9l-4.3-13.5l19.1,6.1L198.7,197.1z M181.7,205.1l-8.8-9.5l5.3,0.4L181.7,205.1z M178.6,196
	l7.1,0.5l6.3,19.7l-9.7-10.5L178.6,196z M192.4,217.5l1.4,4.2l-1.4,6.9c-0.2-0.2-0.5-0.3-0.7-0.3l-1.1-1.1l-7.7-20L192.4,217.5z
	 M191,228.4C191,228.4,191,228.4,191,228.4L191,228.4L191,228.4z M190.7,228.5c-0.2,0.1-0.3,0.2-0.4,0.3c-0.6,0.6-0.6,1.7,0,2.3
	c0.4,0.4,1,0.6,1.5,0.4l-1.7,8.6l-12.7-4.9l-4.6-25l17.6,17.6L190.7,228.5z M190,240.8l-2,10.1l-6.9,2.4l-0.3-0.2l-3.1-17L190,240.8
	z M180,253.6l-3.4,1.2l-6.9-10.4l10.1,8.3L180,253.6z M180.1,253.9l1.5,8.3l-4.8-7.2L180.1,253.9z M180.8,253.7l0.2-0.1l5.4,4.4
	l-1.8,8.8l-2-3L180.8,253.7z M184.6,267.4l-0.1,0.3l-1,0.9l-0.7-3.8L184.6,267.4z M185.1,268.2l2.5,3.7l-3-1.2L185.1,268.2z
	 M185.2,267.6l0.1-0.6l5.7-5.2l10.5,8.6l-5.4,4.9l-7.9-3.1L185.2,267.6z M195.8,275.6l-3.3,3l-3.9-5.8L195.8,275.6z M199.5,277
	l6.7,2.7l-7.7,7.9l-4-6L199.5,277z M204.6,329l-1.2,2l0-2.1L204.6,329z M204.5,332.4c-0.2-0.2-0.4-0.3-0.7-0.4l1.7-2.9l3.5,0.5
	l-4,3.5C204.8,332.9,204.7,332.6,204.5,332.4z M205.9,328.3l21.6-36.7l12.9,10.5l-30.6,26.8L205.9,328.3z M227.7,291.4l1.5-2.6
	l18.2,7.2l-6.8,5.9L227.7,291.4z M247.6,296.1l5.8,2.3l-8,7.5l-4.6-3.8L247.6,296.1z M259.5,300.8l6.7,2.6l13.5,13.5l-11.5,7.6
	l-19.5-15.9L259.5,300.8z M280.4,317.7l3.7,3.7l-11.4,6.8l-3.7-3L280.4,317.7z M272.8,328.5l4.3,3.5l-13.1,1.7L272.8,328.5z
	 M284.8,321.4l2.5-1.5l6.8,7.3l-1.9,1.6L284.8,321.4z M294.4,327.6l3.1,3.4l1.1,4.2l-6-6L294.4,327.6z M298.2,331.7l4.9,5.3l1.5,4.2
	l-5.4-5.4L298.2,331.7z M304.1,338.1l4.6,5l-2.6-0.4l-0.5-0.5L304.1,338.1z M305.1,342.3l0.1,0.2l-4.3-0.6l-1.3-5.1L305.1,342.3z
	 M305.5,343.5l1.6,4.3l-3.9,3l-2-8L305.5,343.5z M306.1,343.5l0.2,0l2.7,2.7l-1.5,1.2L306.1,343.5z M307.2,343.7l2.5,0.4l0.9,1
	l-1.2,0.9L307.2,343.7z M310.5,344.2l1,0.1l-0.5,0.4L310.5,344.2z M331.3,279.3c-1.1,1.1-1.3,2.7-0.7,4l-11.8,7.8l-12.7-13l25.9,0.7
	C331.8,278.9,331.6,279.1,331.3,279.3z M312.9,226.5l-3.2-23.4l16,2.9l6.3,29.8L312.9,226.5z M309.6,202.7l-2.2-16.3l6.8,2.4
	c-0.2,1.1,0.1,2.3,0.9,3.1c1.3,1.3,3.5,1.3,4.8,0c1.3-1.3,1.3-3.5,0-4.8c-0.6-0.6-1.4-0.9-2.2-1l-0.3-5.5l3.1,0.1l5.2,24.9
	L309.6,202.7z M315,187.2c-0.3,0.3-0.5,0.6-0.6,0.9l-7.2-2.5l-0.7-5.1l9.9,0.3l0.3,5.6C316.1,186.4,315.5,186.7,315,187.2z
	 M307,185.5l-8.3-2.9l2.5-2.3l5.1,0.1L307,185.5z M298.6,182.5l-4-1.4l1.1-1l5.4,0.1L298.6,182.5z M294.7,181.1l-1.7-0.6l0.3-0.4
	l2.5,0.1L294.7,181.1z M288.3,186.9l-11,10l-3.4-0.6l0.9-0.8l14.1-12.2c0.4,0.3,0.9,0.4,1.4,0.3L288.3,186.9z M288.6,183.1
	l-14.1,12.2l-1.1,0.9l-2.8-0.5l-0.8-5.9l10-9.2l8.5,1.6C288.3,182.5,288.4,182.8,288.6,183.1z M269.8,195.5l-5.2-0.9l4.6-4.2
	L269.8,195.5z M264.5,194.6l-12.9-2.3l-2.1-5.7l9.8-7.3l8.4,0.2l1.4,11L264.5,194.6z M249.5,186.3l-2.6-7.4l12,0.3L249.5,186.3z
	 M249,186.6l-5.5,4.2l-27.5-5l-2.2-2.2l-1.6-5.6l34.1,0.9L249,186.6z M213.3,183.2l-5.1-5.2l3.6,0.1L213.3,183.2z M203.6,173.2
	l-8.2-8.4l9.6,1.8L203.6,173.2z M203.6,173.2l-0.8,3.8l-4.9-0.1l-15.2-14.6l12.6,2.4L203.6,173.2z M197.7,176.9l-18.4-0.5l-5-15.7
	l8.2,1.5L197.7,176.9z M198.5,177.7l3.5,3.4l-0.4,2.2l-21.4-3.9l-0.7-2.1L198.5,177.7z M201.5,183.6l-0.9,4.5l-19.6-6.2l-0.7-2.1
	L201.5,183.6z M181,181.9l-7-2.2l-0.3-1.1l6.6,1.2L181,181.9z M173.6,179.6l-1.4-0.4c0.1-0.2,0.1-0.5,0.1-0.7l1,0.2L173.6,179.6z
	 M170.7,181.9c0.6-0.6,1-1.3,1.3-2.1l1.8,0.6l3,11.4c-0.2,0.1-0.5,0.2-0.7,0.4c-0.7,0.7-0.7,1.8,0,2.5c0.5,0.5,1.2,0.6,1.8,0.4
	l0.2,0.5l-5.5-0.4l-3.2-3.5l-1.6-8.4C168.9,183.2,169.9,182.7,170.7,181.9z M169.6,192.9l2.2,2.4l-1.8-0.1L169.6,192.9z
	 M172.1,195.6l10.2,11l7.7,20.1l-17.4-17.4l-2.6-13.9L172.1,195.6z M171.7,208.4l-13.9-13.8l11.5,0.8L171.7,208.4z M164.9,234.1
	c0.1,0.1,0.2,0.3,0.3,0.4c1.5,1.5,3.8,1.5,5.3,0c0.3-0.3,0.5-0.6,0.7-1l5.6,2.2l3.1,16.6l-10.5-8.6l-5.8-8.7L164.9,234.1z
	 M168.3,242.9l-7.6-6.2l2.5-1.5L168.3,242.9z M168.8,243.6l7.5,11.3l-42.2,14.7c-0.1-0.1-0.2-0.2-0.3-0.3c-0.5-0.5-1.2-0.8-1.9-0.8
	l-1-13.5l29.5-18.1L168.8,243.6z M182.9,269.2l0.2,0.9l-0.8-0.3L182.9,269.2z M183.6,268.6l0.9-0.9l-0.5,2.7l-0.1,0L183.6,268.6z
	 M188,272.5l4.2,6.3l-5.8,5.2l-2.1-11.7l0.3-1.3L188,272.5z M185.8,284.6l-4.8,4.4l2.9-14.6L185.8,284.6z M185.8,284.8l0.6,3.2
	l-5.1,4.6c-0.3-0.3-0.6-0.5-1-0.6l0.5-2.7L185.8,284.8z M187.2,288.2l7-6.4l4,6l-9.3,9.5L187.2,288.2z M198.6,288.5l3.6,5.4
	c-0.1,0-0.1,0.1-0.2,0.1c-0.8,0.8-0.8,2,0,2.8c0.3,0.3,0.8,0.5,1.2,0.6l-0.2,30.6l-8.8-1.3l-5.2-28.4L198.6,288.5z M202,335
	c0.1,0.1,0.3,0.2,0.5,0.3l-1.3,1.1L202,335z M204.5,334.9c0.4-0.4,0.6-1.1,0.5-1.6l4.2-3.6l6.7,1l-11.7,9.4l-0.5-4.6
	C203.9,335.3,204.2,335.2,204.5,334.9z M210,328.9l30.6-26.7l4.6,3.8l-5.5,5.2c-1.4-1.2-3.5-1.2-4.9,0.2c-1.2,1.2-1.4,3.1-0.5,4.5
	l-17.5,14.1L210,328.9z M234.7,316.4C234.7,316.4,234.7,316.4,234.7,316.4c0.9,0.9,2.2,1.2,3.4,1c0.4,0.2,0.9,0.3,1.3,0.3l1.1,15.6
	l-22.8-3.3L234.7,316.4z M239.5,317.7c0.6-0.1,1.1-0.3,1.5-0.7c0.9-0.9,1-2.2,0.3-3.2l7.1-5.1l19.5,15.9L252.3,335l-11.7-1.7
	L239.5,317.7z M250.1,335.5l-9.2,1.2l-0.2-2.5L250.1,335.5z M250.5,335.6l0.7,0.1l-9.9,6.5l-0.4-5.4L250.5,335.6z M252.7,335.9
	l5.6,0.8l-16.6,9.9l-0.2-3.2L252.7,335.9z M260.1,336.1l3.7-2.2l13.4-1.7l0.9,0.8l-7.7,4.6L260.1,336.1z M278.2,333l4.6,3.8
	l-2.6,2.2l-9.7-1.4L278.2,333z M283.2,337.1l3.4,2.8l-5.7-0.8L283.2,337.1z M283.3,336.9l8.9-7.4l6.7,6.7l1.4,5.7l-13.3-1.9
	L283.3,336.9z M300.5,342.7l2.1,8.4l-1,0.8L288.3,341L300.5,342.7z M307.2,348.3l1,2.9l-4.9,0.6l-0.1-0.5L307.2,348.3z M307.7,347.9
	l1.7-1.3l3.9,3.9l-4.4,0.6L307.7,347.9z M309.7,346.3l1.2-0.9l4.5,4.8l-1.5,0.2L309.7,346.3z M311.3,345.1l0.8-0.6l13.3,1.9
	l-2.1,2.9l-7.3,0.9L311.3,345.1z M313.2,343.7l1.9-1.5c0,0,0,0,0,0c0.7,0.7,1.9,0.7,2.7,0c0.7-0.7,0.7-1.7,0.1-2.5l11.2-11.2
	l7.4,2.9l-10.5,14.1L313.2,343.7z M337,331.6l11,4.4l0.3,2.8l-17,7.5l-4.7-0.7L337,331.6z M349,336.3l0.7,0.3c-0.1,0.5-0.1,1,0,1.5
	l-0.6,0.2L349,336.3z M345.6,319.3l-1.7-5.6l3.7-3.7l1.1,5.1L345.6,319.3z M343.7,313.2l-8.4-28.2c0.4-0.2,0.7-0.4,1-0.7
	c1.4-1.4,1.4-3.6,0-5c-0.2-0.2-0.3-0.3-0.5-0.4l4.8,0.1c0,0.6,0.3,1.1,0.7,1.5c0,0,0.1,0,0.1,0.1l6.1,28.9L343.7,313.2z
	 M342.4,281.2c0.8,0.2,1.6,0,2.2-0.6c0.9-0.9,0.9-2.4,0-3.4c-0.5-0.5-1.1-0.7-1.7-0.7l-3.4-36.9l15.3,7.4l-2.1,57.1l-4.6,4.6
	L342.4,281.2z M338.3,235c-0.3,0.1-0.5,0.2-0.7,0.5c-0.8,0.8-0.8,2.1,0,2.9c0.4,0.4,0.9,0.6,1.4,0.6l0,0.4l-6.1-3l-6.3-30.1l4.3,0.8
	L338.3,235z M320.2,180l-2.9-0.1l-0.8-13.4l0.8-0.7L320.2,180z M316.4,166.4l-0.4-6.1l1.1,5.4L316.4,166.4z M316.4,179.9l-10-0.3
	l-0.5-3.6l9.7-8.8L316.4,179.9z M306.2,179.6l-4.1-0.1l3.7-3.3L306.2,179.6z M301.9,179.5l-5.4-0.1l8.5-7.7l0.6,4.5L301.9,179.5z
	 M296.6,179.4l-2.9-0.1l10.1-17.1l1.3,9.5L296.6,179.4z M303.5,159l2.6-2.4l-2.4,4L303.5,159z M303.6,160.9l-10.8,18.4l-3.5-0.1
	l-5.7-2l19.8-18.1L303.6,160.9z M286.6,179.1l-5-0.1l1.3-1.2L286.6,179.1z M288.9,180l2.9,1l-0.6,0.9c-0.1-0.3-0.2-0.5-0.4-0.7
	c-0.6-0.6-1.5-0.6-2.1,0c-0.2,0.2-0.3,0.4-0.3,0.6l-8.2-1.5l0.6-0.5L288.9,180z M280.2,180.3l-3.4-0.6l3.9,0.1L280.2,180.3z
	 M279.8,180.6l-10,9.1l-1.3-10.3l6.1,0.2L279.8,180.6z M268.4,178.7l0-0.3l1.6,0.3L268.4,178.7z M259.8,178.5l-13.3-0.3l-1.5-4.1
	l16.5,3.1L259.8,178.5z M245.9,178.1l-34-0.9l-2.9-10l35.4,6.7L245.9,178.1z M208.8,166.9l-1.5-5.2c0.3-0.1,0.5-0.2,0.7-0.4
	c0.3-0.3,0.4-0.6,0.5-0.9l33.3,6.3l2.5,6.9L208.8,166.9z M208.6,160.1c0.1-0.6-0.1-1.2-0.6-1.6c-0.2-0.2-0.5-0.4-0.7-0.5l1.3-6.4
	l31.8,11.2l1.3,3.5L208.6,160.1z M212.1,143.4c0.7-0.7,0.9-1.8,0.6-2.7l5.3-2.6l16.4,7.9l5.7,15.8l-31.3-11l1.3-6.6
	C210.8,144.2,211.5,144,212.1,143.4z M229.4,132.4l4.6,12.8l-15.4-7.4l10.7-5.3L229.4,132.4z M217.9,137.4l-15.2-7.3l25.4,2.2
	L217.9,137.4z M241.1,163.1l8.9,3.1c-0.3,0.1-0.6,0.3-0.9,0.5c-0.3,0.3-0.4,0.6-0.5,0.9l-6.3-1.2L241.1,163.1z M240.8,162.1
	l-5.7-15.7l21.3,10.3l-4.7,9.3L240.8,162.1z M263.6,140.7l0.8,0.3l0,0.1l-0.6,1.2L263.6,140.7z M264.9,139.8l0.1,0l-0.1,0.2
	L264.9,139.8z M264.3,140.7l-0.8-0.3l-0.2-1.2l0.9,0.3L264.3,140.7z M262.5,138.9l0.2,1.2l-20.5-6.5c0.1-0.5,0-1.1-0.4-1.6
	c-0.6-0.6-1.7-0.6-2.3,0c-0.3,0.3-0.4,0.6-0.5,0.9l-9-0.8l0-0.1l6.7-3.4L262.5,138.9z M229.7,131.5l-2.3-6.4l8.4,3.3L229.7,131.5z
	 M229.2,131.8l-0.7,0.3l-26.5-2.3l-1.2-0.6l20.2-6.6l5.7,2.2L229.2,131.8z M221.4,122.5l4-1.3l1.2,3.4L221.4,122.5z M221,122.4
	l-13.7-5.4l13.5-8.4l4.4,12.3L221,122.4z M198.3,128.6C198.2,128.6,198.2,128.6,198.3,128.6c-0.6,0.6-0.6,1.5-0.1,2
	c0.5,0.5,1.4,0.5,1.9,0c0.2-0.2,0.3-0.5,0.4-0.7l0.5,0l16.2,7.8l-4.8,2.4c-0.1-0.1-0.2-0.3-0.3-0.4c-1-1-2.6-1-3.7,0
	c-1,1-1,2.6,0,3.7c0.3,0.3,0.6,0.5,1,0.6l-1.3,6.5L173,138.2l19.8-12.2L198.3,128.6z M208,151.4l-1.3,6.5c-0.5,0-1,0.2-1.4,0.6
	c-0.8,0.8-0.8,2,0,2.8c0.2,0.2,0.4,0.3,0.7,0.4l-0.9,4.5l-10.1-1.9l-24.2-24.8l1.3-0.8L208,151.4z M170.6,139.4l-1.8-1.8l3,1.1
	L170.6,139.4z M170.7,139.6l24.1,24.7l-12.6-2.4l-11-10.5l-3.3-10.1L170.7,139.6z M181.9,161.9l-7.9-1.5l-2.8-8.7L181.9,161.9z
	 M179.4,177.2l0.7,2.1l-6.6-1.2l-0.3-1.1L179.4,177.2z M173.2,178.1l-0.8-0.1c0-0.3,0-0.6,0-0.9l0.6,0L173.2,178.1z M162.2,181.9
	c1.3,1.3,3.2,1.9,4.9,1.7l1.3,7.3l-13.2-14.3l5.3,0.1C160.3,178.5,160.8,180.5,162.2,181.9z M154.6,175.8l-0.7-0.8l4.9,0.9
	L154.6,175.8z M154.5,176.5l14.2,15.4l0.6,3.2l-11.7-0.8l-18.1-18.1L154.5,176.5z M153,232.3c0.1,0.3,0.2,0.7,0.5,0.9
	c0.7,0.7,1.9,0.7,2.6,0c0,0,0,0,0,0l3.9,3.2l-29,17.8l-1.4-19L153,232.3z M131.3,268.4c-0.4,0.1-0.7,0.2-1,0.4l-3.7-11.2l3.7-2.3
	L131.3,268.4z M129.8,273.3c0.3,0.3,0.8,0.6,1.2,0.7l-16.5,2.8l14.5-5.1C129.1,272.3,129.3,272.9,129.8,273.3z M132.4,274.2
	l5.6,18.4l-6-18.4L132.4,274.2z M133,274.1l5-0.8c0.1,0.4,0.3,0.7,0.5,1c0.8,0.8,2.2,0.8,3,0c0.5-0.5,0.7-1.1,0.6-1.7l1.2-0.2
	l29.1-5c0.1,0.3,0.2,0.6,0.5,0.9c0.8,0.8,2,0.8,2.8,0c0.1-0.1,0.3-0.3,0.3-0.5l5.9,2.3l-39.2,35.9L133,274.1z M160.2,307.7
	L148,318.8c-0.4,0-0.9,0.1-1.3,0.2l-2.4-7.8L160.2,307.7z M143.7,320.7c-0.9,0.9-1.4,1.9-1.7,3l-4.5-4.2l6.5,0.9
	C143.9,320.5,143.8,320.6,143.7,320.7z M152.7,320.7c-1.2-1.2-2.8-1.9-4.5-1.9l12.3-11.2l6.5-1.4c0.1,0.2,0.2,0.5,0.3,0.7
	c0.3,0.3,0.6,0.4,1,0.4l0.2,10.7l-4.3,4.4L152.7,320.7C152.7,320.7,152.7,320.7,152.7,320.7z M168.6,319l0.1,4l-3.5-0.5L168.6,319z
	 M168.7,318.9l19.7-20l5.1,27.7l-24.7-3.5L168.7,318.9z M196.1,341l0.3,1.5l-2.3,0.3L196.1,341z M199.7,343.6
	c-0.6-0.6-1.4-0.9-2.2-0.9l0.2-0.3l4.1-0.5L199.7,343.6z M197.7,342.3l3.3-5.5l1.6-1.4c0.2,0.1,0.4,0.1,0.6,0.1l0.5,4.9l-1.8,1.4
	L197.7,342.3z M216.8,330.8l23.8,3.4l0.2,2.6l-36.6,4.7l-0.1-0.5L216.8,330.8z M240.8,336.8l0.4,5.5L208,364.2l-1.4,0.2l-2.4-22.8
	L240.8,336.8z M207.5,364.5l-0.8,0.6l0-0.4L207.5,364.5z M208.1,366.2c-0.2-0.2-0.4-0.3-0.7-0.4l2.4-1.6l2.8-0.4l-4.4,2.6
	C208.2,366.3,208.1,366.3,208.1,366.2z M210.2,363.9l31-20.4l0.2,3.2l-28.4,16.8L210.2,363.9z M241.5,347.1l0.4,6.1
	c-0.3,0-0.5,0.1-0.8,0.3c-0.5,0.5-0.5,1.3,0,1.8c0.5,0.5,1.3,0.5,1.8,0c0.4-0.4,0.5-1,0.2-1.5l26.1-15.6l10,1.4l-21.4,18l-43.8,5.7
	L241.5,347.1z M279.9,339.8l8,1.1l13.5,11.1l-42.7,5.5L279.9,339.8z M302.9,352.1l0.3,1l-1.1-0.9L302.9,352.1z M303.9,354l3.4,2.7
	l-2.4,1L303.9,354z M307.9,357l2.1-0.9l1.4,3.8L307.9,357z M307.5,356.7l-3.7-3l-0.4-1.6l4.9-0.6l1.5,4.2L307.5,356.7z M308.9,351.3
	l4.6-0.6l2.3,2.3l-5.4,2.4L308.9,351.3z M314.1,350.7l1.5-0.2l1.7,1.9l-1.1,0.5L314.1,350.7z M317.7,352.7l1.7,1.8l-0.6,0.8
	l-2.2-2.2L317.7,352.7z M318.2,352.4l4-1.8l-2.5,3.4L318.2,352.4z M317.9,352.1l-1.6-1.7l6.8-0.9l-0.3,0.5L317.9,352.1z
	 M323.7,349.4l0.3,0l-0.5,0.2L323.7,349.4z M324,349.1l2-2.7l3.7,0.5l-4.6,2L324,349.1z M330.5,347l4.4,0.6l-8.3,1.1L330.5,347z
	 M349.9,338.5c0.1,0.2,0.2,0.4,0.4,0.6c0.3,0.3,0.7,0.5,1.1,0.6l-0.2,5.8l-1.4,0.2l-0.6-6.9L349.9,338.5z M349.9,346l1.3-0.2l0,0.2
	l-1.2,1L349.9,346z M352.5,309.9l-3.2,4.3l-1-4.9l4.4-4.4L352.5,309.9z M352.6,334.1l0.2,0.8c-0.1,0-0.1,0-0.2-0.1L352.6,334.1z
	 M353.7,303.9l13-13l-13.2,17.7L353.7,303.9z M393.9,222.2c-1.3-1.3-3.3-1.3-4.5,0c-0.3,0.3-0.6,0.7-0.7,1.1l-14.1-8.5l21.1,3.8
	l-1.4,4C394.2,222.5,394.1,222.4,393.9,222.2z M373.7,214.3l-9-5.4c0.4-0.8,0.3-1.8-0.3-2.5c-0.8-0.8-2.1-0.8-3,0
	c-0.8,0.8-0.8,2.1,0,3c0.5,0.5,1.1,0.7,1.8,0.6l0.4,2.5l-32.3-5.9l-2.5-9.6c0.1-0.1,0.3-0.2,0.4-0.3c0.5-0.5,0.5-1.4,0-2
	c0,0,0,0-0.1,0l8.8-13.6l19.7,0.5c1.2,1.2,3.1,1.2,4.4,0.1l14.7,0.4c0,0,0,0,0,0.1c0.3,0.3,0.6,0.4,0.9,0.6l22.1,24.1l-3.9,11.4
	L373.7,214.3z M376,180.6l-1-1.1l1.1,0.4C376,180.1,376,180.4,376,180.6z M376.1,181.2c0,0.1,0,0.2,0.1,0.3l-13.6-0.3
	c0.3-0.6,0.5-1.2,0.4-1.9l9.4-0.7l1.9,0.7L376.1,181.2z M373.5,178.4L373.5,178.4l0.1,0L373.5,178.4z M353.2,141.7
	c0.4-0.8,0.3-1.7-0.4-2.3c-0.5-0.5-1.1-0.7-1.7-0.6l-0.5-3.1c0.5,0.5,1.3,0.5,1.8,0l9.7,10.6L353.2,141.7z M341.6,143.6l-23.7,21.4
	l-2.3-10.7l-0.4-6.1l16.6-15.2L341.6,143.6z M314.8,154.6l0.8,12.6l-9.7,8.8l-0.6-4.5l7.6-6.9c0,0,0,0,0,0.1c0.6,0.6,1.5,0.6,2,0
	c0.6-0.6,0.6-1.5,0-2c-0.6-0.6-1.5-0.6-2,0c-0.5,0.5-0.6,1.4,0,2l-7.6,6.9l-1.3-9.6l4.2-7.2l5.6-5.2L314.8,154.6z M308.2,154.7
	l4.9-8.3l0.7,3.2L308.2,154.7z M309,122.6l4.2,15.5c-0.3,0.1-0.5,0.3-0.8,0.5L309,122.6z M313.8,145.2l0.4-0.6c0,0,0.1,0,0.1,0
	l0.2,4L313.8,145.2z M303.1,105.1c-1.2,1.2-1.2,3.2,0,4.4c0.7,0.7,1.5,0.9,2.4,0.9l6.1,28.9c-0.1,0.2-0.2,0.3-0.3,0.5l-9.5,7.1
	l-6.7-48.5l3.8-1.2l6.5,7C304.6,104.2,303.8,104.5,303.1,105.1z M311.2,140.3c-0.3,1.1,0,2.4,0.9,3.3c0.2,0.2,0.4,0.3,0.6,0.5
	l0.2,1.1l-6.7,11.4l-2.6,2.4l-1.6-11.7L311.2,140.3z M303.3,159.1l-19.8,18.1l-14.6-5.2l32.8-24.6L303.3,159.1z M282.9,177.8
	l-1.3,1.2l-9.4-0.2l-3.8-0.7l-0.7-5.1l0.4-0.3L282.9,177.8z M262,176.9l-17-3.2l-2.5-6.9l6.1,1.2c-0.1,0.6,0.1,1.2,0.6,1.7
	c0.8,0.8,2.1,0.8,2.9,0c0.7-0.7,0.8-1.8,0.3-2.6l14.4,5.1l0.1,1L262,176.9z M251.9,166l4.7-9.2l7.1,3.4c-0.4,1.2-0.2,2.6,0.8,3.5
	c0.4,0.4,0.8,0.6,1.3,0.8l0.9,6.7L251.9,166z M265.8,158.2l-2-15.4l0.6-1.2l1.8,16.5C266.1,158.1,265.9,158.2,265.8,158.2z
	 M265,140.6l0.3-0.6l12.9,5.1l-13.2-4.2L265,140.6z M260,112.6L260,112.6L260,112.6C260,112.5,260,112.5,260,112.6z M221.3,108.1
	l-1.7-4.6l18.5-5.8L221.3,108.1z M220.8,108.4l-13.7,8.5l-7.8-3.1l8.6-5.8c0,0,0.1,0.1,0.1,0.1c1.2,1.2,3,1.2,4.2,0
	c0.7-0.7,1-1.7,0.8-2.6l6.1-1.9L220.8,108.4z M186.1,122.7l6.4,3.1l-19.8,12.3l-4.4-1.6c0.1-0.5,0-1.1-0.2-1.6L186.1,122.7z
	 M167.6,138c0.2-0.2,0.3-0.4,0.4-0.6l0.7,0.3l1.8,1.9l-2.7,1.7l-0.9-2.7C167.2,138.3,167.4,138.1,167.6,138z M167.9,141.3l3.2,10
	l-7.6-7.3L167.9,141.3z M171.2,151.6l2.8,8.8l-3.9-0.7c0-0.5-0.1-1-0.5-1.3c-0.7-0.7-1.7-0.7-2.4,0c-0.7,0.7-0.7,1.7,0,2.4
	c0.4,0.4,0.9,0.5,1.4,0.5l4,15.1l-0.5,0c-0.3-1-0.8-2-1.6-2.8c-2.3-2.3-6.1-2.3-8.4,0c-0.7,0.7-1.1,1.5-1.4,2.4l-7.5-1.4l-14.2-15.4
	l24.3-15L171.2,151.6z M152.4,174.3l-14.8-2.7c0.1-1-0.2-2-1-2.8c-1.3-1.3-3.5-1.3-4.8,0c-1.3,1.3-1.3,3.5,0,4.8
	c1.3,1.3,3.3,1.3,4.6,0.1l1.6,1.6l-10.7-0.3l0.5-1.1l8.1-12.1c0.7,0.4,1.5,0.3,2.1-0.3c0.6-0.6,0.7-1.4,0.3-2.1l0.3-0.2L152.4,174.3
	z M138.2,159.5c-0.1-0.1-0.1-0.2-0.2-0.2c-0.7-0.7-1.8-0.7-2.5,0c-0.7,0.7-0.7,1.8,0,2.5c0.1,0.1,0.1,0.1,0.2,0.2l-7.5,11.2
	l7.5-16.8l2.8,3L138.2,159.5z M126.3,175.8l-1.1,1.6l-1.1-1.7L126.3,175.8z M125.7,178.7l12.8,19.2l-7.9,16.5
	c-0.1-0.5-0.4-1-0.8-1.4c-1.1-1.1-3-1.1-4.1,0c-1.1,1.1-1.1,3,0,4.1c0.2,0.2,0.5,0.4,0.8,0.5l-6.2,16.8c-0.4,0-0.8,0.1-1.1,0.4
	l-7.9-24.2L125.7,178.7z M121.4,237.3c0.3-0.3,0.5-0.8,0.5-1.2l6.9-0.8l1.4,19.3l-3.9,2.4l-6.2-19.2
	C120.6,237.8,121.1,237.6,121.4,237.3z M125.8,257.3l-17,10.5l10.8-29.5L125.8,257.3z M137.1,348c-0.5,0.5-0.8,1.1-1,1.8
	c-0.9-0.3-2-0.1-2.7,0.7c0,0,0,0,0,0l-10.9-8.4l5.7-5.2L137.1,348z M137.8,347.5l-8.9-11.1l13-11.8c-0.2,1.8,0.4,3.7,1.8,5.1
	c1.7,1.7,4.1,2.2,6.3,1.6l2.9,2.7l-12.7,13C139.3,346.9,138.5,347,137.8,347.5z M150.1,331.2c1-0.3,1.9-0.8,2.6-1.6
	c2.2-2.2,2.4-5.5,0.8-8l10,1.4L152.9,334L150.1,331.2z M164.4,323.3l4.3,0.6l0.4,20.7c-0.3,0-0.7,0.1-0.9,0.4c-0.5,0.5-0.5,1.4,0,2
	c0.5,0.5,1.4,0.5,2,0c0.3-0.3,0.4-0.7,0.4-1.1l23.3-3l-16.4,14.3l-24-22.7L164.4,323.3z M184.8,364.2l2.7,2.6l-4.6,0.6L184.8,364.2z
	 M184.8,364.2l9.8-16.7c0.1,0.2,0.3,0.4,0.5,0.6c1.3,1.3,3.3,1.3,4.6,0c1.1-1.1,1.2-2.7,0.5-4l3.1-2.5l0.6-0.1l2.4,22.8l-18.6,2.4
	L184.8,364.2z M206.2,364.6l0.1,0.6l-12,7.9l-6.5-6.2L206.2,364.6z M195,373.9l14.2,13.4c0,0,0.1,0.1,0.1,0.2
	c0.1,0.1,0.1,0.1,0.2,0.2l1.4,1.4c-0.1,0.1-0.2,0.2-0.3,0.3l-20-12.6L195,373.9z M211,389C211,389,211,389,211,389l-1.1-1
	c0.6,0.3,1.3,0.5,1.9,0.4C211.6,388.5,211.3,388.7,211,389z M213.7,383.1c-1.2-1.2-3.2-1.2-4.4,0c-1.1,1.1-1.2,2.7-0.4,3.9
	l-13.8-13.1l9.8-6.5c0,0.5,0.1,1,0.5,1.4c0.7,0.7,1.9,0.7,2.6,0c0.6-0.6,0.7-1.4,0.4-2.1l5.1-3l43.9-5.7l-4,3.4c0,0,0,0,0-0.1
	c-1.5-1.5-3.8-1.5-5.3,0c-1.5,1.5-1.5,3.8,0,5.3c0.3,0.3,0.7,0.6,1.1,0.7l-8.5,22.1l-26-4.1C214.7,384.5,214.4,383.7,213.7,383.1z
	 M240.3,390.3l-0.5,1.3l-16.4-3.9L240.3,390.3z M266.8,398.2l2.7-0.1l-2.8,0.7C266.8,398.6,266.8,398.4,266.8,398.2z M268.8,397
	l-2,0.1c-0.1-0.7-0.5-1.4-1-2c-1.4-1.4-3.8-1.4-5.2,0c-0.4,0.4-0.7,0.8-0.8,1.3l-19.4-4.7l0.5-1.3l33.6,5.3L268.8,397z M275.8,396
	l1.2,0.2l-2.1,0.5l-2.9,0.1L275.8,396z M312.3,360.9l1.4,1.2l-0.7,0.9L312.3,360.9z M312.2,360.5l-1.7-4.7l5.6-2.5l2.4,2.4l-4.6,6.2
	L312.2,360.5z M320,354.4l3.1-4.1l2.5-1.1l10.5-1.4l11,1.6L329,364.1L320,354.4z M339.4,347.4l9.5-1.2l0.1,1.6l-1,0.8L339.4,347.4z
	 M352.2,345.7l2.8-0.4l0.9,4.4l-3.8-0.5L352.2,345.7z M354.9,345.1l-2.6,0.3l2.3-1.8L354.9,345.1z M352.2,345.3l0.2-5.5
	c0.5-0.1,0.9-0.2,1.3-0.6l0.9,4.1L352.2,345.3z M354.4,338.3c0.4-0.9,0.2-2-0.5-2.7c0,0,0,0,0,0l-1.1-5.2l0.8-21l15.3-20.6l4.2-4.2
	l-3.8,11.2c-0.6-0.1-1.2,0.1-1.7,0.5c-0.7,0.7-0.7,1.9,0,2.6c0.7,0.7,1.9,0.7,2.6,0c0.6-0.6,0.7-1.6,0.2-2.4l16.9-15.2l-4,37.1
	c-0.5,0-1,0.1-1.4,0.5c-0.7,0.7-0.7,1.7-0.2,2.4l-26.3,21.3L354.4,338.3z M393.3,272.6c-0.2,0.2-0.3,0.3-0.4,0.5l-4.8,1.2l0.6-5.5
	l20.6-20.6l-13.7,23.9C394.9,271.8,394,272,393.3,272.6z M388.6,268.3l-5.6,5.6c-0.3-0.5-0.7-1-1.1-1.4c-1-1-2.3-1.7-3.6-1.9
	l14.5-42.2c0,0,0,0,0.1,0L388.6,268.3z M410.8,219c-0.8-0.1-1.6,0.2-2.2,0.8c-0.2,0.2-0.4,0.5-0.5,0.8l-11.8-2.1l3.8-11.1L410.8,219
	z M401.1,199.3c-0.3,0.5-0.3,1.2,0.2,1.7c0.1,0.1,0.2,0.2,0.3,0.2l-1.8,5.3L378.1,183c0.7,0.1,1.4-0.1,2-0.7l0.1,0L401.1,199.3z
	 M399.6,180.2c-0.5,0.5-0.8,1.1-0.9,1.8l-18.1-0.5c0.4-0.9,0.2-2-0.5-2.7c-1-1-2.5-1-3.5,0c-0.2,0.2-0.3,0.4-0.5,0.7l-2-0.8
	l-0.3-0.3l13.8-1c0,0.6,0.3,1.2,0.7,1.6c1,1,2.7,1,3.7,0c1-1,1-2.7,0-3.7c-1-1-2.6-1-3.6-0.1l-26.3-28.9l18.9,9.8
	c-0.4,0.8-0.3,1.8,0.4,2.5c0.9,0.9,2.2,0.9,3.1,0c0.3-0.3,0.5-0.6,0.6-1l14.6,22.3C399.8,180.1,399.7,180.1,399.6,180.2z M383.4,155
	c-0.7-0.1-1.4,0.1-1.9,0.6c-0.2,0.2-0.3,0.3-0.4,0.5l-18.9-9.8l-9.7-10.7c0,0,0,0,0,0c0.6-0.6,0.6-1.4,0-2c-0.6-0.6-1.4-0.6-2,0
	c-0.1,0.1-0.1,0.2-0.2,0.3l-2.2-14l24.1,19.5c-0.6,1-0.5,2.4,0.4,3.3c0.8,0.8,2,1,3.1,0.5L383.4,155z M332.5,113.4
	c2,1,4.4,0.7,6.1-1c0,0,0.1-0.1,0.1-0.1l7.7,6.2c0,0.4,0.2,0.7,0.4,1l-14.6,13.4l-6.7-7.3L332.5,113.4z M325.2,125.8l6.7,7.3
	l-16.6,15.2l-0.2-3.6c0.6-0.1,1.3-0.4,1.8-0.9c1.2-1.2,1.3-3,0.4-4.3L325.2,125.8z M324.7,125.1l-8,13.5c-0.6-0.5-1.4-0.8-2.2-0.8
	l0.7-0.5c0,0,0,0,0,0.1c0.6,0.6,1.6,0.6,2.2,0c0.6-0.6,0.6-1.6,0-2.2c-0.3-0.3-0.7-0.4-1.1-0.4l-1.7-20.6L324.7,125.1z M314.3,113.4
	l-0.6-0.7c0.2,0,0.4,0.1,0.6,0.1L314.3,113.4z M303.8,95.6c0.1,0.3,0.3,0.6,0.5,0.8c0.7,0.7,1.8,0.9,2.6,0.5l6,11.6
	c-0.2,0.1-0.3,0.2-0.5,0.3c-0.5,0.5-0.7,1.3-0.7,2l-3.4-3.7c-0.1-0.7-0.3-1.4-0.9-2c-0.5-0.5-1.1-0.8-1.7-0.9l-6.6-7.2L303.8,95.6z
	 M294.7,94.6c0.5-0.1,0.9-0.3,1.3-0.6l2.8,3l-3.6,1.2L294.7,94.6z M294.9,98.5l6.7,48.6l-33.1,24.8l-1.1-0.4l-0.9-6.8
	c0.9,0.1,1.9-0.2,2.6-1c1.3-1.3,1.3-3.4,0-4.7c-0.7-0.7-1.5-1-2.4-1l-1.8-16.9l14.5,4.6c-0.2,0.7,0,1.4,0.5,1.9
	c0.8,0.8,2.1,0.8,2.9,0c0.8-0.8,0.8-2.1,0-2.9c-0.8-0.8-2.1-0.8-2.9,0c-0.2,0.2-0.3,0.4-0.4,0.6l-14.3-5.6l11.1-21.7
	c0.8,0.3,1.7,0.2,2.4-0.5c0.8-0.8,0.8-2.2,0-3.1c-0.8-0.8-2.2-0.8-3.1,0c-0.3,0.3-0.4,0.6-0.5,0.9l-10.4-2.2
	c-0.1-0.1-0.1-0.2-0.2-0.2c-1.1-1.1-2.8-1.4-4.2-0.7l-0.5-0.1l-0.3-2.2L294.9,98.5z M258.8,110l-3.6,1.2l-22.2-4.7
	c0-0.3,0-0.6-0.1-1l24.3-8.2L258.8,110z M268.2,93.2l-10.2,3.5l-0.3-2.2c0.2,0,0.4-0.1,0.5-0.2L268.2,93.2z M254.6,93.7
	c0.3,0.3,0.6,0.5,0.9,0.6l-10.1,1.1l8.6-2.7C254.1,93.1,254.3,93.4,254.6,93.7z M219.4,102.7l-1.4-3.8l21.5-2.4L219.4,102.7z
	 M219.7,91.4c0.1,0.1,0.2,0.2,0.3,0.3c0.8,0.8,2.2,0.8,3,0c0.5-0.5,0.7-1.1,0.6-1.7l34.4-5.2c0,0.2,0.1,0.4,0.2,0.6L241,95.9
	l-23.1,2.6l-1.8-5.1L219.7,91.4z M211.3,90.9c0.1,0.2,0.3,0.5,0.5,0.7c0.9,0.9,2.1,1.1,3.2,0.9l0.4,1.2l-11.2,6.5l-15.8,1.8
	L211.3,90.9z M173.5,108.4c-0.4-0.8-0.9-1.5-1.6-2.1l1.6-1.6c0.5,0.4,1.2,0.4,1.7-0.1c0.2-0.2,0.4-0.6,0.4-0.9l10.1-1.1L173.5,108.4
	z M159.4,118.8c3.5,3.5,9.1,3.4,12.6,0c0.7-0.7,1.2-1.4,1.6-2.2l11.8,5.7l-17.5,11.8c-0.1-0.4-0.2-0.9-0.6-1.2
	c-0.8-0.8-2.1-0.8-2.9,0c-0.4,0.4-0.6,0.9-0.6,1.4c-0.9,1-0.8,2.6,0.1,3.6c0.9,0.9,2.1,1,3.2,0.4l0.9,2.7l-4.5,2.8l-14.5-13.8
	c0.3-0.3,0.4-0.7,0.4-1.1L159.4,118.8z M147.6,130.6c0.4,0,0.9-0.1,1.2-0.4l14.4,13.8L139,159l-3-3.3l10.9-24.4L147.6,130.6z
	 M146.6,131.6l-10.7,24l-4.6-5c1-1.1,1.2-2.8,0.4-4L146.6,131.6z M129.4,145c-0.1,0-0.3,0-0.4,0l2-5.2L129.4,145z M126.6,151
	C126.6,151,126.6,151,126.6,151l0,0.1L126.6,151z M116.7,164.5c0.1-0.1,0.2-0.1,0.2-0.2c0.9-0.9,0.9-2.3,0.1-3.2l8.3-8.2l-6,15.6
	L116.7,164.5z M119.5,169.5l3.7,5.5l-5.7-0.1L119.5,169.5z M117.2,175.6l6.5,0.2l1.3,2l-12.7,18.9c-0.8-0.5-1.8-0.4-2.4,0.3
	c-0.8,0.8-0.8,2,0,2.8c0.2,0.2,0.5,0.4,0.7,0.5l-1.3,4.2l-1.4-4.4l1.3-3.3c0.1-0.2,0.2-0.5,0.3-0.7L117.2,175.6z M107.6,199.1
	l-0.2-0.7c0.2-0.1,0.4-0.2,0.6-0.4L107.6,199.1z M94.9,206.8c-0.3-0.3-0.7-0.6-1.1-0.7l8.8-28.3c0.9,0.2,1.9-0.1,2.6-0.8
	c0.5-0.5,0.7-1,0.8-1.6l10.6,0.3l-7.1,18.6c-0.1-0.6-0.5-1.2-1-1.7c-1.4-1.4-3.7-1.4-5.1,0c-1.4,1.4-1.4,3.7,0,5.1
	c0.1,0.1,0.3,0.3,0.5,0.4L94,214.8l-0.5-2.1c0.5-0.2,1-0.4,1.4-0.9C96.3,210.5,96.3,208.2,94.9,206.8z M86.7,253.7
	c-0.1,0-0.2,0-0.2-0.1l1.4-24.4c0.8,0,1.6-0.3,2.2-1c1.3-1.3,1.3-3.4,0-4.7c-0.1-0.1-0.3-0.2-0.4-0.3l3.9-6.6l2.6,12.2L86.7,253.7z
	 M94.2,215.7l10.2-17.4c0.7,0.4,1.6,0.4,2.4,0.3l0.5,1.5l-10.5,27.6L94.2,215.7z M97.9,233.3l-1-4.6l10.6-27.7l1.5,4.5l-10.2,31.8
	L97.9,233.3z M98.4,238.9l0.1,0.2l-0.2,0.5c0,0,0,0-0.1,0L98.4,238.9z M98.4,239.8l0.1-0.3l0.1,0.4
	C98.5,239.8,98.4,239.8,98.4,239.8z M102.8,257.3l-1.1-6c0-0.2-0.1-0.3-0.1-0.5c0.6-0.2,1.1-0.5,1.6-0.9c1.4-1.4,1.4-3.8,0-5.2
	c-0.8-0.8-1.9-1.2-3-1l-1.1-5.3l12-26.8l7.8,24c-0.2,0.6-0.1,1.3,0.4,1.7c0,0,0.1,0.1,0.1,0.1l-11.3,31l-2.7,1.7L102.8,257.3z
	 M104.6,271.1l0.7,4l-3.8,10.3l-3.2-3c1.3-1.4,1.3-3.6-0.1-5c-0.6-0.6-1.4-1-2.2-1L104.6,271.1z M92.5,278.6
	c-0.1,0.2-0.1,0.4-0.2,0.6c0-0.1-0.1-0.3-0.2-0.4L92.5,278.6z M91.6,282.3c0.4-0.4,0.6-0.9,0.8-1.4c0.2,0.6,0.5,1.1,0.9,1.6
	c1.4,1.4,3.7,1.4,5.1,0c0,0,0-0.1,0.1-0.1l3.2,3l-2.2,5.9L91.6,282.3z M110.1,332.6c0.7-1.2,0.6-2.7-0.4-3.7c-0.8-0.8-2-1.1-3.1-0.7
	l-10.2-21.7c0.2-0.1,0.3-0.2,0.4-0.3c1-1,1-2.6,0-3.6c-0.2-0.2-0.4-0.3-0.6-0.4l3.5-9.5l9.2,10.6c-1.3,1.4-1.3,3.6,0.1,5
	c1.4,1.4,3.7,1.4,5.1,0c1.4-1.4,1.4-3.7,0-5.1c-0.8-0.8-1.8-1.1-2.8-1l-1.7-9.3l27,25.6l-22-3.1c0-0.8-0.3-1.7-0.9-2.3
	c-1.3-1.3-3.3-1.3-4.5,0c-1.3,1.3-1.3,3.3,0,4.5c1.1,1.1,2.7,1.2,3.9,0.5l15.2,18.9l-5.7,5.2L110.1,332.6z M153.2,379
	c-0.2,0.2-0.3,0.4-0.4,0.6l-9.4-4.9c0.3-0.6,0.4-1.3,0.3-1.9l2.5-0.3L153.2,379z M146.2,372.2l-25.8-24c1-1.2,1.1-3,0-4.2l1.5-1.4
	l11,8.4c-0.6,1-0.5,2.4,0.4,3.3c1.1,1.1,2.8,1.1,3.8,0c0.2-0.2,0.3-0.4,0.4-0.6c1.4,1,3.4,0.8,4.7-0.5c0,0,0.1-0.1,0.1-0.2
	l23.3,16.5L146.2,372.2z M143,352.4c0.8-1.4,0.6-3.2-0.6-4.4c-0.4-0.4-0.9-0.7-1.4-0.9l12.4-12.7l24,22.7L172,362
	c0,0-0.1-0.1-0.1-0.1c-1.1-1.1-2.8-1.1-3.9,0c-1.1,1.1-1.1,2.8,0,3.9c1.1,1.1,2.8,1.1,3.9,0c0.1-0.1,0.3-0.3,0.4-0.4l4.6,2.9
	l-9.7,1.3L143,352.4z M178.3,373.6c-1.3-0.6-3-0.3-4.1,0.8c0,0-0.1,0.1-0.1,0.2l-6.8-4.8l9.8-1.3l3.1,1.9L178.3,373.6z M180.3,370.3
	l-3-1.9l4.5-0.6L180.3,370.3z M181,370.7l1.8-3l5-0.6l6.5,6.2l-4.5,3L181,370.7z M215.2,399.7l-14.6,0.7c-0.1-0.5-0.4-1-0.7-1.3
	c-1.1-1.1-2.8-1.1-3.9,0c-0.4,0.4-0.7,1-0.8,1.6l-8.8,0.4c-0.1-0.6-0.4-1.2-0.9-1.7c-1.1-1.1-2.6-1.2-3.9-0.6l-6.5-9
	c0.8-0.8,1-2.1,0.6-3.1l14.9-9.8l20.1,12.6c-0.6,1-0.5,2.3,0.4,3.2c1,1,2.6,1,3.6,0c1-1,1-2.6,0-3.6c-0.6-0.6-1.3-0.8-2.1-0.7
	c0.4-0.2,0.8-0.4,1.2-0.7c0.3-0.3,0.5-0.7,0.7-1l25,6l-2.4,6.1L215.2,399.7z M237.3,399.6l10.1-0.5l12.2-0.6c0,0.2,0.1,0.3,0.1,0.5
	l-15.9,3.5c-1.2-0.7-2.8-0.5-3.8,0.5c-0.1,0.1-0.2,0.3-0.3,0.4l-4.2,0.9L237.3,399.6z M223.3,408c0-0.2,0-0.3,0-0.5l11.4-2.5
	l-1.5,3.9L223.3,408z M234.2,414c-0.1-0.6-0.3-1.2-0.8-1.7c-0.2-0.2-0.5-0.4-0.8-0.5l0.9-2.2l35.4,3.3L234.2,414z M271.1,411
	c-0.4,0.4-0.7,0.9-0.8,1.4l-36.7-3.4l1.6-4.1l4-0.9c-0.5,1.2-0.3,2.6,0.7,3.5c1.3,1.3,3.3,1.3,4.5,0c0.4-0.4,0.6-0.9,0.8-1.3
	l27.4,4.1C272.1,410.3,271.5,410.6,271.1,411z M313.7,402c0,0.1,0,0.2,0,0.4l-31.1,7.2c-0.2-0.4-0.4-0.8-0.7-1.1
	c-1.3-1.3-3.3-1.3-4.5,0c-0.4,0.4-0.6,0.9-0.8,1.3l-31.1-4.6c0-0.1,0-0.2,0-0.3l16.1-4c1.4,0.7,3.2,0.5,4.3-0.6
	c0.2-0.2,0.3-0.3,0.4-0.5l8.1-2l7.2-0.4c0.9,0.3,1.8,0.3,2.7-0.1L313.7,402z M309.3,393.2c-0.5,0.5-0.8,1.2-0.9,2l-22.7,1.1
	c0.3-0.4,0.5-0.9,0.6-1.3l2.9-0.7L309.3,393.2C309.3,393.2,309.3,393.2,309.3,393.2z M322.1,389.5c-0.3,0.1-0.6,0.3-0.8,0.6
	c-0.5,0.5-0.8,1.2-0.8,1.9l-7.9,0.4c-0.7-0.2-1.5-0.2-2.3,0.1l-18.4,0.9l29-7.2L322.1,389.5z M321.1,385.3l-7.9-21.8l0.8-1.1l7,5.8
	c-0.6,0.8-0.5,1.9,0.2,2.6c0.8,0.8,2,0.8,2.8,0c0.7-0.7,0.8-1.8,0.2-2.5l3.6-2.9l14.8,14.8L321.1,385.3z M357.6,357.7
	c-0.5,0.2-0.9,0.4-1.3,0.8c-1.3,1.3-1.3,3.5,0,4.9c0.4,0.4,0.9,0.7,1.5,0.9l-1.5,10c-0.7,0-1.5,0.3-2,0.9c-0.6,0.6-0.9,1.5-0.8,2.3
	l-9.9,2.4l-14.4-15.5l18.2-14.8l1.9,0.3l1,10.8c-0.6,0.1-1.2,0.4-1.6,0.9c-1.3,1.3-1.3,3.5,0,4.9c1.3,1.3,3.5,1.3,4.9,0
	c1.3-1.3,1.3-3.5,0-4.9c-0.5-0.5-1.2-0.8-1.8-1l0.4-10.3l4.1,0.6L357.6,357.7z M379.5,350.3c-1.2-0.5-2.7-0.3-3.7,0.7
	c-0.4,0.4-0.7,0.9-0.8,1.5l-18-2.6l-1-4.6l28.5-3.7c0,0.1,0.1,0.3,0.1,0.4L379.5,350.3z M388.1,338.4c-0.1,0-0.2-0.1-0.3-0.1
	l1.1-1.8L388.1,338.4z M386.8,338.3c-0.6,0.1-1.1,0.3-1.6,0.8c-0.6,0.6-0.9,1.4-0.8,2.2l-28.6,3.7l-0.4-2l26.3-21.3
	c0,0,0,0.1,0.1,0.1c0.1,0.1,0.2,0.1,0.2,0.2c-0.3,1-0.1,2,0.7,2.8c1.1,1.1,2.9,1.1,4,0c1.1-1.1,1.1-2.9,0-4c0,0-0.1-0.1-0.2-0.1
	l19-25.2c0.1,0.1,0.2,0.1,0.3,0.1L391.2,331L386.8,338.3z M404.5,307.5c-0.7,0-1.4,0.2-2,0.7c-1,1-1,2.7,0,3.7c0,0,0.1,0.1,0.1,0.1
	l-10.3,17l13.8-33.4c0.4,0.1,0.8,0.2,1.2,0.1L404.5,307.5z M408.4,291.1c-1-0.7-2.4-0.6-3.3,0.3c-1,1-1,2.6,0,3.7
	c0,0,0.1,0.1,0.1,0.1l-19,25.2c-0.1-0.1-0.2-0.1-0.3-0.2l19.7-47.4c1,0.3,2.2,0.1,3-0.7c1.2-1.2,1.2-3,0-4.2c-1.2-1.2-3-1.2-4.2,0
	c-0.7,0.7-1,1.7-0.8,2.6l-7.5,1.9l13.9-24.4c0.5,0.2,1,0.1,1.3-0.3c0.5-0.5,0.5-1.3,0-1.9c-0.5-0.5-1.3-0.5-1.9,0
	c-0.5,0.5-0.5,1.1-0.1,1.6l-20.6,20.6l4.3-39.8c0.6,0,1.2-0.2,1.6-0.6c0.8-0.8,0.8-2,0.1-2.8c0-0.1,0-0.3,0-0.4l2-0.3l11-1.6
	c0.1,0.4,0.3,0.8,0.7,1.1c0.5,0.5,1.2,0.8,1.8,0.8l4.5,34.2c-0.6,0.2-1.2,0.5-1.7,0.9c-1.4,1.4-1.4,3.8,0,5.2
	c0.4,0.4,0.8,0.7,1.3,0.8L408.4,291.1z"/>
</svg>
