<?xml version="1.0" encoding="utf-8"?>
<!-- Generator: Adobe Illustrator 22.0.1, SVG Export Plug-In . SVG Version: 6.00 Build 0)  -->
<svg version="1.1" id="Calque_1" xmlns="http://www.w3.org/2000/svg" xmlns:xlink="http://www.w3.org/1999/xlink" x="0px" y="0px"
	 viewBox="0 0 300 300" style="enable-background:new 0 0 300 300;" xml:space="preserve">
<style type="text/css">
	.st0{opacity:0.85;}
	.st1{fill:#46BDF4;}
	.st2{fill:#3366FF;}
	.st3{fill:#FFFFFF;}
	.st4{fill:#41FAA4;}
	.st5{fill:#FFA93D;}
	.st6{fill:#7A5CFF;}
	.st7{fill:#304FFE;}
	.st8{fill:url(#SVGID_1_);}
	.st9{fill:url(#SVGID_2_);}
	.st10{fill:none;stroke:#F99400;stroke-miterlimit:10;}
	.st11{fill:#6F84FE;}
</style>
<g>
	<g class="st0">
		<g>
			<polygon class="st1" points="16.1,181.3 16.3,181 48.6,207.2 48.4,207.4 			"/>
		</g>
		<g>
			
				<rect x="161.4" y="-26.1" transform="matrix(0.2851 -0.9585 0.9585 0.2851 77.2031 183.4598)" class="st2" width="0.3" height="132.1"/>
		</g>
		<g>
			<path class="st3" d="M289.8,123.9"/>
			<line class="st4" x1="289.8" y1="124" x2="289.9" y2="123.7"/>
		</g>
		<g>
			<polygon class="st1" points="288.4,210.8 238.2,190.6 238.3,190.3 288.5,210.5 			"/>
		</g>
		<g>
			<polygon class="st1" points="237.6,186.4 237.4,186.2 283,125.6 283.2,125.9 			"/>
		</g>
		<g>
			<polygon class="st2" points="230.5,186.4 198.6,165.1 198.8,164.9 230.6,186.2 			"/>
		</g>
		<g>
			<line class="st3" x1="194.9" y1="164.8" x2="101.7" y2="179.1"/>
			
				<rect x="101.2" y="171.8" transform="matrix(0.9883 -0.1524 0.1524 0.9883 -24.4659 24.5978)" class="st4" width="94.2" height="0.3"/>
		</g>
		<g>
			
				<rect x="165.9" y="118.6" transform="matrix(6.017300e-02 -0.9982 0.9982 6.017300e-02 -27.5723 338.6481)" class="st2" width="0.3" height="130.8"/>
		</g>
		<g>
			
				<rect x="166.6" y="219.5" transform="matrix(0.6873 -0.7264 0.7264 0.6873 -95.3184 217.8918)" class="st5" width="77.7" height="0.3"/>
		</g>
		<g>
			
				<rect x="64.2" y="85.4" transform="matrix(0.7864 -0.6177 0.6177 0.7864 -70.8957 69.0267)" class="st1" width="0.3" height="103.3"/>
		</g>
		<g>
			
				<rect x="18.4" y="57" transform="matrix(0.6777 -0.7353 0.7353 0.6777 -21.2029 65.852)" class="st2" width="92.2" height="0.3"/>
		</g>
		<g>
			<line class="st3" x1="33.3" y1="93.7" x2="222.4" y2="59.9"/>
			
				<rect x="31.8" y="76.6" transform="matrix(0.9843 -0.1763 0.1763 0.9843 -11.5322 23.7365)" class="st5" width="192.1" height="0.3"/>
		</g>
		<g>
			
				<rect x="184.1" y="71.8" transform="matrix(0.8412 -0.5407 0.5407 0.8412 -6.2979 122.4461)" class="st2" width="42.4" height="0.3"/>
		</g>
		<g>
			
				<rect x="33" y="89.1" transform="matrix(0.9983 -5.860750e-02 5.860750e-02 0.9983 -5.0438 6.5017)" class="st1" width="150.5" height="0.3"/>
		</g>
		<g>
			<line class="st3" x1="185" y1="85.6" x2="99.5" y2="178.1"/>
			
				<rect x="79.3" y="131.7" transform="matrix(0.6793 -0.7339 0.7339 0.6793 -51.1218 146.7071)" class="st5" width="126" height="0.3"/>
		</g>
		<g>
			<line class="st3" x1="283.1" y1="120.8" x2="226.6" y2="60.1"/>
			<polygon class="st5" points="283,120.9 226.5,60.2 226.6,59.9 283.1,120.7 			"/>
		</g>
		<g>
			<line class="st3" x1="283.1" y1="122.9" x2="188.3" y2="84.3"/>
			<polygon class="st5" points="283,123 188.2,84.4 188.3,84.1 283.1,122.7 			"/>
		</g>
		<g>
			<line class="st3" x1="282" y1="124.7" x2="199.4" y2="163.5"/>
			<polygon class="st4" points="199.5,163.7 199.4,163.4 282,124.6 282.1,124.9 			"/>
		</g>
		<g>
			
				<rect x="47.2" y="194.4" transform="matrix(0.8715 -0.4904 0.4904 0.8715 -86.0531 60.67)" class="st2" width="51.2" height="0.3"/>
		</g>
		<g>
			
				<rect x="17" y="180.3" transform="matrix(0.9999 -1.562309e-02 1.562309e-02 0.9999 -2.8132 0.8882)" class="st1" width="77" height="0.3"/>
		</g>
		<g>
			
				<rect x="191.7" y="86" transform="matrix(0.9894 -0.145 0.145 0.9894 -16.0306 29.1285)" class="st2" width="0.3" height="77.2"/>
		</g>
		<g>
			<path class="st3" d="M178.7,249"/>
			<line class="st5" x1="178.7" y1="249.1" x2="178.7" y2="248.8"/>
		</g>
		<g>
			<line class="st3" x1="178.1" y1="249" x2="291.9" y2="212.3"/>
			<polygon class="st5" points="178.2,249.1 178.1,248.8 291.9,212.1 291.9,212.4 			"/>
		</g>
		<g>
			<path class="st3" d="M294.3,212.2"/>
			<line class="st4" x1="294.3" y1="212.4" x2="294.4" y2="212.1"/>
		</g>
		<g>
			<line class="st3" x1="174.4" y1="248.6" x2="101" y2="182.6"/>
			
				<rect x="137.5" y="166.3" transform="matrix(0.6688 -0.7435 0.7435 0.6688 -114.7074 173.7914)" class="st4" width="0.3" height="98.7"/>
		</g>
		<g>
			<line class="st3" x1="174.4" y1="249.2" x2="50.1" y2="208.4"/>
			
				<rect x="112.1" y="163.4" transform="matrix(0.3118 -0.9502 0.9502 0.3118 -140.1775 264.112)" class="st4" width="0.3" height="130.8"/>
		</g>
		<g>
			<circle class="st3" cx="97.9" cy="180" r="4.8"/>
			<path class="st5" d="M97.9,185c-2.7,0-4.9-2.2-4.9-4.9c0-2.7,2.2-4.9,4.9-4.9c2.7,0,4.9,2.2,4.9,4.9
				C102.8,182.8,100.6,185,97.9,185z M97.9,175.4c-2.6,0-4.6,2.1-4.6,4.6c0,2.6,2.1,4.6,4.6,4.6c2.6,0,4.6-2.1,4.6-4.6
				C102.5,177.5,100.5,175.4,97.9,175.4z"/>
		</g>
		<g>
			<circle class="st3" cx="97.9" cy="180" r="2.9"/>
			<path class="st5" d="M97.9,183.1c-1.7,0-3-1.4-3-3c0-1.7,1.4-3,3-3c1.7,0,3,1.4,3,3C100.9,181.7,99.6,183.1,97.9,183.1z
				 M97.9,177.3c-1.5,0-2.7,1.2-2.7,2.7c0,1.5,1.2,2.7,2.7,2.7c1.5,0,2.7-1.2,2.7-2.7C100.6,178.5,99.4,177.3,97.9,177.3z"/>
		</g>
		<g>
			<circle class="st5" cx="97.9" cy="180" r="1.6"/>
		</g>
		<g>
			<g>
				<circle class="st3" cx="97.5" cy="20.7" r="5.1"/>
				<path class="st5" d="M97.5,25.9c-2.9,0-5.2-2.3-5.2-5.2s2.3-5.2,5.2-5.2s5.2,2.3,5.2,5.2S100.3,25.9,97.5,25.9z M97.5,15.8
					c-2.7,0-4.9,2.2-4.9,4.9s2.2,4.9,4.9,4.9c2.7,0,4.9-2.2,4.9-4.9S100.2,15.8,97.5,15.8z"/>
			</g>
			<g>
				<circle class="st3" cx="97.5" cy="20.7" r="3"/>
				<path class="st5" d="M97.5,23.9c-1.8,0-3.2-1.4-3.2-3.2c0-1.8,1.4-3.2,3.2-3.2s3.2,1.4,3.2,3.2C100.7,22.5,99.2,23.9,97.5,23.9z
					 M97.5,17.8c-1.6,0-2.9,1.3-2.9,2.9s1.3,2.9,2.9,2.9s2.9-1.3,2.9-2.9S99.1,17.8,97.5,17.8z"/>
			</g>
			<g>
				<circle class="st5" cx="97.5" cy="20.7" r="1.7"/>
			</g>
		</g>
		<g>
			<g>
				<circle class="st3" cx="286.1" cy="123.4" r="5.1"/>
				<path class="st5" d="M286.1,128.6c-2.9,0-5.2-2.3-5.2-5.2s2.3-5.2,5.2-5.2s5.2,2.3,5.2,5.2S289,128.6,286.1,128.6z M286.1,118.5
					c-2.7,0-4.9,2.2-4.9,4.9c0,2.7,2.2,4.9,4.9,4.9c2.7,0,4.9-2.2,4.9-4.9C291,120.7,288.8,118.5,286.1,118.5z"/>
			</g>
			<g>
				<circle class="st3" cx="286.1" cy="123.4" r="3"/>
				<path class="st5" d="M286.1,126.6c-1.8,0-3.2-1.4-3.2-3.2c0-1.8,1.4-3.2,3.2-3.2c1.8,0,3.2,1.4,3.2,3.2
					C289.3,125.2,287.9,126.6,286.1,126.6z M286.1,120.5c-1.6,0-2.9,1.3-2.9,2.9c0,1.6,1.3,2.9,2.9,2.9c1.6,0,2.9-1.3,2.9-2.9
					C289,121.8,287.7,120.5,286.1,120.5z"/>
			</g>
			<g>
				<circle class="st5" cx="286.1" cy="123.4" r="1.7"/>
			</g>
		</g>
		<g>
			<g>
				<circle class="st3" cx="291.9" cy="210.5" r="3.5"/>
				<path class="st5" d="M291.9,214.2c-2,0-3.7-1.6-3.7-3.7c0-2,1.6-3.7,3.7-3.7s3.7,1.6,3.7,3.7
					C295.5,212.5,293.9,214.2,291.9,214.2z M291.9,207.2c-1.9,0-3.4,1.5-3.4,3.4c0,1.9,1.5,3.4,3.4,3.4s3.4-1.5,3.4-3.4
					C295.2,208.7,293.7,207.2,291.9,207.2z"/>
			</g>
			<g>
				<circle class="st3" cx="291.9" cy="210.5" r="2.1"/>
				<path class="st5" d="M291.9,212.8c-1.2,0-2.3-1-2.3-2.3c0-1.2,1-2.3,2.3-2.3s2.3,1,2.3,2.3C294.1,211.8,293.1,212.8,291.9,212.8
					z M291.9,208.6c-1.1,0-2,0.9-2,2c0,1.1,0.9,2,2,2s2-0.9,2-2C293.8,209.4,292.9,208.6,291.9,208.6z"/>
			</g>
			<g>
				<circle class="st5" cx="291.9" cy="210.5" r="1.2"/>
			</g>
		</g>
		<g>
			<circle class="st3" cx="48.5" cy="207.3" r="3.6"/>
			<path class="st6" d="M48.5,211.1c-2.1,0-3.8-1.7-3.8-3.8c0-2.1,1.7-3.8,3.8-3.8c2.1,0,3.8,1.7,3.8,3.8
				C52.3,209.4,50.6,211.1,48.5,211.1z M48.5,203.8c-1.9,0-3.5,1.6-3.5,3.5c0,1.9,1.6,3.5,3.5,3.5c1.9,0,3.5-1.6,3.5-3.5
				C52,205.4,50.4,203.8,48.5,203.8z"/>
		</g>
		<g>
			<circle class="st3" cx="48.5" cy="207.3" r="1.9"/>
			<path class="st6" d="M48.5,209.4c-1.1,0-2.1-0.9-2.1-2.1c0-1.1,0.9-2.1,2.1-2.1c1.1,0,2.1,0.9,2.1,2.1
				C50.6,208.4,49.7,209.4,48.5,209.4z M48.5,205.5c-1,0-1.8,0.8-1.8,1.8c0,1,0.8,1.8,1.8,1.8s1.8-0.8,1.8-1.8
				C50.3,206.3,49.5,205.5,48.5,205.5z"/>
		</g>
		<g>
			<circle class="st6" cx="48.5" cy="207.3" r="1.1"/>
		</g>
		<g>
			<circle class="st3" cx="15.7" cy="180.9" r="3.6"/>
			<path class="st1" d="M15.7,184.7c-2.1,0-3.8-1.7-3.8-3.8c0-2.1,1.7-3.8,3.8-3.8s3.8,1.7,3.8,3.8C19.5,183,17.8,184.7,15.7,184.7z
				 M15.7,177.4c-1.9,0-3.5,1.6-3.5,3.5s1.6,3.5,3.5,3.5s3.5-1.6,3.5-3.5S17.7,177.4,15.7,177.4z"/>
		</g>
		<g>
			<circle class="st3" cx="15.7" cy="180.9" r="2"/>
			<path class="st1" d="M15.7,183c-1.2,0-2.1-1-2.1-2.1c0-1.2,1-2.1,2.1-2.1s2.1,1,2.1,2.1C17.9,182.1,16.9,183,15.7,183z
				 M15.7,179.1c-1,0-1.8,0.8-1.8,1.8s0.8,1.8,1.8,1.8s1.8-0.8,1.8-1.8S16.7,179.1,15.7,179.1z"/>
		</g>
		<g>
			<circle class="st1" cx="15.7" cy="180.9" r="1.2"/>
		</g>
		<g>
			<circle class="st3" cx="30.6" cy="93.7" r="5"/>
			<path class="st1" d="M30.6,98.8c-2.8,0-5.1-2.3-5.1-5.1c0-2.8,2.3-5.1,5.1-5.1s5.1,2.3,5.1,5.1C35.7,96.5,33.4,98.8,30.6,98.8z
				 M30.6,88.9c-2.7,0-4.8,2.2-4.8,4.8s2.2,4.8,4.8,4.8s4.8-2.2,4.8-4.8S33.2,88.9,30.6,88.9z"/>
		</g>
		<g>
			<circle class="st3" cx="30.6" cy="93.7" r="2.7"/>
			<path class="st1" d="M30.6,96.6c-1.6,0-2.9-1.3-2.9-2.9c0-1.6,1.3-2.9,2.9-2.9c1.6,0,2.9,1.3,2.9,2.9
				C33.4,95.3,32.2,96.6,30.6,96.6z M30.6,91.1c-1.4,0-2.6,1.2-2.6,2.6s1.2,2.6,2.6,2.6s2.6-1.2,2.6-2.6S32,91.1,30.6,91.1z"/>
		</g>
		<g>
			<circle class="st1" cx="30.6" cy="93.7" r="1.7"/>
		</g>
		<g>
			<circle class="st3" cx="186.3" cy="83.6" r="3.6"/>
			<path class="st1" d="M186.3,87.4c-2.1,0-3.8-1.7-3.8-3.8c0-2.1,1.7-3.8,3.8-3.8c2.1,0,3.8,1.7,3.8,3.8
				C190,85.7,188.4,87.4,186.3,87.4z M186.3,80.1c-1.9,0-3.5,1.6-3.5,3.5c0,1.9,1.6,3.5,3.5,3.5c1.9,0,3.5-1.6,3.5-3.5
				C189.7,81.7,188.2,80.1,186.3,80.1z"/>
		</g>
		<g>
			<circle class="st3" cx="186.3" cy="83.6" r="2"/>
			<path class="st1" d="M186.3,85.7c-1.2,0-2.1-1-2.1-2.1c0-1.2,1-2.1,2.1-2.1c1.2,0,2.1,1,2.1,2.1
				C188.4,84.8,187.4,85.7,186.3,85.7z M186.3,81.8c-1,0-1.8,0.8-1.8,1.8c0,1,0.8,1.8,1.8,1.8c1,0,1.8-0.8,1.8-1.8
				C188.1,82.6,187.3,81.8,186.3,81.8z"/>
		</g>
		<g>
			<circle class="st1" cx="186.3" cy="83.6" r="1.2"/>
		</g>
		<g>
			<circle class="st3" cx="234.8" cy="188.8" r="4.9"/>
			<path class="st7" d="M234.8,193.8c-2.8,0-5.1-2.3-5.1-5.1s2.3-5.1,5.1-5.1c2.8,0,5.1,2.3,5.1,5.1S237.6,193.8,234.8,193.8z
				 M234.8,184c-2.6,0-4.8,2.1-4.8,4.8c0,2.6,2.1,4.8,4.8,4.8c2.6,0,4.8-2.1,4.8-4.8C239.5,186.1,237.4,184,234.8,184z"/>
		</g>
		<g>
			<circle class="st3" cx="234.8" cy="188.8" r="2.7"/>
			<path class="st7" d="M234.8,191.6c-1.6,0-2.8-1.3-2.8-2.8c0-1.6,1.3-2.8,2.8-2.8c1.6,0,2.8,1.3,2.8,2.8
				C237.6,190.3,236.3,191.6,234.8,191.6z M234.8,186.2c-1.4,0-2.5,1.1-2.5,2.5c0,1.4,1.1,2.5,2.5,2.5c1.4,0,2.5-1.1,2.5-2.5
				C237.3,187.4,236.2,186.2,234.8,186.2z"/>
		</g>
		<g>
			<circle class="st7" cx="234.8" cy="188.8" r="1.7"/>
		</g>
		<g>
			<circle class="st3" cx="224.9" cy="58.8" r="3.1"/>
			<path class="st7" d="M224.9,62c-1.8,0-3.2-1.5-3.2-3.2c0-1.8,1.5-3.2,3.2-3.2c1.8,0,3.2,1.5,3.2,3.2
				C228.1,60.6,226.7,62,224.9,62z M224.9,55.9c-1.6,0-2.9,1.3-2.9,2.9c0,1.6,1.3,2.9,2.9,2.9s2.9-1.3,2.9-2.9
				C227.8,57.2,226.5,55.9,224.9,55.9z"/>
		</g>
		<g>
			<circle class="st3" cx="224.9" cy="58.8" r="1.7"/>
			<path class="st7" d="M224.9,60.6c-1,0-1.8-0.8-1.8-1.8c0-1,0.8-1.8,1.8-1.8s1.8,0.8,1.8,1.8C226.7,59.8,225.9,60.6,224.9,60.6z
				 M224.9,57.3c-0.8,0-1.5,0.7-1.5,1.5c0,0.8,0.7,1.5,1.5,1.5c0.8,0,1.5-0.7,1.5-1.5C226.4,58,225.7,57.3,224.9,57.3z"/>
		</g>
		<g>
			<circle class="st7" cx="224.9" cy="58.8" r="1"/>
		</g>
		<g>
			<circle class="st3" cx="176.4" cy="249.9" r="3.6"/>
			<path class="st4" d="M176.4,253.6c-2.1,0-3.8-1.7-3.8-3.8c0-2.1,1.7-3.8,3.8-3.8c2.1,0,3.8,1.7,3.8,3.8
				C180.1,251.9,178.4,253.6,176.4,253.6z M176.4,246.4c-1.9,0-3.5,1.6-3.5,3.5s1.6,3.5,3.5,3.5s3.5-1.6,3.5-3.5
				S178.3,246.4,176.4,246.4z"/>
		</g>
		<g>
			<circle class="st3" cx="176.4" cy="249.9" r="2"/>
			<path class="st4" d="M176.4,252c-1.2,0-2.1-1-2.1-2.1c0-1.2,1-2.1,2.1-2.1c1.2,0,2.1,1,2.1,2.1C178.5,251,177.5,252,176.4,252z
				 M176.4,248c-1,0-1.8,0.8-1.8,1.8c0,1,0.8,1.8,1.8,1.8s1.8-0.8,1.8-1.8C178.2,248.9,177.4,248,176.4,248z"/>
		</g>
		<g>
			<circle class="st4" cx="176.4" cy="249.9" r="1.2"/>
		</g>
		<g>
			<circle class="st3" cx="197.5" cy="165.2" r="3.6"/>
			<path class="st4" d="M197.5,169c-2.1,0-3.8-1.7-3.8-3.8c0-2.1,1.7-3.8,3.8-3.8c2.1,0,3.8,1.7,3.8,3.8
				C201.2,167.3,199.5,169,197.5,169z M197.5,161.8c-1.9,0-3.5,1.6-3.5,3.5s1.6,3.5,3.5,3.5c1.9,0,3.5-1.6,3.5-3.5
				S199.4,161.8,197.5,161.8z"/>
		</g>
		<g>
			<circle class="st3" cx="197.5" cy="165.2" r="2"/>
			<path class="st4" d="M197.5,167.4c-1.2,0-2.1-1-2.1-2.1c0-1.2,1-2.1,2.1-2.1c1.2,0,2.1,1,2.1,2.1
				C199.6,166.4,198.6,167.4,197.5,167.4z M197.5,163.4c-1,0-1.8,0.8-1.8,1.8s0.8,1.8,1.8,1.8c1,0,1.8-0.8,1.8-1.8
				S198.5,163.4,197.5,163.4z"/>
		</g>
		<g>
			<circle class="st4" cx="197.5" cy="165.2" r="1.2"/>
		</g>
		<g>
			<polygon class="st5" points="16.3,181.7 16,181.6 30.3,93.7 30.6,93.7 			"/>
		</g>
	</g>
	<g>
		<g>
			<g>
				<circle class="st3" cx="147.4" cy="150" r="38.6"/>
				<linearGradient id="SVGID_1_" gradientUnits="userSpaceOnUse" x1="147.3921" y1="111.4031" x2="147.3921" y2="188.5969">
					<stop  offset="0" style="stop-color:#76328D"/>
					<stop  offset="1" style="stop-color:#3F53B9"/>
				</linearGradient>
				<path class="st8" d="M147.4,188.6c21.3,0,38.6-17.3,38.6-38.6s-17.3-38.6-38.6-38.6s-38.6,17.3-38.6,38.6
					S126.1,188.6,147.4,188.6z M147.4,116.2c18.6,0,33.8,15.1,33.8,33.8s-15.1,33.8-33.8,33.8s-33.8-15.1-33.8-33.8
					S128.8,116.2,147.4,116.2z"/>
			</g>
			<linearGradient id="SVGID_2_" gradientUnits="userSpaceOnUse" x1="148.5983" y1="125.8769" x2="148.5983" y2="174.1231">
				<stop  offset="0" style="stop-color:#76328D"/>
				<stop  offset="1" style="stop-color:#3F53B9"/>
			</linearGradient>
			<path class="st9" d="M135.3,169.3h2.4v2.4c0,1.3,1.1,2.4,2.4,2.4s2.4-1.1,2.4-2.4v-2.4h4.8v2.4c0,1.3,1.1,2.4,2.4,2.4
				c1.3,0,2.4-1.1,2.4-2.4v-2.4h1.2c6,0,10.9-4.9,10.9-10.9c0-4-2.2-7.5-5.5-9.4c1.9-1.9,3.1-4.6,3.1-7.5c0-5.6-4.2-10.1-9.6-10.7
				v-2.5c0-1.3-1.1-2.4-2.4-2.4c-1.3,0-2.4,1.1-2.4,2.4v2.4h-4.8v-2.4c0-1.3-1.1-2.4-2.4-2.4s-2.4,1.1-2.4,2.4v2.4h-2.4
				c-1.3,0-2.4,1.1-2.4,2.4v33.8C132.9,168.2,134,169.3,135.3,169.3z M153.4,164.5h-15.7v-12.1H151h2.4c3.3,0,6,2.7,6,6
				S156.7,164.5,153.4,164.5z M137.7,135.5H151c3.3,0,6,2.7,6,6s-2.7,6-6,6h-13.3V135.5z"/>
		</g>
		<ellipse class="st10" cx="147.4" cy="150" rx="56.3" ry="126.9"/>
		
			<ellipse transform="matrix(0.8115 -0.5843 0.5843 0.8115 -59.8676 114.394)" class="st10" cx="147.4" cy="150" rx="126.9" ry="56.3"/>
		
			<ellipse transform="matrix(0.4143 -0.9102 0.9102 0.4143 -50.1909 222.01)" class="st10" cx="147.4" cy="150" rx="56.3" ry="126.9"/>
		<circle class="st11" cx="148.1" cy="25.5" r="12.1"/>
		<circle class="st11" cx="148.1" cy="274.5" r="12.1"/>
		<circle class="st11" cx="260.9" cy="204.7" r="12.1"/>
		<circle class="st11" cx="33.7" cy="98.2" r="12.1"/>
		<circle class="st11" cx="45.5" cy="223.4" r="12.1"/>
		<circle class="st11" cx="249.8" cy="76.3" r="12.1"/>
	</g>
</g>
</svg>
