<?xml version="1.0" encoding="utf-8"?>
<!-- Generator: Adobe Illustrator 22.0.1, SVG Export Plug-In . SVG Version: 6.00 Build 0)  -->
<svg version="1.1" id="Calque_1" xmlns="http://www.w3.org/2000/svg" xmlns:xlink="http://www.w3.org/1999/xlink" x="0px" y="0px"
	 viewBox="0 0 300 300" style="enable-background:new 0 0 300 300;" xml:space="preserve">
<style type="text/css">
	.st0{fill:none;stroke:#FDA63E;stroke-width:0.75;stroke-linecap:round;stroke-miterlimit:10;}
	.st1{fill:none;stroke:#304FFE;stroke-width:0.75;stroke-linecap:round;stroke-miterlimit:10;}
	.st2{fill:none;stroke:#40F8A2;stroke-width:0.75;stroke-linecap:round;stroke-miterlimit:10;}
	.st3{fill:#FFFFFF;stroke:#F99400;stroke-linecap:round;stroke-miterlimit:10;}
	.st4{fill:#E7FFFF;stroke:#F99400;stroke-linecap:round;stroke-miterlimit:10;}
	.st5{opacity:0.7;}
	.st6{fill:none;stroke:#304FFE;stroke-width:2;stroke-miterlimit:10;}
	.st7{opacity:0.7;fill:#304FFE;}
	.st8{opacity:0.7;fill:none;stroke:#00FFFF;stroke-width:0.75;stroke-miterlimit:10;}
	.st9{opacity:0.7;fill:none;stroke:#E5E5E5;stroke-width:0.75;stroke-miterlimit:10;}
	.st10{fill:#FFFFFF;}
	.st11{fill:#530666;}
</style>
<g>
	<line class="st0" x1="146.6" y1="269.9" x2="1.2" y2="169.2"/>
	<line class="st1" x1="118.3" y1="239.8" x2="35.6" y2="182.5"/>
	<line class="st1" x1="238.7" y1="105.4" x2="88.2" y2="18.5"/>
	<line class="st0" x1="236.4" y1="80.5" x2="149.3" y2="30.2"/>
	<line class="st2" x1="211.7" y1="77.3" x2="124.5" y2="27"/>
	<g>
		<g>
			<polygon class="st3" points="62.4,123.8 62.4,253.4 177.6,253.4 177.6,104 82.8,104 			"/>
			<polyline class="st4" points="84.5,104 84.5,124.5 63.3,124.5 			"/>
		</g>
		<g class="st5">
			<line class="st6" x1="88.3" y1="149.4" x2="149.7" y2="149.4"/>
			<line class="st6" x1="88.3" y1="160.5" x2="149.7" y2="160.5"/>
			<line class="st6" x1="88.3" y1="171.5" x2="149.7" y2="171.5"/>
			<line class="st6" x1="88.3" y1="182.5" x2="149.7" y2="182.5"/>
			<line class="st6" x1="88.3" y1="193.6" x2="149.7" y2="193.6"/>
		</g>
	</g>
	<g>
		<g>
			<polygon class="st3" points="97.6,103.7 97.6,233.3 212.8,233.3 212.8,83.9 118,83.9 			"/>
			<polyline class="st4" points="119.7,83.9 119.7,104.5 98.5,104.5 			"/>
		</g>
		<g class="st5">
			<line class="st6" x1="123.5" y1="129.4" x2="187" y2="129.4"/>
			<line class="st6" x1="123.5" y1="140.4" x2="187" y2="140.4"/>
			<line class="st6" x1="123.5" y1="151.4" x2="187" y2="151.4"/>
			<line class="st6" x1="123.5" y1="162.5" x2="187" y2="162.5"/>
			<line class="st6" x1="123.5" y1="173.5" x2="187" y2="173.5"/>
		</g>
	</g>
	<path class="st3" d="M134.6,74.4V197c0,0-1.8,22.1,27.8,21.6s89.1,0,98.5,0s19.5-10.6,18.8-22.1c-13.8,0-42.5,0-42.5,0V74.4
		c0,0,2-20.3-20.8-20.3H113.9C113.9,54,134.6,58.1,134.6,74.4z"/>
	<path class="st4" d="M258.7,218.6h-96.3v-0.2c8.1-2.4,13.7-10.8,13.7-21.9h103.6v1.2C279.7,209.2,270.3,218.6,258.7,218.6z"/>
	<path class="st4" d="M112,54h0.6c11.8,0,21.8,9.6,21.3,21.3v1.1H89.5v0C89.5,64.1,99.6,54,112,54z"/>
	<g class="st5">
		<line class="st6" x1="173.6" y1="114" x2="221" y2="114"/>
	</g>
	<polygon class="st7" points="166.9,108.9 161,114.8 158.4,112.2 156.3,114.3 161,119 169,111 	"/>
	<g class="st5">
		<line class="st6" x1="173.6" y1="128.8" x2="221" y2="128.8"/>
	</g>
	<polygon class="st7" points="166.9,123.8 161,129.7 158.4,127.1 156.3,129.2 161,133.9 169,125.9 	"/>
	<g class="st5">
		<line class="st6" x1="173.6" y1="141.4" x2="221" y2="141.4"/>
	</g>
	<polygon class="st7" points="166.9,136.3 161,142.2 158.4,139.6 156.3,141.7 161,146.4 169,138.4 	"/>
	<g class="st5">
		<line class="st6" x1="173.6" y1="156.2" x2="221" y2="156.2"/>
	</g>
	<polygon class="st7" points="166.9,151.2 161,157.1 158.4,154.5 156.3,156.6 161,161.3 169,153.3 	"/>
	<path class="st8" d="M125.1,200.9c0,0-4.7,21.7,24.7,25.1"/>
	<path class="st9" d="M245.6,74.3c0,0,3-30.2-30.8-30.2"/>
	<g>
		<g>
			<circle class="st10" cx="137.9" cy="205" r="17.3"/>
			<path class="st11" d="M137.9,222.3c9.6,0,17.3-7.8,17.3-17.3s-7.8-17.3-17.3-17.3c-9.6,0-17.3,7.8-17.3,17.3
				S128.3,222.3,137.9,222.3z M137.9,189.8c8.4,0,15.2,6.8,15.2,15.2s-6.8,15.2-15.2,15.2c-8.4,0-15.2-6.8-15.2-15.2
				S129.5,189.8,137.9,189.8z"/>
		</g>
		<path class="st11" d="M132.5,213.7h1.1v1.1c0,0.6,0.5,1.1,1.1,1.1c0.6,0,1.1-0.5,1.1-1.1v-1.1h2.2v1.1c0,0.6,0.5,1.1,1.1,1.1
			s1.1-0.5,1.1-1.1v-1.1h0.5c2.7,0,4.9-2.2,4.9-4.9c0-1.8-1-3.4-2.5-4.2c0.8-0.9,1.4-2.1,1.4-3.4c0-2.5-1.9-4.5-4.3-4.8v-1.1
			c0-0.6-0.5-1.1-1.1-1.1s-1.1,0.5-1.1,1.1v1.1h-2.2v-1.1c0-0.6-0.5-1.1-1.1-1.1c-0.6,0-1.1,0.5-1.1,1.1v1.1h-1.1
			c-0.6,0-1.1,0.5-1.1,1.1v15.2C131.4,213.2,131.9,213.7,132.5,213.7z M140.6,211.5h-7v-5.4h6h1.1c1.5,0,2.7,1.2,2.7,2.7
			C143.3,210.3,142.1,211.5,140.6,211.5z M133.6,198.5h6c1.5,0,2.7,1.2,2.7,2.7c0,1.5-1.2,2.7-2.7,2.7h-6V198.5z"/>
	</g>
	<line class="st2" x1="186.3" y1="281.6" x2="297.9" y2="144.4"/>
	<line class="st0" x1="218.5" y1="255.7" x2="282" y2="177.7"/>
	<g>
		<g>
			<circle class="st10" cx="234.8" cy="51.6" r="12.2"/>
			<path class="st11" d="M234.8,63.8c6.7,0,12.2-5.5,12.2-12.2s-5.5-12.2-12.2-12.2s-12.2,5.5-12.2,12.2S228.1,63.8,234.8,63.8z
				 M234.8,40.9c5.9,0,10.7,4.8,10.7,10.7s-4.8,10.7-10.7,10.7c-5.9,0-10.7-4.8-10.7-10.7S228.9,40.9,234.8,40.9z"/>
		</g>
		<path class="st11" d="M231,57.7h0.8v0.8c0,0.4,0.3,0.8,0.8,0.8s0.8-0.3,0.8-0.8v-0.8h1.5v0.8c0,0.4,0.3,0.8,0.8,0.8
			s0.8-0.3,0.8-0.8v-0.8h0.4c1.9,0,3.4-1.5,3.4-3.4c0-1.3-0.7-2.4-1.7-3c0.6-0.6,1-1.5,1-2.4c0-1.8-1.3-3.2-3.1-3.4v-0.8
			c0-0.4-0.3-0.8-0.8-0.8s-0.8,0.3-0.8,0.8v0.8h-1.5v-0.8c0-0.4-0.3-0.8-0.8-0.8s-0.8,0.3-0.8,0.8v0.8H231c-0.4,0-0.8,0.3-0.8,0.8
			v10.7C230.2,57.4,230.6,57.7,231,57.7z M236.7,56.2h-5v-3.8h4.2h0.8c1.1,0,1.9,0.9,1.9,1.9S237.8,56.2,236.7,56.2z M231.7,47h4.2
			c1.1,0,1.9,0.9,1.9,1.9s-0.9,1.9-1.9,1.9h-4.2V47z"/>
	</g>
	<g>
		<g>
			<circle class="st10" cx="245.7" cy="101.4" r="12.2"/>
			<path class="st11" d="M245.7,113.7c6.7,0,12.2-5.5,12.2-12.2c0-6.7-5.5-12.2-12.2-12.2c-6.7,0-12.2,5.5-12.2,12.2
				C233.4,108.2,238.9,113.7,245.7,113.7z M245.7,90.7c5.9,0,10.7,4.8,10.7,10.7s-4.8,10.7-10.7,10.7c-5.9,0-10.7-4.8-10.7-10.7
				S239.8,90.7,245.7,90.7z"/>
		</g>
		<path class="st11" d="M241.8,107.6h0.8v0.8c0,0.4,0.3,0.8,0.8,0.8s0.8-0.3,0.8-0.8v-0.8h1.5v0.8c0,0.4,0.3,0.8,0.8,0.8
			s0.8-0.3,0.8-0.8v-0.8h0.4c1.9,0,3.4-1.5,3.4-3.4c0-1.3-0.7-2.4-1.7-3c0.6-0.6,1-1.5,1-2.4c0-1.8-1.3-3.2-3.1-3.4v-0.8
			c0-0.4-0.3-0.8-0.8-0.8s-0.8,0.3-0.8,0.8v0.8h-1.5v-0.8c0-0.4-0.3-0.8-0.8-0.8s-0.8,0.3-0.8,0.8v0.8h-0.8c-0.4,0-0.8,0.3-0.8,0.8
			v10.7C241.1,107.2,241.4,107.6,241.8,107.6z M247.6,106h-5v-3.8h4.2h0.8c1.1,0,1.9,0.9,1.9,1.9C249.5,105.2,248.6,106,247.6,106z
			 M242.6,96.9h4.2c1.1,0,1.9,0.9,1.9,1.9c0,1.1-0.9,1.9-1.9,1.9h-4.2V96.9z"/>
	</g>
	<g>
		<g>
			<circle class="st10" cx="208.4" cy="83" r="19.2"/>
			<path class="st11" d="M208.4,102.3c10.6,0,19.2-8.6,19.2-19.2s-8.6-19.2-19.2-19.2s-19.2,8.6-19.2,19.2S197.8,102.3,208.4,102.3z
				 M208.4,66.2c9.3,0,16.8,7.5,16.8,16.8s-7.5,16.8-16.8,16.8s-16.8-7.5-16.8-16.8S199.1,66.2,208.4,66.2z"/>
		</g>
		<path class="st11" d="M202.4,92.6h1.2v1.2c0,0.7,0.5,1.2,1.2,1.2s1.2-0.5,1.2-1.2v-1.2h2.4v1.2c0,0.7,0.5,1.2,1.2,1.2
			c0.7,0,1.2-0.5,1.2-1.2v-1.2h0.6c3,0,5.4-2.4,5.4-5.4c0-2-1.1-3.7-2.7-4.7c0.9-1,1.5-2.3,1.5-3.7c0-2.8-2.1-5-4.8-5.3v-1.3
			c0-0.7-0.5-1.2-1.2-1.2c-0.7,0-1.2,0.5-1.2,1.2v1.2H206v-1.2c0-0.7-0.5-1.2-1.2-1.2s-1.2,0.5-1.2,1.2v1.2h-1.2
			c-0.7,0-1.2,0.5-1.2,1.2v16.8C201.2,92.1,201.7,92.6,202.4,92.6z M211.4,90.2h-7.8v-6h6.6h1.2c1.7,0,3,1.3,3,3
			S213,90.2,211.4,90.2z M203.6,75.8h6.6c1.7,0,3,1.3,3,3s-1.3,3-3,3h-6.6V75.8z"/>
	</g>
</g>
</svg>
