<?xml version="1.0" encoding="utf-8"?>
<!-- Generator: Adobe Illustrator 22.1.0, SVG Export Plug-In . SVG Version: 6.00 Build 0)  -->
<svg version="1.1" id="Capa_1" xmlns="http://www.w3.org/2000/svg" xmlns:xlink="http://www.w3.org/1999/xlink" x="0px" y="0px"
	 viewBox="0 0 512 512" style="enable-background:new 0 0 512 512;" xml:space="preserve">
<style type="text/css">
	.st0{fill:#3C4C7D;}
</style>
<g>
	<g>
		<path class="st0" d="M106.1,156.7L106.1,156.7c-4.2,0-7.5,3.4-7.5,7.5s3.4,7.5,7.5,7.5s7.5-3.4,7.5-7.5S110.2,156.7,106.1,156.7z"
			/>
	</g>
</g>
<g>
	<g>
		<path class="st0" d="M501.6,343.9c0-2.7,1.1-10.6,2.5-19.9c4.6-32.2,13.1-91.9,3.5-128.5c-4.4-25.7-21.3-55.8-44.1-78.7
			c-25.7-25.7-54.6-38.1-79.4-33.9c-6.7,1.1-12.6,2.2-18.3,3.2c-35.5,6.5-51.6,9.5-92.1-10.8C226.2,51.6,199,63.8,193.3,67
			c-10.3,3.3-22.4,4.1-34.1,5c-15.2,1.1-30.9,2.2-44.1,8.5c-25,11.9-47.8,97-54.5,134.4C39.9,231,6.3,238.9,5.8,239
			c-3,0.7-5.3,3.1-5.7,6.1c-0.5,3,0.9,6,3.5,7.6C15,259.6,27.9,263,41.9,263c5,0,10.2-0.5,15.5-1.3c1,20.9,4.6,43.9,9.9,63.2
			c8.2,30,20,50.3,34.9,60.4c7,4.7,14.7,7.1,22.8,7.1c5.6,0,11.5-1.1,17.4-3.4c3.9-1.5,5.8-5.8,4.3-9.7c-1.5-3.9-5.8-5.8-9.7-4.3
			c-3.2,1.3-6.4,2-9.3,2.3c-0.2-0.1-0.4-0.1-0.6-0.2c-11.7-3-25.9-17.8-26.7-70.6c-0.4-26.7,2.9-52.8,4.4-62.7
			c21.4-8.4,49.8-28.1,59.1-34.7c2,2.2,4,4,5.6,5.5c2.6,2.3,5.8,3.7,9,4L190.6,322l-22.8,39.8c-2.2,3.8-3.5,7.9-4.1,12.3l-3.7,31.4
			c-0.2,2-0.8,3.9-1.7,5.7l-14.5,29c-1.2,2.3-1,5.1,0.3,7.3c1.4,2.2,3.8,3.6,6.4,3.6h86.9c8.7,0,15.7-7,15.7-15.7v-84.8l26.3-33.2
			c2.3,1.1,4.7,2.2,7.2,3.2c21.8,9.2,44.1,13.9,66,13.9c14,0,27.8-1.9,41.2-5.7l19.4,22c1.4,1.6,2.2,3.7,2.2,5.9v50.9
			c0,1.1-0.2,2.2-0.6,3.3L403,440.7c-0.9,2.3-0.6,4.9,0.8,7s3.7,3.3,6.2,3.3h81.5c4.4,0,8.5-1.8,11.5-5c3-3.2,4.5-7.5,4.2-11.8
			C505.9,415.7,501.6,354.6,501.6,343.9z M85.2,306.4c0.2,12.7,1.2,24.1,2.9,34c-10.1-25.4-15-58.5-15.9-82.4
			c6.1-1.9,11.6-4.2,16.2-6.3C86.7,265,84.9,285.3,85.2,306.4z M30.8,247.1c13.8-5,31.5-13.1,44-24.6c4.9,2.5,11.4,6.9,14.2,12.1
			C79.2,240,55.1,251.2,30.8,247.1z M200,411.7L188.9,436h-26.2l9.1-18.1c1.7-3.3,2.7-6.9,3.2-10.6l3.7-31.4c0.3-2.3,1-4.5,2.2-6.5
			l12.8-22.3l7.1,60C200.9,408.5,200.7,410.2,200,411.7z M253.2,326.3v-24c3.5,2.4,7.8,5.1,12.7,7.9L253.2,326.3z M459.9,336.7V436
			h-0.7v0H421l7.8-19.7c1.1-2.8,1.7-5.8,1.7-8.8v-50.9c0-5.8-2.1-11.4-6-15.8l-45.9-52.2c-2.7-3.1-7.5-3.4-10.6-0.7
			s-3.4,7.5-0.7,10.6l15.4,17.5c-29.3,6.6-59.4,3.6-89.8-9.2c-20.5-8.6-34.9-19.3-39.8-23.1v-18.9c0-4.1-3.4-7.5-7.5-7.5
			s-7.5,3.4-7.5,7.5v170.4c0,0.4-0.3,0.7-0.7,0.7h-32.1l8.3-18c1.8-4,2.5-8.4,2-12.8l-23-193c2.3-2.1,4.5-4.4,6.8-6.6
			c2.9-2.9,2.9-7.7-0.1-10.6s-7.7-2.9-10.6,0.1c-2.8,2.9-5.7,5.7-8.6,8.3c-0.3,0.2-0.6,0.2-0.9,0c-6.2-5.6-17.1-17.2-19.4-31.3
			c-0.7-4.1-4.5-6.9-8.6-6.2c-4.1,0.7-6.9,4.5-6.2,8.6c1.4,8.6,5,16.2,9.2,22.7c-8.9,6.3-33,22.9-51.7,31.1
			c-6-12.1-20.2-19-25.2-21.1c4.6-22.5,11.5-47.1,19.1-67.8c14.1-38.5,23.4-44.5,25.1-45.3c10.7-5.1,24.3-6,38.7-7.1
			c6.4-0.5,12.8-0.9,19.2-1.7c-0.4,1.8-0.2,3.8,0.9,5.6c2.1,3.5,6.8,4.7,10.3,2.5c13.8-8.3,22.7-5.8,27.7-2.3
			c9.7,6.8,14.7,23.5,11.7,38.8c-2.4,11.8-8.8,24.9-19.1,39.1c-2.4,3.4-1.7,8,1.7,10.5c1.3,1,2.9,1.4,4.4,1.4c2.3,0,4.6-1.1,6.1-3.1
			c11.6-16,18.9-31.1,21.6-45c4.3-21.5-3-43.7-17.8-54.1c-1.3-0.9-2.8-1.8-4.6-2.7c10.8,0.3,25.6,3.3,44.5,12.7
			c44.9,22.5,65,18.8,101.5,12.1c5.7-1,11.5-2.1,18.1-3.2c19.9-3.3,44.1,7.5,66.4,29.7c20.8,20.8,36.2,48,40,70.8c0,0,0,0,0,0
			c0,0,0,0,0,0c4.8,29-9,65.2-20.1,94.3C465.6,311.3,459.9,326.2,459.9,336.7z M492.2,435.2c0,0.1,0,0.3-0.2,0.5
			c-0.1,0.2-0.3,0.2-0.5,0.2h-16.5v-99.3c0-7.8,5.8-22.8,11.9-38.8c2.7-7,5.5-14.4,8.2-22c-1.7,17.4-4,33.7-5.7,46
			c-1.6,11-2.6,18.2-2.6,22C486.6,354.7,490.5,411.4,492.2,435.2z"/>
	</g>
</g>
</svg>
