<?xml version="1.0" encoding="utf-8"?>
<!-- Generator: Adobe Illustrator 22.0.1, SVG Export Plug-In . SVG Version: 6.00 Build 0)  -->
<svg version="1.1" id="Calque_1" xmlns="http://www.w3.org/2000/svg" xmlns:xlink="http://www.w3.org/1999/xlink" x="0px" y="0px"
	 viewBox="0 0 2500 2500" style="enable-background:new 0 0 2500 2500;" xml:space="preserve">
<style type="text/css">
	.st0{fill:#FFFFFF;}
	.st1{fill:url(#SVGID_1_);}
</style>
<circle class="st0" cx="1250" cy="1250" r="1250"/>
<g>
	<g>
		<linearGradient id="SVGID_1_" gradientUnits="userSpaceOnUse" x1="744.8145" y1="1250" x2="1755.1854" y2="1250">
			<stop  offset="0" style="stop-color:#530666"/>
			<stop  offset="1" style="stop-color:#530666"/>
		</linearGradient>
		<path class="st1" d="M1746.8,1148.1c4.7-29.7,7.6-62.2,8.4-98.7c-0.3-156.4-75.2-211.8-89.6-237.7c21.2-118.5-3.5-172.4-15-190.9
			c-42.4-15.1-147.6,38.9-205.1,76.8c-93.7-27.4-291.7-24.8-366,7.1c-137-98.1-209.5-83.1-209.5-83.1s-46.9,84-12.4,206.9
			c-45.1,57.4-78.7,98.1-78.7,205.8c0,25.8,1.6,50.2,4.3,73.6c38.8,204.1,200.6,292.2,359.4,307.4c-23.9,18.2-52.6,52.5-56.6,92.4
			c-30,19.4-90.5,25.8-137.5,11.1c-65.8-20.8-91-151.2-189.6-132.6c-21.3,4-17.1,18.1,1.4,30.1c30,19.5,58.3,43.7,80.1,95.5
			c16.7,39.8,52,110.8,163.3,110.8c44.2,0,75.2-5.2,75.2-5.2s0.8,101.4,0.8,140.9c0,45.5-61.4,58.3-61.4,80.1
			c0,8.7,20.3,9.5,36.7,9.5c32.3,0,99.5-26.9,99.5-74.2c0-37.6,0.6-163.9,0.6-186c0-48.3,25.9-63.7,25.9-63.7s3.2,258-6.2,292.6
			c-11,40.7-31,34.9-31,53c0,27,80.8,6.6,107.5-52.5c20.7-46.2,11.4-299.2,11.4-299.2l21.6-0.5c0,0,0.2,115.9-0.5,168.8
			c-0.8,54.8-6.4,124.1,26.1,156.9c21.4,21.5,86.9,59.3,86.9,24.8c0-20-45.9-36.5-45.9-90.7v-249.6c27.9,0,33.6,82,33.6,82l10,152.4
			c0,0-6.7,55.6,60.1,78.8c23.6,8.2,74,10.5,76.3-3.3c2.4-13.9-60.7-34.4-61.3-77.5c-0.3-26.2,1.2-41.6,1.2-155.6
			c0-114-15.3-156.1-68.7-189.7C1557.2,1398.8,1717.9,1329.7,1746.8,1148.1L1746.8,1148.1z M1746.8,1148.1"/>
	</g>
</g>
</svg>
