<?xml version="1.0" encoding="utf-8"?>
<!-- Generator: Adobe Illustrator 22.1.0, SVG Export Plug-In . SVG Version: 6.00 Build 0)  -->
<svg version="1.1" id="Layer_1" xmlns="http://www.w3.org/2000/svg" xmlns:xlink="http://www.w3.org/1999/xlink" x="0px" y="0px"
	 viewBox="0 0 128 128" style="enable-background:new 0 0 128 128;" xml:space="preserve">
<style type="text/css">
	.st0{fill:#3C4C7D;}
</style>
<g>
	<g>
		<path class="st0" d="M100.2,127.5H27.8c-2.6,0-4.8-2.1-4.8-4.8V5.3c0-2.6,2.1-4.8,4.8-4.8h72.4c2.6,0,4.8,2.1,4.8,4.8v117.4
			C105,125.4,102.8,127.5,100.2,127.5z M27.8,4.5c-0.4,0-0.8,0.3-0.8,0.8v117.4c0,0.4,0.3,0.8,0.8,0.8h72.4c0.4,0,0.8-0.3,0.8-0.8
			V5.3c0-0.4-0.3-0.8-0.8-0.8H27.8z"/>
	</g>
	<g>
		<path class="st0" d="M103,98.6H25c-0.6,0-1-0.4-1-1V19.8c0-0.6,0.4-1,1-1h78c0.6,0,1,0.4,1,1v77.8C104,98.1,103.5,98.6,103,98.6z
			 M26,96.6h76V20.8H26V96.6z"/>
	</g>
	<g>
		<path class="st0" d="M64,82.3c-0.2,0-0.5-0.1-0.7-0.3c-1-0.9-25-23-25.4-32.4c-0.2-3.7,1.2-7.2,3.8-9.9c2.8-2.9,6.7-4.6,10.7-4.6
			c4.6,0,8.9,2.2,11.6,5.9c2.7-3.7,7-5.9,11.6-5.9c8,0,14.5,6.5,14.5,14.5c0,8.6-22.8,30-25.4,32.4C64.5,82.2,64.3,82.3,64,82.3z
			 M52.4,37.1c-3.5,0-6.9,1.4-9.3,4c-2.2,2.3-3.4,5.3-3.2,8.5C40.2,56.5,56.8,73.3,64,80c7.3-6.9,24.1-24,24.1-30.3
			c0-6.9-5.6-12.5-12.5-12.5c-4.4,0-8.6,2.4-10.8,6.2c-0.4,0.6-1.4,0.6-1.7,0C60.9,39.5,56.8,37.1,52.4,37.1z"/>
	</g>
	<g>
		<path class="st0" d="M74.4,12.7H53.6c-0.6,0-1-0.4-1-1s0.4-1,1-1h20.8c0.6,0,1,0.4,1,1C75.4,12.2,75,12.7,74.4,12.7z"/>
	</g>
	<g>
		<path class="st0" d="M64,120.1c-4.4,0-7.9-3.6-7.9-7.9c0-4.4,3.6-7.9,7.9-7.9c4.4,0,7.9,3.6,7.9,7.9S68.4,120.1,64,120.1z
			 M64,106.2c-3.3,0-5.9,2.7-5.9,5.9c0,3.3,2.7,5.9,5.9,5.9c3.3,0,5.9-2.7,5.9-5.9C69.9,108.9,67.3,106.2,64,106.2z"/>
	</g>
</g>
</svg>
