<?xml version="1.0" encoding="utf-8"?>
<!-- Generator: Adobe Illustrator 22.0.1, SVG Export Plug-In . SVG Version: 6.00 Build 0)  -->
<svg version="1.1" id="Calque_1" xmlns="http://www.w3.org/2000/svg" xmlns:xlink="http://www.w3.org/1999/xlink" x="0px" y="0px"
	 viewBox="0 0 470 145" style="enable-background:new 0 0 470 145;" xml:space="preserve">
<style type="text/css">
	.st0{fill:#FFFFFF;}
	.st1{fill:none;}
	.st2{fill:#530666;}
	.st3{font-family:'CenturyGothic-Bold';}
	.st4{font-size:38.9614px;}
	.st5{fill:#F99400;}
	.st6{fill-rule:evenodd;clip-rule:evenodd;fill:#530666;}
	.st7{fill-rule:evenodd;clip-rule:evenodd;fill:#FFFFFF;}
	.st8{fill-rule:evenodd;clip-rule:evenodd;fill:#CAD7EE;}
</style>
<path class="st0" d="M122.6,61.2c-3.9-12.6-12-22.5-22.4-28.7c-3.2-1.9-6.6-3.5-10.2-4.7c-9.6-3.2-20.2-3.7-30.7-0.7
	c-18.9,5.7-31.8,21-35.2,38.9c-1.5,7.7-1.2,15.8,1.1,23.8c4.2,13.7,13.7,24.2,25.4,30.3c11.4,5.9,24.9,7.6,37.8,3.8
	c16.9-5.1,29.1-17.9,33.9-33.4c0.2-0.7,0.4-1.4,0.6-2.1C125.3,79.8,125.3,70.4,122.6,61.2z"/>
<g>
	<path class="st1" d="M94.2,36.6C94.2,36.6,94.2,36.6,94.2,36.6C94.2,36.6,94.2,36.6,94.2,36.6C94.2,36.6,94.2,36.6,94.2,36.6z"/>
	<path class="st1" d="M93.5,37.4C93.5,37.4,93.5,37.4,93.5,37.4C93.5,37.4,93.5,37.4,93.5,37.4C93.5,37.4,93.5,37.4,93.5,37.4z"/>
	<path class="st2" d="M98.4,34c0,0-0.1,0-0.1,0c-0.2,0.1-0.4,0.1-0.6,0.2c0,0-0.1,0-0.1,0.1c-0.2,0.1-0.4,0.2-0.6,0.3
		c0,0-0.1,0-0.1,0c-0.2,0.1-0.4,0.2-0.6,0.4c0,0-0.1,0.1-0.1,0.1c-0.2,0.1-0.4,0.3-0.6,0.4c0,0,0,0-0.1,0c-0.2,0.1-0.3,0.2-0.5,0.4
		c0,0-0.1,0-0.1,0.1c-0.2,0.1-0.3,0.2-0.4,0.3c0,0-0.1,0-0.1,0.1c-0.1,0.1-0.2,0.2-0.3,0.3c0,0,0,0,0,0c-0.3,0.2-0.5,0.5-0.7,0.8
		c0,0,0,0.1-0.1,0.1c0,0,0,0.1,0,0.1c0,0.1-0.1,0.1-0.1,0.2c0,0,0,0.1,0,0.1c0,0.1-0.1,0.2-0.1,0.3c0,0,0,0,0,0.1
		c0,0.1-0.1,0.2-0.1,0.3c0,0,0,0.1,0,0.1c0,0.1,0,0.2-0.1,0.3c0,0,0,0.1,0,0.1c0,0.1,0,0.2,0,0.4c0,0,0,0,0,0c0,0.1,0,0.3,0,0.4
		c0,0,0,0.1,0,0.1c0,0.1,0,0.2,0.1,0.3c0,0,0,0.1,0.1,0.1c0,0.1,0.1,0.2,0.2,0.3c0,0,0,0.1,0.1,0.1c0.1,0.1,0.2,0.3,0.3,0.4
		c0,0,0.1,0.1,0.1,0.1c0.1,0.1,0.2,0.2,0.3,0.3c0.1,0,0.1,0.1,0.2,0.1c0.1,0.1,0.3,0.2,0.4,0.3c0.1,0,0.1,0.1,0.2,0.1
		c0.2,0.1,0.5,0.2,0.7,0.3c7.2,2.7,16.4,9.9,16.5,23c0.1,8.2-5,13.6-9.9,17.7c1.1,0.4,2.3,0.9,4.7,1.2c4.8,0.6,12.5-1.8,12.1-1.2
		c-0.4,0.6-3.1,2.9-9.5,3.5c-4,0.4-7.6-0.2-10.1-1.3c-1,0.8-1.6,1.2-2.4,1.8c1.7,0.9,3.6,2,7.9,3c4.8,1.1,12.4-0.7,16.9-1.9
		c2.2-8.4,2.2-17.5-0.3-26.5c-3.8-12.2-11.7-21.9-21.8-27.9c-0.1,0-0.3,0.1-0.5,0.1C98.8,33.9,98.6,33.9,98.4,34z"/>
	<path class="st2" d="M92.6,90.3c-4.3,1.4-10.1-2.3-12.2-2.2c-2.6,0.1-3.2,2.9-3.2,3.8c0,0.9,0.7,2.7,2.8,4.9
		c3.3,3.4,1.7,7.8,0.9,7.5c-0.8-0.4-5.9-4.4-10-5.8c-3.7-1.2-6.2-0.3-11.1,0.2c-1.3,5.2-3.3,11.9-5.4,14.8c-1.1,1.6-2.1,3.6-3,5.6
		c11.1,5.7,24.2,7.4,36.8,3.7c16.5-4.9,28.3-17.4,32.9-32.5c-2.8,1.5-7.1,3.1-12.5,3.6C102.1,94.4,96.3,92.2,92.6,90.3z"/>
	<path class="st0" d="M104.7,90.1c-4.3-1-6.1-2.1-7.9-3c0.8-0.6,1.4-1.1,2.4-1.8c2.5,1,6.2,1.7,10.1,1.3c6.4-0.7,9-2.9,9.5-3.5
		c0.4-0.6-7.3,1.9-12.1,1.2c-2.4-0.3-3.6-0.8-4.7-1.2c4.9-4,10-9.4,9.9-17.7c-0.1-13.1-9.3-20.4-16.5-23c-0.3-0.1-0.5-0.2-0.7-0.3
		c-0.1,0-0.1-0.1-0.2-0.1c-0.1-0.1-0.3-0.2-0.4-0.3c-0.1,0-0.1-0.1-0.2-0.1c-0.1-0.1-0.2-0.2-0.3-0.3c0,0-0.1-0.1-0.1-0.1
		c-0.1-0.1-0.2-0.3-0.3-0.4c0,0,0-0.1-0.1-0.1c-0.1-0.1-0.1-0.2-0.2-0.3c0,0,0-0.1-0.1-0.1c0-0.1-0.1-0.2-0.1-0.3c0,0,0-0.1,0-0.1
		c0-0.1,0-0.3,0-0.4c0,0,0,0,0,0c0-0.1,0-0.3,0-0.4c0,0,0-0.1,0-0.1c0-0.1,0-0.2,0.1-0.3c0,0,0-0.1,0-0.1c0-0.1,0.1-0.2,0.1-0.3
		c0,0,0,0,0-0.1c0-0.1,0.1-0.2,0.1-0.3c0,0,0-0.1,0-0.1c0-0.1,0.1-0.1,0.1-0.2c0,0,0-0.1,0-0.1c0,0,0,0,0-0.1c0,0,0,0,0,0
		c0.2-0.3,0.4-0.5,0.7-0.8c0,0,0,0,0,0c0,0,0,0,0,0c0.1-0.1,0.2-0.2,0.3-0.3c0,0,0.1,0,0.1-0.1c0.1-0.1,0.3-0.2,0.4-0.3
		c0,0,0.1,0,0.1-0.1c0.2-0.1,0.3-0.2,0.5-0.4c0,0,0,0,0.1,0c0.2-0.1,0.4-0.3,0.6-0.4c0,0,0.1-0.1,0.1-0.1c0.2-0.1,0.4-0.3,0.6-0.4
		c0,0,0.1,0,0.1,0c0.2-0.1,0.4-0.2,0.6-0.3c0,0,0.1,0,0.1-0.1c0.2-0.1,0.4-0.2,0.6-0.2c0,0,0.1,0,0.1,0c0.2-0.1,0.4-0.1,0.6-0.1
		c0.2,0,0.3-0.1,0.5-0.1c-3.1-1.9-6.4-3.4-9.9-4.5c0.2,0.6,0.6,1.3,0.2,2.1c-0.5,1-5,1.7-5.2,7.4c-0.2,5.7,3.7,9.2,8.6,11.6
		c4.9,2.4,5.9,5.8,6.7,7.7c0.9,2.1,1.9,7.6-3.3,9.2c-4.9,1.5-8.1-3.1-9.2-3.8c0,0-10.2-6.7-15.1-7.4c-4.9-0.7-10.4-6.6-18.6-4.4
		c-4.2,1.1-6.5,3.9-7.8,6.3c0.1,0,0.1,0,0.2,0c0.6,0,1.2,0.1,1.7,0.3c1.3,0.4,2.5,1,3.7,1.5c0.4,0.2,0.7,0.3,1.1,0.5l0.5,0.3
		c0.2,0.1,0.4,0.2,0.6,0.3c-0.1,0-0.2,0-0.3,0c-0.1,0-0.2,0-0.3-0.1c-0.1,0-0.2,0-0.3-0.1l-0.3-0.1c-0.4-0.1-0.8-0.2-1.2-0.3
		c-1.6-0.5-3.2-1.2-4.8-1.6c-0.3-0.1-0.6-0.1-1-0.2c0,0,0,0,0,0c-4.8-0.3-10.9-0.6-13,0c-1.8,0.5-2.1,4.5-1.8,8.5c0,0,0,0,0,0
		c0.1,0.4,0.1,0.9,0.2,1.3c0.1,0.4,0.1,0.9,0.2,1.3c0,0.2,0.1,0.4,0.1,0.7c0,0.2,0.1,0.4,0.1,0.6c0.4,1.7,1,3.4,1.8,4.9
		c0.8,1.6,1.8,3,3,4.3c0.6,0.6,1.3,1.2,1.9,1.8c0.7,0.6,1.4,1.1,2.1,1.7c0.2,0.1,0.4,0.3,0.5,0.4l0.3,0.2l0.3,0.2
		c0.3,0.3,0.7,0.6,1,0.8c0.7,0.5,1.4,1.1,2.2,1.6c1.5,1,3,1.9,4.6,2.7c1.6,0.7,3.3,1.3,5,1.6c1.6,0.3,3.1,0.3,4.7,0.1
		c0.1-0.7,0.1-1.4,0.2-2.2l0.1-0.7l0.1-0.7c0.1-0.4,0.1-0.9,0.2-1.3c0.3-1.8,0.6-3.6,1-5.3c0-0.2,0.1-0.4,0.1-0.7
		c0-0.2,0.1-0.4,0.1-0.7c0.1-0.4,0.2-0.9,0.2-1.3c0-0.2,0.1-0.4,0.1-0.7c0-0.2,0-0.4,0.1-0.7c0.1-0.5,0.1-0.9,0.2-1.4
		c0.1-0.4,0.2-0.9,0.3-1.3c0.1-0.4,0.2-0.9,0.4-1.3c0.3-0.9,0.5-1.7,0.8-2.6l-0.5,2.7c-0.1,0.4-0.2,0.9-0.2,1.3
		c-0.1,0.4-0.1,0.9-0.2,1.3c-0.1,0.4-0.1,0.9-0.1,1.3c0,0.2,0,0.4,0,0.7c0,0.2,0,0.5,0,0.7c0,0.5-0.1,0.9-0.2,1.4
		c0,0.2-0.1,0.5-0.1,0.7l-0.1,0.7c-0.1,0.9-0.3,1.8-0.4,2.7c-0.1,0.9-0.2,1.8-0.3,2.7c-0.2,1.8-0.3,3.6-0.5,5.4l0,0.5l-0.5,0.1
		c-0.9,0.2-1.9,0.3-2.8,0.3c-1,0-1.9-0.1-2.8-0.2c-0.5-0.1-0.9-0.2-1.4-0.3c-0.5-0.1-0.9-0.2-1.4-0.4c-0.9-0.3-1.8-0.6-2.6-1
		C46.9,90,45.3,89,43.8,88c-0.8-0.5-1.5-1.1-2.2-1.7c-0.4-0.3-0.7-0.6-1.1-0.9l-0.3-0.2L40,85c-0.2-0.1-0.3-0.3-0.5-0.4
		c-0.7-0.6-1.4-1.1-2.1-1.8c-0.7-0.6-1.4-1.3-2-2c-0.6-0.7-1.2-1.4-1.7-2.2c-0.5-0.8-0.9-1.6-1.3-2.4c-0.4-0.8-0.7-1.7-0.9-2.6
		c-0.2-0.9-0.4-1.8-0.6-2.6c0-0.2-0.1-0.4-0.1-0.7c0-0.2-0.1-0.4-0.1-0.7c0-0.4-0.1-0.9-0.1-1.3c0-0.4,0-0.9,0-1.3
		c-1.9-0.1-3.7-0.3-5.2-0.6c-1.4,7.5-1.2,15.4,1.1,23.2c4.1,13.3,13.3,23.6,24.7,29.5c0.9-2,1.9-4,3-5.6c2-2.9,4-9.6,5.4-14.8
		c5-0.5,7.4-1.4,11.1-0.2c4.1,1.4,9.2,5.4,10,5.8c0.8,0.4,2.4-4-0.9-7.5c-2.1-2.2-2.8-4-2.8-4.9c0-0.9,0.6-3.7,3.2-3.8
		c2.2-0.1,7.9,3.7,12.2,2.2c3.8,2,9.5,4.1,15.9,3.6c5.5-0.5,9.7-2.1,12.5-3.6c0.2-0.7,0.4-1.4,0.6-2.1
		C117.2,89.4,109.6,91.2,104.7,90.1z M81,70.9c-1,0.4-2.1,0-2.5-1c-0.4-1,0-2.1,1-2.5c1-0.4,2.1,0,2.5,1C82.4,69.3,82,70.5,81,70.9z
		"/>
	<path class="st2" d="M30.7,68.3c0,0.4,0.1,0.9,0.1,1.3c0,0.2,0,0.4,0.1,0.7c0,0.2,0.1,0.4,0.1,0.7c0.1,0.9,0.3,1.8,0.6,2.6
		c0.2,0.9,0.6,1.7,0.9,2.6c0.4,0.8,0.8,1.7,1.3,2.4c0.5,0.8,1.1,1.5,1.7,2.2c0.6,0.7,1.3,1.3,2,2c0.7,0.6,1.4,1.2,2.1,1.8
		c0.2,0.1,0.3,0.3,0.5,0.4l0.3,0.2l0.3,0.2c0.3,0.3,0.7,0.6,1.1,0.9c0.7,0.6,1.4,1.1,2.2,1.7c1.5,1.1,3.1,2,4.8,2.8
		c0.8,0.4,1.7,0.7,2.6,1c0.4,0.1,0.9,0.3,1.4,0.4c0.5,0.1,0.9,0.2,1.4,0.3c0.9,0.2,1.9,0.2,2.8,0.2c1,0,1.9-0.1,2.8-0.3l0.5-0.1
		l0-0.5c0.1-1.8,0.3-3.6,0.5-5.4c0.1-0.9,0.2-1.8,0.3-2.7c0.1-0.9,0.3-1.8,0.4-2.7l0.1-0.7c0-0.2,0.1-0.5,0.1-0.7
		c0.1-0.5,0.1-0.9,0.2-1.4c0-0.2,0-0.5,0-0.7c0-0.2,0-0.5,0-0.7c0-0.4,0.1-0.9,0.1-1.3c0.1-0.4,0.1-0.9,0.2-1.3
		c0.1-0.4,0.2-0.9,0.2-1.3l0.5-2.7c-0.3,0.9-0.5,1.7-0.8,2.6c-0.1,0.4-0.2,0.9-0.4,1.3c-0.1,0.4-0.2,0.9-0.3,1.3
		c-0.1,0.4-0.2,0.9-0.2,1.4c0,0.2-0.1,0.5-0.1,0.7c0,0.2-0.1,0.4-0.1,0.7c-0.1,0.4-0.1,0.9-0.2,1.3c0,0.2-0.1,0.4-0.1,0.7
		c0,0.2-0.1,0.4-0.1,0.7c-0.4,1.8-0.7,3.6-1,5.3c-0.1,0.4-0.1,0.9-0.2,1.3l-0.1,0.7L59.2,89c-0.1,0.7-0.2,1.4-0.2,2.2
		c-1.6,0.2-3.1,0.2-4.7-0.1c-1.7-0.3-3.4-0.9-5-1.6c-1.6-0.7-3.1-1.7-4.6-2.7c-0.7-0.5-1.5-1-2.2-1.6c-0.4-0.3-0.7-0.6-1-0.8
		l-0.3-0.2L40.9,84c-0.2-0.1-0.4-0.3-0.5-0.4c-0.7-0.6-1.4-1.1-2.1-1.7c-0.7-0.6-1.3-1.2-1.9-1.8c-1.2-1.3-2.2-2.7-3-4.3
		c-0.8-1.6-1.4-3.2-1.8-4.9c-0.1-0.2-0.1-0.4-0.1-0.6c0-0.2-0.1-0.4-0.1-0.7c-0.1-0.4-0.2-0.9-0.2-1.3c-0.1-0.4-0.1-0.9-0.2-1.3
		c0,0,0,0,0,0c-0.3-4.1,0-8.1,1.8-8.5c2.1-0.5,8.2-0.3,13,0c0,0,0,0,0,0c0.3,0.1,0.7,0.2,1,0.2c1.6,0.3,3.2,1.1,4.8,1.6
		c0.4,0.1,0.8,0.2,1.2,0.3l0.3,0.1c0.1,0,0.2,0,0.3,0.1c0.1,0,0.2,0,0.3,0.1c0.1,0,0.2,0,0.3,0c-0.2-0.1-0.4-0.2-0.6-0.3l-0.5-0.3
		c-0.4-0.2-0.7-0.3-1.1-0.5c-1.2-0.6-2.5-1.1-3.7-1.5c-0.6-0.2-1.1-0.3-1.7-0.3c-0.1,0-0.1,0-0.2,0c1.3-2.5,3.6-5.2,7.8-6.3
		c8.1-2.2,13.7,3.7,18.6,4.4c4.9,0.7,15.1,7.4,15.1,7.4c1,0.6,4.2,5.2,9.2,3.8c5.2-1.6,4.2-7.1,3.3-9.2c-0.8-1.9-1.8-5.3-6.7-7.7
		c-4.9-2.4-8.8-5.9-8.6-11.6c0.2-5.7,4.7-6.4,5.2-7.4c0.4-0.8,0-1.4-0.2-2.1c-9.3-3.1-19.7-3.6-29.8-0.7C41.3,34,28.8,49,25.5,66.4
		c1.5,0.3,3.3,0.5,5.2,0.6C30.7,67.4,30.7,67.9,30.7,68.3z"/>
	<path class="st2" d="M79.5,67.4c-1,0.4-1.4,1.5-1,2.5c0.4,1,1.5,1.4,2.5,1c1-0.4,1.4-1.5,1-2.5C81.6,67.4,80.5,67,79.5,67.4z
		 M80.8,69.6c-0.3,0.1-0.6,0-0.7-0.3c-0.1-0.3,0-0.6,0.3-0.7c0.3-0.1,0.6,0,0.7,0.3C81.2,69.2,81.1,69.5,80.8,69.6z"/>
	<path class="st0" d="M80.4,68.7c-0.3,0.1-0.4,0.4-0.3,0.7c0.1,0.3,0.4,0.4,0.7,0.3c0.3-0.1,0.4-0.4,0.3-0.7
		C81,68.7,80.7,68.5,80.4,68.7z"/>
</g>
<text transform="matrix(1 0 0 1 145.1432 88.0678)" class="st0 st3 st4">space</text>
<text transform="matrix(1 0 0 1 274.4501 88.0798)" class="st5 st3 st4">elephant</text>
<path class="st6" d="M108.3,79.4c2.7-3.7-5.8-11.7-12.2-14.8C102.4,68.6,108.7,75,108.3,79.4z"/>
<path class="st6" d="M112.6,65c-0.1-3.5-8.7-4.3-13.8-3.3C104.2,61.2,110.9,62.2,112.6,65z"/>
<path class="st6" d="M111.1,56c-1.6-4.2-9.5-2.8-13.6-0.1C102.1,53.7,108.4,53,111.1,56z"/>
<path class="st6" d="M104.2,46.3c-2.6-2.5-8.4,2-10.8,5.8C96.3,48.5,101.1,45.3,104.2,46.3z"/>
<path class="st6" d="M96.2,42.5c-2.7-2.2-7.2,1.5-8.8,4.8C89.5,44.2,93.3,41.5,96.2,42.5z"/>
<path class="st6" d="M94.7,38.8c-1-3.5-8.8-2.4-13.1-0.2C86.4,36.9,92.5,36.3,94.7,38.8z"/>
<g>
	<polygon class="st7" points="63.1,35.6 64,39.1 67.5,40.1 64,41 63.1,44.5 62.1,41 58.6,40.1 62.1,39.1 	"/>
	<polygon class="st8" points="63.1,44.5 62.1,41 58.6,40.1 63.1,40.1 	"/>
</g>
</svg>
