<?xml version="1.0" encoding="utf-8"?>
<!-- Generator: Adobe Illustrator 22.0.1, SVG Export Plug-In . SVG Version: 6.00 Build 0)  -->
<svg version="1.1" id="Calque_1" xmlns="http://www.w3.org/2000/svg" xmlns:xlink="http://www.w3.org/1999/xlink" x="0px" y="0px"
	 viewBox="0 0 2500 2500" style="enable-background:new 0 0 2500 2500;" xml:space="preserve">
<style type="text/css">
	.st0{fill:#FFFFFF;}
	.st1{fill:#811D99;}
	.st2{fill:#530666;}
</style>
<circle class="st0" cx="1250" cy="1250" r="1250"/>
<g id="XMLID_98_">
	<g id="XMLID_99_">
		<path id="XMLID_103_" class="st1" d="M1469.9,674.8c-6.4-3-11.6,0-11.6,7.3v872.5l382.3,190.9c18.9,9.5,34.4,0,34.4-21.5V884.2
			c0-4.3-2.2-8.2-6-9.9L1469.9,674.8z"/>
		<path id="XMLID_102_" class="st2" d="M1041.7,1346.4l409.8-666.1c3.9-6,12-8.6,18.5-5.2L1866,873c4.7,2.6,6.9,8.6,3.9,13.3
			l-411.5,668.2L1041.7,1346.4z"/>
		<path id="XMLID_101_" class="st1" d="M671,692.4c-25.4-12.9-34-3.4-18.9,21.1l389.6,633l416.7,208.5L1044.2,882
			c-1.7-3-4.3-5.2-7.3-6.9L671,692.4z"/>
		<path id="XMLID_100_" class="st2" d="M1041.7,1724.4c0,21.1-15.5,31-34.4,21.5l-359-179.7c-12.9-6.4-23.2-23.2-23.2-37.4V695
			c0-14.2,10.3-20.6,23.2-14.2l388.3,194.4c3,1.7,5.2,4.7,5.2,8.2V1724.4L1041.7,1724.4z"/>
	</g>
</g>
</svg>
