<?xml version="1.0" encoding="utf-8"?>
<!-- Generator: Adobe Illustrator 22.0.1, SVG Export Plug-In . SVG Version: 6.00 Build 0)  -->
<svg version="1.1" id="Calque_1" xmlns="http://www.w3.org/2000/svg" xmlns:xlink="http://www.w3.org/1999/xlink" x="0px" y="0px"
	 viewBox="0 0 300 300" style="enable-background:new 0 0 300 300;" xml:space="preserve">
<style type="text/css">
	.st0{opacity:0.85;}
	.st1{fill:none;stroke:#FDA63E;stroke-width:0.75;stroke-linecap:round;stroke-miterlimit:10;}
	.st2{fill:none;stroke:#40F8A2;stroke-width:0.75;stroke-linecap:round;stroke-miterlimit:10;}
	.st3{fill:none;stroke:#7A5CFD;stroke-width:0.75;stroke-linecap:round;stroke-miterlimit:10;}
	.st4{fill:none;stroke:#45BBF2;stroke-width:0.75;stroke-linecap:round;stroke-miterlimit:10;}
	.st5{fill:none;stroke:#304FFC;stroke-width:0.75;stroke-linecap:round;stroke-miterlimit:10;}
	.st6{fill:#530666;}
	.st7{fill:#FFFFFF;}
	.st8{fill:#00FFFE;}
	.st9{fill:none;}
	.st10{fill:none;stroke:url(#SVGID_1_);stroke-width:0.5;stroke-linecap:round;stroke-miterlimit:10;stroke-dasharray:2,3;}
	.st11{fill:none;stroke:url(#SVGID_2_);stroke-width:0.5;stroke-linecap:round;stroke-miterlimit:10;stroke-dasharray:2,3;}
	.st12{fill:none;stroke:url(#SVGID_3_);stroke-width:0.5;stroke-linecap:round;stroke-miterlimit:10;stroke-dasharray:2,3;}
	.st13{opacity:0.7;fill:#304FFE;}
	.st14{opacity:0.5;fill:#F99400;}
	.st15{opacity:0.7;}
	.st16{fill:none;stroke:#304FFE;stroke-width:0.35;stroke-linecap:round;stroke-linejoin:round;stroke-miterlimit:10;}
	.st17{opacity:0.7;fill:none;stroke:#304FFE;stroke-width:0.35;stroke-linecap:round;stroke-linejoin:round;stroke-miterlimit:10;}
	.st18{fill:none;stroke:#0096FF;stroke-width:0.35;stroke-linecap:round;stroke-linejoin:round;stroke-miterlimit:10;}
	.st19{fill:none;stroke:url(#SVGID_4_);stroke-width:0.5;stroke-linecap:round;stroke-miterlimit:10;}
	
		.st20{fill:none;stroke:url(#SVGID_5_);stroke-width:0.5;stroke-linecap:round;stroke-miterlimit:10;stroke-dasharray:1.9857,2.9786;}
	.st21{fill:none;stroke:url(#SVGID_6_);stroke-width:0.5;stroke-linecap:round;stroke-miterlimit:10;}
	.st22{opacity:0.7;fill:none;stroke:#304FFE;stroke-width:0.25;stroke-linecap:round;stroke-linejoin:round;stroke-miterlimit:10;}
</style>
<g class="st0">
	<line class="st1" x1="205.3" y1="188.6" x2="285.7" y2="208"/>
	<line class="st2" x1="195.4" y1="193.1" x2="243.4" y2="210.6"/>
	<line class="st3" x1="201.5" y1="205.6" x2="221.9" y2="216"/>
	<line class="st3" x1="235.3" y1="222.9" x2="254.7" y2="233"/>
	<line class="st4" x1="195.4" y1="188.6" x2="293.7" y2="217.7"/>
	<line class="st4" x1="205.3" y1="202.1" x2="224.2" y2="209.2"/>
	<line class="st1" x1="216.7" y1="209.2" x2="228.5" y2="214.4"/>
	<line class="st1" x1="242.2" y1="220.3" x2="270.1" y2="233"/>
	<line class="st2" x1="247.8" y1="217.7" x2="281.4" y2="233"/>
	<line class="st4" x1="206.5" y1="214.4" x2="229.9" y2="228"/>
	<line class="st3" x1="203.2" y1="216" x2="258.7" y2="253.4"/>
	<line class="st1" x1="208.4" y1="228" x2="234.1" y2="248.2"/>
	<line class="st4" x1="179.6" y1="226.1" x2="194" y2="247.2"/>
	<line class="st4" x1="169.4" y1="220.9" x2="189.7" y2="256.6"/>
	<line class="st5" x1="130.9" y1="216.9" x2="120.8" y2="245"/>
	<line class="st3" x1="129.3" y1="203.6" x2="81" y2="270.8"/>
	<line class="st1" x1="129.3" y1="209" x2="105.2" y2="255.5"/>
	<line class="st4" x1="116.4" y1="207" x2="98.4" y2="229.6"/>
	<line class="st4" x1="89.4" y1="240" x2="63.4" y2="272.2"/>
	<line class="st1" x1="96.5" y1="196.6" x2="84" y2="202.2"/>
	<line class="st5" x1="69.6" y1="206" x2="15" y2="229.9"/>
	<line class="st1" x1="75.3" y1="209.6" x2="6.7" y2="241.2"/>
	<line class="st4" x1="99" y1="199.4" x2="86.8" y2="206"/>
	<line class="st4" x1="79.9" y1="210.1" x2="29" y2="236.5"/>
	<line class="st1" x1="69.6" y1="202.5" x2="54.5" y2="208.4"/>
	<line class="st1" x1="43.8" y1="211.2" x2="9.3" y2="225.6"/>
	<line class="st4" x1="81.6" y1="194.9" x2="52.8" y2="203.5"/>
	<line class="st4" x1="43.8" y1="206" x2="9.3" y2="217.9"/>
	<line class="st3" x1="91.8" y1="181.7" x2="26.6" y2="193.5"/>
	<line class="st4" x1="68.4" y1="179.3" x2="9.3" y2="186.6"/>
	<line class="st1" x1="81.9" y1="55.7" x2="101.7" y2="95.7"/>
	<line class="st3" x1="103.4" y1="97.3" x2="122.5" y2="136.1"/>
	<line class="st5" x1="85.7" y1="97.3" x2="111.9" y2="134.4"/>
	<line class="st4" x1="101.7" y1="75.7" x2="128.4" y2="138.2"/>
	<line class="st4" x1="155.2" y1="75.7" x2="151.8" y2="113.4"/>
	<line class="st1" x1="174.3" y1="34.5" x2="151.8" y2="138.2"/>
	<line class="st2" x1="188.7" y1="23" x2="174.3" y2="68.1"/>
	<line class="st3" x1="173.1" y1="75.7" x2="153.5" y2="138.9"/>
	<line class="st5" x1="197.4" y1="38.1" x2="173.1" y2="98.4"/>
	<line class="st4" x1="280.6" y1="150.7" x2="197.4" y2="166.3"/>
	<line class="st4" x1="291.2" y1="159.5" x2="248" y2="164.7"/>
	<line class="st4" x1="277.5" y1="167.5" x2="225.7" y2="170.6"/>
</g>
<g>
	<g>
		<path class="st6" d="M234.7,207.4h-52.7c-0.7,0-1.3,0.5-1.3,1.2V245c0,0.7,0.6,1.4,1.3,1.4h52.7c0.7,0,1.2-0.7,1.2-1.4v-36.4
			C235.8,207.9,235.4,207.4,234.7,207.4z"/>
	</g>
	<path class="st7" d="M232.7,241.9c0,0.8-0.2,1.1-0.9,1.1H185c-0.7,0-1.7-0.3-1.7-1.1v-30.2c0-0.8,1-1.5,1.7-1.5h46.8
		c0.7,0,0.9,0.7,0.9,1.5V241.9z"/>
	<g>
		<path class="st6" d="M240.5,250.3c0,0.3-0.2,0.5-0.5,0.5h-63.7c-0.3,0-0.5-0.2-0.5-0.5v-2.1c0-0.3,0.2-0.5,0.5-0.5H240
			c0.3,0,0.5,0.2,0.5,0.5V250.3z"/>
	</g>
</g>
<g>
	<g>
		<path class="st6" d="M67.7,67.5l0,31c0,2,1.6,3.5,3.5,3.5l45,0c1.9,0,3.5-1.6,3.5-3.5l0-31c0-1.9-1.6-3.5-3.5-3.5l-45,0
			C69.3,63.9,67.7,65.5,67.7,67.5z"/>
	</g>
	<g>
		<path class="st8" d="M118.4,83c0,1.2-0.9,2.1-2.1,2.1c-1.2,0-2.1-0.9-2.1-2.1c0-1.2,0.9-2.1,2.1-2.1
			C117.5,80.9,118.4,81.8,118.4,83z"/>
	</g>
	<rect x="71.9" y="67.5" class="st7" width="40.4" height="30.9"/>
</g>
<rect x="260.5" y="166.6" class="st9" width="2.3" height="2"/>
<rect x="256.6" y="166.6" class="st9" width="2.3" height="2"/>
<linearGradient id="SVGID_1_" gradientUnits="userSpaceOnUse" x1="156.8318" y1="215.5945" x2="180.7206" y2="215.5945">
	<stop  offset="0" style="stop-color:#304FFC"/>
	<stop  offset="1" style="stop-color:#40F8A2"/>
</linearGradient>
<path class="st10" d="M180.5,226.6l-16.5,0c0,0-6.9,0.3-6.9-6.7v-15.2"/>
<g>
	<g>
		<path class="st6" d="M209.5,113.7H102.4c-1.5,0-2.9,0.8-2.9,2.3v73.9c0,1.5,1.5,2.6,2.9,2.6h40c0,0,0,6.8,0,6.8h-5.5
			c-1.3,0-2.4,1-2.4,2.4c0,1.3,1.1,2.4,2.4,2.4h39.4c1.3,0,2.4-1,2.4-2.4c0-1.3-1.1-2.4-2.4-2.4h-5.7c0,0-0.1-6.8-0.1-6.8h38.9
			c1.5,0,2.9-1.1,2.9-2.6V116C212.4,114.6,210.9,113.7,209.5,113.7z"/>
	</g>
	<path class="st7" d="M209.8,182.1c0,1.6-1.3,3-2.9,3H104.8c-1.6,0-2.9-1.3-2.9-3v-62.6c0-1.6,1.3-3,2.9-3h102.1
		c1.6,0,2.9,1.3,2.9,3V182.1z"/>
</g>
<g>
	<g>
		<path class="st6" d="M249.2,74.9h-20c-1.9,0-3.5,1.6-3.5,3.5v40.7c0,1.9,1.5,3.5,3.5,3.5h20c1.9,0,3.5-1.6,3.5-3.5V78.4
			C252.7,76.5,251.1,74.9,249.2,74.9z"/>
	</g>
	<rect x="228.3" y="80.8" class="st7" width="21.8" height="32.7"/>
	<g>
		<polygon class="st8" points="243.9,78.5 234.6,78.5 234.6,77.4 243.9,77.4 243.9,78.5 		"/>
	</g>
	<g>
		<path class="st8" d="M247.8,78c0,0.5-0.4,0.9-0.9,0.9c-0.5,0-0.9-0.4-0.9-0.9s0.4-0.9,0.9-0.9C247.4,77.1,247.8,77.5,247.8,78z"/>
	</g>
	<g>
		<rect x="235" y="116.3" class="st8" width="8.5" height="2.6"/>
	</g>
</g>
<linearGradient id="SVGID_2_" gradientUnits="userSpaceOnUse" x1="120.1768" y1="98.4078" x2="149.0701" y2="98.4078">
	<stop  offset="0" style="stop-color:#304FFC"/>
	<stop  offset="1" style="stop-color:#40F8A2"/>
</linearGradient>
<path class="st11" d="M120.4,83h18.2c0,0,10.2-0.4,10.2,9.7v21.2"/>
<linearGradient id="SVGID_3_" gradientUnits="userSpaceOnUse" x1="440.1219" y1="303.3872" x2="470.8217" y2="303.3872" gradientTransform="matrix(0 1 -1 0 530.2754 -316.6111)">
	<stop  offset="0" style="stop-color:#304FFC"/>
	<stop  offset="1" style="stop-color:#40F8A2"/>
</linearGradient>
<path class="st12" d="M239,123.8v19.9c0,0,0.4,10.3-9.5,10.3h-14.8"/>
<rect x="112.2" y="128" class="st13" width="88" height="8.5"/>
<rect x="189.2" y="217.4" class="st13" width="41.6" height="4.8"/>
<rect x="189.2" y="223.6" class="st14" width="41.6" height="2.3"/>
<rect x="231.1" y="84.1" class="st13" width="16.1" height="13"/>
<rect x="231" y="98.4" class="st13" width="16.1" height="4.3"/>
<rect x="231.1" y="104.2" class="st14" width="16.1" height="6.2"/>
<rect x="134.4" y="171.6" class="st13" width="65.8" height="4.5"/>
<rect x="74.1" y="91" class="st14" width="35.7" height="3.2"/>
<rect x="112.2" y="171.6" class="st13" width="19.1" height="4.5"/>
<rect x="112.1" y="139.6" class="st14" width="19.4" height="9.5"/>
<rect x="135" y="139.6" class="st14" width="19.4" height="9.5"/>
<rect x="157.8" y="139.6" class="st14" width="19.4" height="9.5"/>
<rect x="180.7" y="139.6" class="st14" width="19.4" height="9.5"/>
<rect x="74" y="70.8" class="st13" width="36.1" height="5.2"/>
<g class="st15">
	<line class="st16" x1="112.6" y1="155.8" x2="127.6" y2="155.8"/>
	<line class="st16" x1="112.6" y1="158.1" x2="125.8" y2="158.1"/>
	<line class="st16" x1="112.6" y1="160.4" x2="130.3" y2="160.4"/>
	<line class="st16" x1="112.6" y1="162.6" x2="129.4" y2="162.6"/>
	<line class="st16" x1="112.6" y1="164.9" x2="132.1" y2="164.9"/>
	<line class="st16" x1="158.4" y1="155.8" x2="173.4" y2="155.8"/>
	<line class="st16" x1="158.4" y1="158.1" x2="176.1" y2="158.1"/>
	<line class="st16" x1="158.4" y1="160.4" x2="177.9" y2="160.4"/>
	<line class="st16" x1="158.4" y1="162.6" x2="175.2" y2="162.6"/>
	<line class="st16" x1="158.4" y1="164.9" x2="177.9" y2="164.9"/>
	<line class="st16" x1="135.3" y1="155.8" x2="154.8" y2="155.8"/>
	<line class="st16" x1="135.3" y1="158.1" x2="152.5" y2="158.1"/>
	<line class="st16" x1="135.3" y1="160.4" x2="148.4" y2="160.4"/>
	<line class="st16" x1="135.3" y1="162.6" x2="154.8" y2="162.6"/>
	<line class="st16" x1="135.3" y1="164.9" x2="154.8" y2="164.9"/>
</g>
<line class="st17" x1="189.5" y1="228" x2="201.3" y2="228"/>
<line class="st17" x1="203.3" y1="228" x2="215.1" y2="228"/>
<line class="st17" x1="217.2" y1="228" x2="230.4" y2="228"/>
<line class="st17" x1="189.5" y1="230" x2="201.3" y2="230"/>
<line class="st17" x1="203.3" y1="230" x2="215.1" y2="230"/>
<line class="st17" x1="217.2" y1="230" x2="230.4" y2="230"/>
<line class="st17" x1="189.5" y1="232" x2="201.3" y2="232"/>
<line class="st17" x1="203.3" y1="232" x2="215.1" y2="232"/>
<line class="st17" x1="217.2" y1="232" x2="230.4" y2="232"/>
<line class="st17" x1="189.5" y1="234" x2="201.3" y2="234"/>
<line class="st17" x1="203.3" y1="234" x2="215.1" y2="234"/>
<line class="st17" x1="217.2" y1="234" x2="230.4" y2="234"/>
<line class="st17" x1="189.5" y1="236" x2="201.3" y2="236"/>
<line class="st17" x1="203.4" y1="236" x2="215.2" y2="236"/>
<line class="st17" x1="217.2" y1="236" x2="230.4" y2="236"/>
<line class="st17" x1="189.5" y1="238" x2="201.3" y2="238"/>
<line class="st17" x1="203.3" y1="238" x2="215.1" y2="238"/>
<line class="st17" x1="217.2" y1="238" x2="230.4" y2="238"/>
<line class="st18" x1="74.1" y1="78.3" x2="85.4" y2="78.3"/>
<line class="st17" x1="74.1" y1="80" x2="85.4" y2="80"/>
<line class="st18" x1="74.1" y1="81.7" x2="85.4" y2="81.7"/>
<line class="st18" x1="74.1" y1="83.4" x2="85.4" y2="83.4"/>
<line class="st18" x1="74.1" y1="85.1" x2="85.4" y2="85.1"/>
<line class="st18" x1="74.1" y1="86.9" x2="85.4" y2="86.9"/>
<line class="st18" x1="74.1" y1="88.6" x2="85.4" y2="88.6"/>
<line class="st18" x1="87" y1="78.3" x2="97.3" y2="78.3"/>
<line class="st18" x1="87" y1="80" x2="97.3" y2="80"/>
<line class="st18" x1="87" y1="81.7" x2="97.3" y2="81.7"/>
<line class="st18" x1="87" y1="83.4" x2="97.3" y2="83.4"/>
<line class="st18" x1="87" y1="85.1" x2="97.3" y2="85.1"/>
<line class="st18" x1="87" y1="86.9" x2="97.3" y2="86.9"/>
<line class="st18" x1="87" y1="88.6" x2="97.3" y2="88.6"/>
<line class="st18" x1="98.9" y1="78.3" x2="109.8" y2="78.3"/>
<line class="st18" x1="98.9" y1="80" x2="109.8" y2="80"/>
<line class="st18" x1="98.9" y1="81.7" x2="109.8" y2="81.7"/>
<line class="st18" x1="98.9" y1="83.4" x2="109.8" y2="83.4"/>
<line class="st18" x1="98.9" y1="85.1" x2="109.8" y2="85.1"/>
<line class="st18" x1="98.9" y1="86.9" x2="109.8" y2="86.9"/>
<line class="st18" x1="98.9" y1="88.6" x2="109.8" y2="88.6"/>
<g>
	<g>
		<g>
			<path class="st6" d="M82.2,181.7l-24.4,0c-1.5,0-2.8,1.2-2.8,2.8l0,35.4c0,1.5,1.2,2.8,2.8,2.8l24.4,0c1.5,0,2.8-1.2,2.8-2.8
				l0-35.4C85,183,83.8,181.7,82.2,181.7z"/>
		</g>
		<g>
			<path class="st8" d="M70,221.6c-0.9,0-1.7-0.7-1.7-1.7c0-0.9,0.7-1.7,1.7-1.7c0.9,0,1.7,0.7,1.7,1.7
				C71.7,220.9,70.9,221.6,70,221.6z"/>
		</g>
		<rect x="57.8" y="185" class="st7" width="24.3" height="31.8"/>
	</g>
	<g>
		<g>
			<linearGradient id="SVGID_4_" gradientUnits="userSpaceOnUse" x1="69.766" y1="147.5594" x2="98.9689" y2="147.5594">
				<stop  offset="0" style="stop-color:#304FFC"/>
				<stop  offset="1" style="stop-color:#40F8A2"/>
			</linearGradient>
			<line class="st19" x1="98.7" y1="147.6" x2="97.7" y2="147.6"/>
			<linearGradient id="SVGID_5_" gradientUnits="userSpaceOnUse" x1="69.766" y1="163.0206" x2="98.9689" y2="163.0206">
				<stop  offset="0" style="stop-color:#304FFC"/>
				<stop  offset="1" style="stop-color:#40F8A2"/>
			</linearGradient>
			<path class="st20" d="M94.7,147.6H76.3c-6.6,0-6.3,6.2-6.3,6.2v23.3l0,1.3"/>
			<linearGradient id="SVGID_6_" gradientUnits="userSpaceOnUse" x1="69.766" y1="180.4712" x2="98.9689" y2="180.4712">
				<stop  offset="0" style="stop-color:#304FFC"/>
				<stop  offset="1" style="stop-color:#40F8A2"/>
			</linearGradient>
			<line class="st21" x1="70" y1="180" x2="70" y2="181"/>
		</g>
	</g>
	<rect x="70.3" y="201.5" class="st13" width="10.3" height="8.1"/>
	<rect x="59.4" y="187.7" class="st13" width="21.2" height="2.8"/>
	<rect x="59.6" y="211" class="st14" width="21.2" height="1"/>
	<rect x="59.6" y="213" class="st14" width="21.2" height="1"/>
	<rect x="59.4" y="191.8" class="st14" width="10.1" height="8.3"/>
	<line class="st22" x1="70.6" y1="192" x2="80.4" y2="192"/>
	<line class="st22" x1="70.6" y1="193.6" x2="80.4" y2="193.6"/>
	<line class="st22" x1="70.6" y1="195.1" x2="80.4" y2="195.1"/>
	<line class="st22" x1="70.6" y1="196.7" x2="80.4" y2="196.7"/>
	<line class="st22" x1="70.6" y1="198.3" x2="80.4" y2="198.3"/>
	<line class="st22" x1="70.6" y1="199.9" x2="80.4" y2="199.9"/>
	<line class="st22" x1="59.6" y1="201.5" x2="69.3" y2="201.5"/>
	<line class="st22" x1="59.6" y1="203.1" x2="69.3" y2="203.1"/>
	<line class="st22" x1="59.6" y1="204.6" x2="69.3" y2="204.6"/>
	<line class="st22" x1="59.6" y1="206.2" x2="69.3" y2="206.2"/>
	<line class="st22" x1="59.6" y1="207.8" x2="69.3" y2="207.8"/>
	<line class="st22" x1="59.6" y1="209.3" x2="69.3" y2="209.3"/>
</g>
<g>
	<circle class="st8" cx="155.7" cy="189.2" r="1.8"/>
</g>
</svg>
