<?xml version="1.0" encoding="utf-8"?>
<!-- Generator: Adobe Illustrator 22.1.0, SVG Export Plug-In . SVG Version: 6.00 Build 0)  -->
<svg version="1.1" id="Layer_1" xmlns="http://www.w3.org/2000/svg" xmlns:xlink="http://www.w3.org/1999/xlink" x="0px" y="0px"
	 viewBox="0 0 128 128" style="enable-background:new 0 0 128 128;" xml:space="preserve">
<style type="text/css">
	.st0{fill:#3C4C7D;}
</style>
<g>
	<g>
		<path class="st0" d="M90.8,93.9H37.2c-0.6,0-1-0.4-1-1V57.5c0-0.6,0.4-1,1-1h53.5c0.6,0,1,0.4,1,1V93
			C91.8,93.5,91.3,93.9,90.8,93.9z M38.2,91.9h51.5V58.5H38.2V91.9z"/>
	</g>
	<g>
		<path class="st0" d="M82.9,58.5H45.1c-0.6,0-1-0.4-1-1V44.1c0-11,8.9-19.9,19.9-19.9s19.9,8.9,19.9,19.9v13.4
			C83.9,58,83.5,58.5,82.9,58.5z M46.1,56.5h35.8V44.1c0-9.9-8-17.9-17.9-17.9s-17.9,8-17.9,17.9C46.1,44.1,46.1,56.5,46.1,56.5z"/>
	</g>
	<g>
		<path class="st0" d="M115.3,99.9c-0.4,0-0.8-0.1-1.1-0.3c-0.9-0.6-1.2-1.9-0.6-2.8c6.5-9.7,9.9-21.1,9.9-32.8s-3.4-23.1-9.9-32.8
			c-0.6-0.9-0.4-2.2,0.6-2.8c0.9-0.6,2.2-0.4,2.8,0.6c6.9,10.4,10.5,22.5,10.5,35s-3.6,24.6-10.5,35C116.6,99.6,116,99.9,115.3,99.9
			z"/>
	</g>
	<g>
		<path class="st0" d="M97.9,14.7c-0.4,0-0.8-0.1-1.1-0.3C87.1,7.9,75.7,4.5,64,4.5s-23.1,3.4-32.8,9.9c-0.9,0.6-2.2,0.4-2.8-0.6
			C27.8,12.9,28,11.6,29,11C39.4,4.1,51.5,0.5,64,0.5S88.6,4.1,99,11c0.9,0.6,1.2,1.9,0.6,2.8C99.2,14.4,98.6,14.7,97.9,14.7z"/>
	</g>
	<g>
		<path class="st0" d="M12.7,99.9c-0.6,0-1.3-0.3-1.7-0.9C4.1,88.6,0.5,76.5,0.5,64S4.1,39.4,11,29c0.6-0.9,1.9-1.2,2.8-0.6
			c0.9,0.6,1.2,1.9,0.6,2.8C7.9,40.9,4.5,52.3,4.5,64s3.4,23.1,9.9,32.8c0.6,0.9,0.4,2.2-0.6,2.8C13.5,99.8,13.1,99.9,12.7,99.9z"/>
	</g>
	<g>
		<path class="st0" d="M64,127.5c-12.5,0-24.6-3.6-35-10.5c-0.9-0.6-1.2-1.9-0.6-2.8s1.9-1.2,2.8-0.6c9.7,6.5,21.1,9.9,32.8,9.9
			s23.1-3.4,32.8-9.9c0.9-0.6,2.2-0.4,2.8,0.6c0.6,0.9,0.4,2.2-0.6,2.8C88.6,123.9,76.5,127.5,64,127.5z"/>
	</g>
	<g>
		<path class="st0" d="M20.4,34.8C12.5,34.8,6,28.4,6,20.4S12.5,6.1,20.4,6.1s14.4,6.4,14.4,14.4S28.4,34.8,20.4,34.8z M20.4,10.1
			c-5.7,0-10.4,4.7-10.4,10.4s4.7,10.4,10.4,10.4s10.4-4.7,10.4-10.4C30.8,14.7,26.2,10.1,20.4,10.1z"/>
	</g>
	<g>
		<path class="st0" d="M107.6,121.9c-7.9,0-14.4-6.4-14.4-14.4c0-7.9,6.4-14.4,14.4-14.4c7.9,0,14.4,6.4,14.4,14.4
			C121.9,115.5,115.5,121.9,107.6,121.9z M107.6,97.2c-5.7,0-10.4,4.7-10.4,10.4c0,5.7,4.7,10.4,10.4,10.4c5.7,0,10.4-4.7,10.4-10.4
			C117.9,101.8,113.3,97.2,107.6,97.2z"/>
	</g>
	<g>
		<path class="st0" d="M107.6,34.8c-7.9,0-14.4-6.4-14.4-14.4S99.6,6,107.6,6c7.9,0,14.4,6.4,14.4,14.4S115.5,34.8,107.6,34.8z
			 M107.6,10.1c-5.7,0-10.4,4.7-10.4,10.4s4.7,10.4,10.4,10.4c5.7,0,10.4-4.7,10.4-10.4C117.9,14.7,113.3,10.1,107.6,10.1z"/>
	</g>
	<g>
		<path class="st0" d="M20.4,121.9c-7.9,0-14.4-6.4-14.4-14.4c0-7.9,6.4-14.4,14.4-14.4c7.9,0,14.4,6.4,14.4,14.4
			S28.4,121.9,20.4,121.9z M20.4,97.2c-5.7,0-10.4,4.7-10.4,10.4c0,5.7,4.7,10.4,10.4,10.4s10.4-4.7,10.4-10.4
			C30.8,101.8,26.2,97.2,20.4,97.2z"/>
	</g>
</g>
</svg>
