<?xml version="1.0" encoding="utf-8"?>
<!-- Generator: Adobe Illustrator 22.0.1, SVG Export Plug-In . SVG Version: 6.00 Build 0)  -->
<svg version="1.1" id="Calque_1" xmlns="http://www.w3.org/2000/svg" xmlns:xlink="http://www.w3.org/1999/xlink" x="0px" y="0px"
	 viewBox="0 0 2500 2500" style="enable-background:new 0 0 2500 2500;" xml:space="preserve">
<style type="text/css">
	.st0{fill:#FFFFFF;}
	.st1{fill:#530666;}
</style>
<circle class="st0" cx="1250" cy="1250" r="1250"/>
<path class="st1" d="M1533.1,658.4v-0.3h68.3l25,5c16.6,3.2,31.8,7.5,45.3,12.7c13.6,5.3,26.7,11.4,39.4,18.4
	c12.7,7,24.2,14.1,34.6,21.4c10.2,7.2,19.4,14.8,27.6,22.9c8.1,8.1,20.6,10.2,37.7,6.3s35.5-9.4,55.2-16.4s39.2-14.9,58.5-23.7
	c19.3-8.8,31-14.3,35.2-16.7c4.1-2.5,6.3-3.8,6.6-3.9l0.3-0.4l1.3-0.7l1.3-0.7l1.3-0.7l1.3-0.7l0.3-0.4l0.4-0.3l0.4-0.3l0.3-0.4
	l1.3-0.4l1.3-0.3l-0.3,2l-0.4,2l-0.7,2l-0.7,2l-0.7,1.3l-0.7,1.3l-0.7,2c-0.4,1.3-0.9,3.1-1.3,5.3c-0.4,2.2-4.6,10.9-12.5,26.3
	s-17.7,30.9-29.6,46.6s-22.4,27.7-31.8,35.7c-9.5,8.1-15.7,13.8-18.8,17.1c-3.1,3.3-6.8,6.4-11.2,9.2l-6.6,4.3l-1.3,0.7l-1.3,0.7
	l-0.3,0.4l-0.4,0.3l-0.4,0.3l-0.3,0.4l-1.3,0.7l-1.3,0.7l-0.3,0.4l-0.4,0.3l-0.4,0.3l-0.3,0.4l-0.3,0.4l-0.4,0.3l-0.4,0.3l-0.3,0.4
	h6.6l36.8-7.9c24.5-5.3,48-11.6,70.3-19.1l35.5-11.8l3.9-1.3l2-0.7l1.3-0.7l1.3-0.7l1.3-0.7l1.3-0.7l2.6-0.4l2.6-0.3v2.6l-0.7,0.3
	l-0.7,0.4l-0.3,0.4l-0.4,0.3l-0.4,0.3l-0.3,0.4l-0.3,0.4l-0.4,0.3l-0.4,0.3l-0.3,0.4l-0.3,0.4l-0.4,0.3l-0.7,1.3l-0.7,1.3l-0.4,0.3
	c-0.2,0.3-5.7,7.7-16.7,22.3c-10.9,14.7-16.9,22.2-17.7,22.3c-0.9,0.3-2.1,1.6-3.7,3.9c-1.5,2.5-10.8,12.2-27.9,29.3
	c-17.1,17.1-33.8,32.3-50.2,45.6c-16.5,13.4-24.8,29.9-25,49.4c-0.3,19.4-1.3,41.4-3,66c-1.8,24.5-5,51-9.9,79.5
	c-4.8,28.5-12.3,60.7-22.3,96.6c-10.1,35.9-22.3,79-36.8,113.1c-14.5,34.2-29.6,56.8-45.3,84c-15.8,27.2-30.2,50.1-43.4,69
	c-13.1,18.8-26.5,36.6-40.1,53.2c-13.6,16.6-30.7,35.4-51.5,56.2c-20.8,20.8-32.2,32.1-34.2,34.2c-2,1.9-10.6,9.1-25.8,21.5
	c-15.1,12.5-31.3,25.1-48.6,37.6c-17.3,12.4-33.1,22.8-47.6,31.1s-31.9,17.8-52.3,28.5c-20.3,10.8-42.3,20.8-66,30
	s-48.6,17.7-74.9,25.6c-26.3,7.9-51.7,14-76.2,18.4c-24.5,4.4-52.3,8.1-83.4,11.2l-46.6,4.6v0.7H976v-0.7l-11.2-0.7
	c-7.4-0.4-13.6-0.9-18.4-1.3c-4.8-0.4-23-2.8-54.5-7.2c-31.5-4.4-56.3-8.8-74.2-13.1c-18-4.4-44.7-12.7-80.1-25
	c-35.5-12.3-65.8-24.7-91.1-37.2c-25.1-12.4-40.9-20.3-47.3-23.7c-6.3-3.2-13.4-7.3-21.3-12.1l-11.8-7.2l-0.3-0.4l-0.4-0.3l-0.4-0.3
	l-0.3-0.4l-1.3-0.7l-1.3-0.7l-0.3-0.4l-0.4-0.3l-0.4-0.3l-0.3-0.4l-0.3-0.4l-0.4-0.3h-0.7v-2.6l1.3,0.3l1.3,0.4l5.9,0.7
	c3.9,0.4,14.7,1.1,32.2,2c17.5,0.9,36.1,0.9,55.8,0c19.7-0.9,39.9-2.8,60.4-5.9c20.6-3.1,44.9-8.3,72.9-15.8
	c28-7.4,53.8-16.3,77.3-26.5c23.4-10.3,40-18,49.9-23.1c9.8-5,24.8-14.3,44.9-27.9l30.2-20.4l0.3-0.4l0.4-0.3l0.4-0.3l0.3-0.4
	l0.3-0.4l0.4-0.3l0.4-0.3l0.3-0.4l1.3-0.4l1.3-0.3l0.3-1.3l0.4-1.3l0.4-0.3l0.3-0.4l-10.5-0.7c-7-0.4-13.8-0.9-20.4-1.3
	c-6.6-0.4-16.9-2.4-30.9-5.9c-14-3.5-29.1-8.8-45.3-15.8c-16.2-7-32-15.3-47.3-25c-15.3-9.6-26.4-17.7-33.2-24
	c-6.7-6.3-15.5-15.2-26.3-26.8c-10.7-11.6-20-23.6-27.9-35.9c-7.9-12.3-15.4-26.4-22.6-42.4L723,1382l-0.7-2l-0.7-2l-0.4-1.3
	l-0.3-1.3l2,0.3l2,0.4l14.5,2c9.6,1.3,24.7,1.8,45.3,1.3c20.6-0.4,34.8-1.3,42.7-2.6c7.9-1.3,12.7-2.2,14.5-2.6l2.6-0.7l3.3-0.7
	l3.3-0.7l0.3-0.4l0.4-0.3l0.4-0.3l0.3-0.4l-2.6-0.7l-2.6-0.7l-2.6-0.7l-2.6-0.7l-2.6-0.7c-1.8-0.4-4.8-1.3-9.2-2.6
	c-4.4-1.3-16.2-6.1-35.5-14.5c-19.3-8.3-34.6-16.4-46-24.3c-11.4-7.9-22.3-16.6-32.6-25.9c-10.2-9.5-21.5-21.6-33.8-36.5
	c-12.3-14.9-23.2-32.2-32.8-51.9c-9.6-19.7-16.9-38.5-21.7-56.5c-4.8-17.9-8-36.1-9.5-54.5l-2.4-27.6l1.3,0.3l1.3,0.4l1.3,0.7
	l1.3,0.7l1.3,0.7l1.3,0.7l20.4,9.2c13.6,6.1,30.4,11.4,50.6,15.8c20.1,4.4,32.2,6.8,36.1,7.2l5.9,0.7h11.8l-0.3-0.4l-0.4-0.3
	l-0.4-0.3l-0.3-0.4l-0.3-0.4l-0.4-0.3l-0.4-0.3l-0.3-0.4l-1.3-0.7l-1.3-0.7l-0.3-0.4l-0.4-0.3l-0.4-0.3l-0.3-0.4l-1.3-0.7l-1.3-0.7
	l-0.3-0.4c-0.3-0.2-4-3-11.3-8.4c-7.2-5.5-14.7-12.7-22.6-21.4c-7.9-8.8-15.8-18-23.7-27.6c-7.9-9.7-14.9-20-21-30.9
	c-6.1-10.9-12.6-24.9-19.4-41.8c-6.7-16.8-11.9-33.8-15.4-50.8c-3.5-17.1-5.5-33.9-5.9-50.6c-0.4-16.6,0-30.9,1.3-42.7
	c1.3-11.8,3.9-25.2,7.9-40.1c3.9-14.9,9.6-30.7,17.1-47.3l11.2-25l0.7-2l0.7-2l0.4-0.3l0.3-0.4l0.3-0.4l0.4-0.3l0.4,0.3l0.3,0.4
	l0.3,0.4l0.4,0.3l0.4,0.3l0.3,0.4l0.3,0.4l0.4,0.3l0.7,1.3l0.7,1.3l0.4,0.3l0.3,0.4l17.7,19.7c11.8,13.1,25.8,27.8,42,44
	c16.2,16.2,25.2,24.6,26.9,25.2c1.8,0.7,3.9,2.7,6.6,6c2.6,3.2,11.4,11,26.3,23.3c14.9,12.3,34.4,26.5,58.5,42.7
	c24.1,16.2,50.8,32.2,80.1,48c29.3,15.8,60.9,30,94.6,42.7c33.7,12.7,57.4,21,71,25c13.6,3.9,36.8,9,69.6,15.1
	c32.8,6.1,57.6,10.1,74.2,11.8c16.6,1.8,28,2.8,34.2,3l9.2,0.3l-0.3-2l-0.4-2l-2.6-16.4c-1.8-10.9-2.6-26.3-2.6-46
	c0-19.7,1.5-37.9,4.6-54.5c3.1-16.6,7.7-33.5,13.8-50.6c6.1-17.1,12.1-30.8,18-41.1c6-10.2,13.8-21.9,23.4-35.1
	c9.6-13.1,22.1-26.7,37.4-40.7c15.3-14,32.8-26.5,52.6-37.4c19.7-10.9,37.9-19.3,54.5-25c16.6-5.7,30.7-9.4,42-11.2
	C1527.4,659.6,1533.1,658.6,1533.1,658.4z"/>
</svg>
