<svg version="1.1" baseProfile="basic" id="Calque_2_1_" xmlns="http://www.w3.org/2000/svg" x="0" y="0" viewBox="0 0 130 51" xml:space="preserve"><style type="text/css">.st0{fill:#1d1d1b}</style><g id="Ynov_Campus_1_"><path class="st0" d="M43.1 40.1l-1.2 1.4c-.8-.9-2.1-1.5-3.3-1.5-2.4 0-4.2 1.8-4.2 4.1 0 2.4 1.9 4.1 4.2 4.1 1.2 0 2.4-.6 3.3-1.4l1.2 1.3c-1.2 1.2-2.9 1.9-4.6 1.9-3.4 0-6.1-2.6-6.1-6 0-3.3 2.7-5.9 6.1-5.9 1.8.1 3.6.8 4.6 2M48.9 47.4l-1.2 2.7h-2.1l5.2-11.8h2L58 50.1h-2.1l-1.2-2.7h-5.8zm2.9-7l-2.2 5.2h4.5l-2.3-5.2zM72.3 50l-.1-8.7-3.7 7.5h-1.3l-3.7-7.5V50h-1.8V38.3h2.4l3.8 7.8 3.8-7.8h2.4V50zM83.9 38.3c2.9 0 4.6 1.4 4.6 4 0 2.7-1.6 4.2-4.6 4.2h-2.7V50h-2V38.3h4.7zm-2.7 6.4h2.6c1.8 0 2.8-.8 2.8-2.4 0-1.5-1.1-2.2-2.8-2.2h-2.6v4.6zM102.6 45.1c0 3.1-1.9 4.9-5.1 4.9-3.2 0-5.1-1.9-5.1-4.9v-6.8h1.9v6.8c0 2 1.2 3.2 3.2 3.2 1.9 0 3.1-1.2 3.1-3.2v-6.8h2v6.8zM115.5 39.4l-.8 1.8c-1.3-.8-2.6-1.1-3.4-1.1-1.2 0-1.9.5-1.9 1.2 0 2.6 6.4 1.2 6.4 5.4 0 2.1-1.9 3.4-4.5 3.4-1.9 0-3.5-.7-4.8-1.9l.8-1.8c1.2 1.1 2.7 1.8 4 1.8 1.4 0 2.2-.5 2.2-1.4 0-2.6-6.4-1.2-6.4-5.3 0-2 1.8-3.3 4.2-3.3 1.6 0 3.1.5 4.2 1.2M81.9.9c-8.5 0-15.4 6.9-15.4 15.4s6.9 15.4 15.4 15.4 15.4-6.9 15.4-15.4S90.4.9 81.9.9m0 23.4c-4.5 0-8.1-3.6-8.1-8.1s3.6-8.1 8.1-8.1 8.1 3.6 8.1 8.1-3.6 8.1-8.1 8.1M48.1.9c-8.5 0-15.4 6.9-15.4 15.4V31H40V16.3c0-4.5 3.6-8.1 8.1-8.1s8.1 3.6 8.1 8.1V31h7.3V16.3c0-8.4-7-15.4-15.4-15.4M26.1 1.6L6.8 50h7.9L34 1.6zM16.1 16.8c0-.9-.2-1.9-.6-2.8l-5-12.4H2.7l8.8 22c2.7-1 4.6-3.6 4.6-6.8M119.5 1.6l-11.8 29.3h8l11.6-29.3zM108.9 14.1L104 1.6h-8l8.8 22c2.7-1.1 4.6-3.6 4.6-6.8.1-.9-.2-1.9-.5-2.7"/></g></svg>